<svg width="1000" height="746" viewBox="0 0 1000 746" fill="none" xmlns="http://www.w3.org/2000/svg">
<path d="M1000 654.8H0V655.3H1000V654.8Z" fill="#EBEBEB"/>
<path d="M899.8 686.98H833.56V687.48H899.8V686.98Z" fill="#EBEBEB"/>
<path d="M662.44 692.42H584V692.92H662.44V692.42Z" fill="#EBEBEB"/>
<path d="M831.56 668.42H717.52V668.92H831.56V668.42Z" fill="#EBEBEB"/>
<path d="M486.22 671.78H348.96V672.28H486.22V671.78Z" fill="#EBEBEB"/>
<path d="M516.68 671.78H504.02V672.28H516.68V671.78Z" fill="#EBEBEB"/>
<path d="M450.28 680.22H196.66V680.72H450.28V680.22Z" fill="#EBEBEB"/>
<path d="M474 565.6H87.82C84.7947 565.595 81.8951 564.389 79.7578 562.248C77.6204 560.107 76.42 557.205 76.42 554.18V11.32C76.4463 8.31205 77.6584 5.43596 79.7929 3.31644C81.9274 1.19692 84.8119 0.00515278 87.82 0H474C477.029 0 479.933 1.20318 482.075 3.34484C484.217 5.48651 485.42 8.39123 485.42 11.42V554.18C485.42 557.209 484.217 560.114 482.075 562.255C479.933 564.397 477.029 565.6 474 565.6ZM87.82 0.400002C84.9273 0.4053 82.1549 1.55813 80.1113 3.60545C78.0677 5.65278 76.92 8.4273 76.92 11.32V554.18C76.92 557.073 78.0677 559.847 80.1113 561.895C82.1549 563.942 84.9273 565.095 87.82 565.1H474C476.895 565.095 479.669 563.943 481.716 561.896C483.763 559.849 484.915 557.075 484.92 554.18V11.32C484.915 8.42546 483.763 5.65099 481.716 3.60423C479.669 1.55748 476.895 0.405288 474 0.400002H87.82Z" fill="#EBEBEB"/>
<path d="M906.62 565.6H520.42C517.393 565.595 514.491 564.39 512.351 562.249C510.21 560.109 509.005 557.207 509 554.18V11.32C509.032 8.31023 510.248 5.43415 512.386 3.31519C514.523 1.19622 517.41 0.00509658 520.42 0H906.62C909.625 0.010409 912.504 1.2045 914.634 3.32346C916.764 5.44241 917.974 8.3155 918 11.32V554.18C918 557.202 916.802 560.101 914.669 562.241C912.536 564.382 909.642 565.589 906.62 565.6ZM520.42 0.400002C517.525 0.405288 514.751 1.55748 512.704 3.60423C510.657 5.65099 509.505 8.42546 509.5 11.32V554.18C509.505 557.075 510.657 559.849 512.704 561.896C514.751 563.943 517.525 565.095 520.42 565.1H906.62C909.515 565.095 912.289 563.943 914.336 561.896C916.383 559.849 917.535 557.075 917.54 554.18V11.32C917.535 8.42546 916.383 5.65099 914.336 3.60423C912.289 1.55748 909.515 0.405288 906.62 0.400002H520.42Z" fill="#EBEBEB"/>
<path d="M733.1 270.5C791.002 270.5 837.94 223.562 837.94 165.66C837.94 107.759 791.002 60.8201 733.1 60.8201C675.198 60.8201 628.26 107.759 628.26 165.66C628.26 223.562 675.198 270.5 733.1 270.5Z" fill="#E0E0E0"/>
<path d="M741.04 270.5C798.942 270.5 845.88 223.562 845.88 165.66C845.88 107.759 798.942 60.8201 741.04 60.8201C683.138 60.8201 636.2 107.759 636.2 165.66C636.2 223.562 683.138 270.5 741.04 270.5Z" fill="#F5F5F5"/>
<path d="M741.04 255.62C790.724 255.62 831 215.343 831 165.66C831 115.976 790.724 75.7 741.04 75.7C691.356 75.7 651.08 115.976 651.08 165.66C651.08 215.343 691.356 255.62 741.04 255.62Z" fill="white"/>
<path d="M741.04 168C740.574 168.004 740.119 167.866 739.733 167.606C739.347 167.345 739.05 166.973 738.88 166.54C738.762 166.255 738.702 165.95 738.703 165.642C738.704 165.333 738.765 165.028 738.884 164.744C739.003 164.46 739.177 164.202 739.396 163.985C739.615 163.768 739.875 163.596 740.16 163.48L787.46 144.4C788.024 144.228 788.633 144.274 789.165 144.528C789.698 144.782 790.116 145.227 790.337 145.774C790.558 146.321 790.565 146.931 790.359 147.484C790.152 148.037 789.746 148.492 789.22 148.76L742 167.84C741.696 167.964 741.368 168.018 741.04 168Z" fill="#F5F5F5"/>
<path d="M719.86 205.62C719.031 205.615 718.217 205.39 717.503 204.969C716.788 204.548 716.198 203.945 715.791 203.222C715.385 202.499 715.177 201.681 715.19 200.852C715.202 200.022 715.433 199.211 715.86 198.5L735.54 165.74L701.24 112.4C700.876 111.882 700.621 111.295 700.49 110.676C700.358 110.056 700.354 109.417 700.475 108.796C700.597 108.174 700.844 107.584 701.199 107.06C701.555 106.536 702.013 106.09 702.545 105.747C703.078 105.405 703.674 105.174 704.298 105.067C704.923 104.961 705.562 104.982 706.178 105.129C706.794 105.276 707.374 105.545 707.883 105.922C708.392 106.299 708.819 106.774 709.14 107.32L745 163.12C745.46 163.865 745.704 164.724 745.704 165.6C745.704 166.476 745.46 167.335 745 168.08L724 203.34C723.571 204.05 722.963 204.635 722.236 205.035C721.509 205.436 720.69 205.637 719.86 205.62Z" fill="#EBEBEB"/>
<path d="M417.5 36.14H171.54V282.76H417.5V36.14Z" fill="#F0F0F0"/>
<path d="M417.5 282.74H421.74L421.74 36.12H417.5L417.5 282.74Z" fill="#E0E0E0"/>
<path d="M395.78 51.7H193.26V267.16H395.78V51.7Z" fill="#FAFAFA"/>
<path d="M310.34 74.7599C287.62 69.5199 267.08 87.2599 244.34 88.7599C232.22 91.0199 216.12 98.3999 221.08 113.5C220.14 151.5 222.3 173.9 259.3 192.34C270.36 200.34 283.5 205.96 297.3 202.54C312.86 200.54 334.28 193.14 329.68 173.34C330.343 163.38 328.75 153.399 325.02 144.14C323.98 135.06 331.56 127.94 333.88 119.6C339.5 101.86 327.8 80.5599 310.34 74.7599Z" fill="white"/>
<path d="M291.08 143.24C293.455 143.058 295.836 143.485 298 144.48C299.799 145.291 301.417 146.454 302.76 147.9C305.46 150.66 308.2 153.36 310.86 156.16C316.24 161.68 321.5 167.3 326.72 172.98C331.94 178.66 337 184.5 342 190.4C347 196.3 351.9 202.4 356.48 208.64C357.218 209.793 357.539 211.164 357.391 212.525C357.242 213.886 356.633 215.155 355.664 216.122C354.694 217.089 353.424 217.695 352.063 217.84C350.701 217.985 349.331 217.661 348.18 216.92C341.86 212.34 335.9 207.42 329.96 202.46C324.02 197.5 318.24 192.46 312.54 187.18C306.84 181.9 301.22 176.68 295.7 171.3C292.92 168.64 290.2 165.9 287.46 163.2C285.863 161.722 284.615 159.907 283.805 157.887C282.996 155.867 282.646 153.692 282.78 151.52C282.909 149.363 283.825 147.328 285.355 145.801C286.885 144.275 288.922 143.364 291.08 143.24Z" fill="#EBEBEB"/>
<path d="M279.86 140.32C266.34 153.84 253.98 137.96 252.8 128.54C251.62 119.12 248.8 108.54 236.7 107.78C268.1 100.3 301.24 118.94 279.86 140.32Z" fill="#E0E0E0"/>
<path d="M246.86 334.58C246.701 336.55 247.129 338.523 248.091 340.25C249.052 341.977 250.504 343.381 252.263 344.283C254.022 345.185 256.008 345.546 257.972 345.32C259.936 345.093 261.788 344.29 263.296 343.012C264.803 341.733 265.898 340.036 266.442 338.136C266.985 336.236 266.954 334.217 266.351 332.334C265.748 330.452 264.6 328.79 263.053 327.56C261.507 326.329 259.63 325.585 257.66 325.42C256.349 325.31 255.029 325.461 253.777 325.862C252.524 326.263 251.362 326.908 250.359 327.759C249.356 328.61 248.53 329.65 247.93 330.821C247.33 331.991 246.966 333.269 246.86 334.58Z" fill="#E0E0E0"/>
<path d="M263.22 339.82C263.061 341.79 263.489 343.763 264.451 345.49C265.412 347.217 266.864 348.621 268.623 349.523C270.382 350.425 272.368 350.786 274.332 350.56C276.296 350.333 278.148 349.53 279.656 348.252C281.163 346.973 282.258 345.276 282.802 343.376C283.345 341.476 283.314 339.457 282.711 337.574C282.108 335.692 280.96 334.03 279.413 332.8C277.867 331.569 275.99 330.825 274.02 330.66C272.709 330.55 271.389 330.701 270.137 331.102C268.884 331.503 267.722 332.148 266.719 332.999C265.716 333.85 264.89 334.89 264.29 336.061C263.69 337.231 263.326 338.509 263.22 339.82Z" fill="#E0E0E0"/>
<path d="M280.74 341.86C280.581 343.83 281.009 345.803 281.971 347.53C282.932 349.257 284.384 350.661 286.143 351.563C287.902 352.465 289.888 352.826 291.852 352.6C293.816 352.373 295.668 351.57 297.176 350.292C298.683 349.013 299.778 347.316 300.322 345.416C300.865 343.516 300.834 341.497 300.231 339.614C299.628 337.732 298.48 336.07 296.933 334.84C295.387 333.609 293.51 332.865 291.54 332.7C290.229 332.59 288.909 332.741 287.657 333.142C286.404 333.543 285.242 334.188 284.239 335.039C283.236 335.89 282.411 336.93 281.81 338.101C281.21 339.271 280.846 340.549 280.74 341.86Z" fill="#E0E0E0"/>
<path d="M228.26 339.82C228.101 341.79 228.529 343.763 229.491 345.49C230.452 347.217 231.904 348.621 233.663 349.523C235.422 350.425 237.408 350.786 239.372 350.56C241.336 350.333 243.188 349.53 244.696 348.252C246.203 346.973 247.298 345.276 247.842 343.376C248.385 341.476 248.354 339.457 247.751 337.574C247.148 335.692 246 334.03 244.453 332.8C242.907 331.569 241.03 330.825 239.06 330.66C237.749 330.55 236.429 330.701 235.177 331.102C233.924 331.503 232.763 332.148 231.759 332.999C230.756 333.85 229.93 334.89 229.33 336.061C228.73 337.231 228.366 338.509 228.26 339.82Z" fill="#E0E0E0"/>
<path d="M295.18 339.82C295.021 341.79 295.449 343.763 296.411 345.49C297.372 347.217 298.824 348.621 300.583 349.523C302.342 350.425 304.328 350.786 306.292 350.56C308.256 350.333 310.108 349.53 311.616 348.252C313.123 346.973 314.218 345.276 314.762 343.376C315.305 341.476 315.274 339.457 314.671 337.574C314.068 335.692 312.92 334.03 311.373 332.8C309.827 331.569 307.95 330.825 305.98 330.66C304.669 330.55 303.349 330.701 302.097 331.102C300.844 331.503 299.683 332.148 298.679 332.999C297.676 333.85 296.85 334.89 296.25 336.061C295.65 337.231 295.286 338.509 295.18 339.82Z" fill="#E0E0E0"/>
<path d="M214.8 333.84C214.641 335.81 215.069 337.783 216.031 339.51C216.992 341.237 218.444 342.641 220.203 343.543C221.962 344.445 223.948 344.806 225.912 344.58C227.876 344.353 229.728 343.55 231.236 342.272C232.743 340.993 233.838 339.296 234.382 337.396C234.925 335.496 234.894 333.477 234.291 331.594C233.688 329.712 232.54 328.05 230.993 326.82C229.447 325.589 227.57 324.845 225.6 324.68C224.289 324.57 222.969 324.721 221.717 325.122C220.464 325.523 219.302 326.168 218.299 327.019C217.296 327.87 216.47 328.91 215.87 330.081C215.27 331.251 214.906 332.529 214.8 333.84Z" fill="#E0E0E0"/>
<path d="M200.62 337.54C200.461 339.51 200.889 341.483 201.851 343.21C202.812 344.937 204.264 346.34 206.023 347.243C207.782 348.145 209.768 348.506 211.732 348.279C213.696 348.053 215.548 347.25 217.056 345.972C218.563 344.693 219.658 342.996 220.202 341.096C220.745 339.196 220.714 337.177 220.111 335.294C219.508 333.412 218.36 331.75 216.813 330.52C215.267 329.289 213.39 328.544 211.42 328.38C210.109 328.27 208.789 328.421 207.537 328.822C206.284 329.223 205.123 329.868 204.119 330.719C203.116 331.57 202.29 332.61 201.69 333.781C201.09 334.951 200.726 336.229 200.62 337.54Z" fill="#E0E0E0"/>
<path d="M189.18 340.24C189.18 340.24 190.9 381.24 256.76 381.24C322.62 381.24 324.32 340.24 324.32 340.24H189.18Z" fill="#F0F0F0"/>
<path d="M858.16 406.46H839.22V654.8H858.16V406.46Z" fill="#E6E6E6"/>
<path d="M863.24 406.46H852.08V654.8H863.24V406.46Z" fill="#F0F0F0"/>
<path d="M777.58 406.46H758.64V654.8H777.58V406.46Z" fill="#E6E6E6"/>
<path d="M781.14 406.46H769.98V654.8H781.14V406.46Z" fill="#F0F0F0"/>
<path d="M700.18 441.64H866.7V406.44H700.18V441.64Z" fill="#F0F0F0"/>
<path d="M617.98 406.46H599.04V654.8H617.98V406.46Z" fill="#E6E6E6"/>
<path d="M621.54 406.46H610.38V654.8H621.54V406.46Z" fill="#F0F0F0"/>
<path d="M595.64 441.64H692.06V406.44H595.64V441.64Z" fill="#E6E6E6"/>
<path d="M698.56 406.46H679.62V654.8H698.56V406.46Z" fill="#E6E6E6"/>
<path d="M703.64 406.46H692.48V654.8H703.64V406.46Z" fill="#F0F0F0"/>
<path d="M796.12 293.42H662L675.66 406.46H809.8L796.12 293.42Z" fill="#F5F5F5"/>
<path d="M780.34 308.24H681.38L691.46 391.64H790.42L780.34 308.24Z" fill="#FAFAFA"/>
<path d="M423.14 645.24H454.66L454.66 389.58H423.14L423.14 645.24Z" fill="#F0F0F0"/>
<path d="M101.34 654.8H448.6V645.24H101.34V654.8Z" fill="#F0F0F0"/>
<path d="M423.14 389.58H95.3V645.24H423.14V389.58Z" fill="#F5F5F5"/>
<path d="M426.42 389.58H458.64V381.24H426.42V389.58Z" fill="#F0F0F0"/>
<path d="M426.42 381.24H91.34V389.58H426.42V381.24Z" fill="#FAFAFA"/>
<path d="M411.8 533.46H106.64V407.08H411.8V533.46ZM108.76 531.34H409.68V409.2H108.76V531.34Z" fill="#E0E0E0"/>
<path d="M411.8 627.72H106.64V546.1H411.8V627.72ZM108.76 625.6H409.68V548.22H108.76V625.6Z" fill="#E0E0E0"/>
<path d="M150.56 414.94H367.9C369.446 414.94 370.7 413.686 370.7 412.14V410.96C370.7 409.414 369.446 408.16 367.9 408.16H150.56C149.014 408.16 147.76 409.414 147.76 410.96V412.14C147.76 413.686 149.014 414.94 150.56 414.94Z" fill="#E0E0E0"/>
<path d="M150.56 553.94H367.9C369.446 553.94 370.7 552.686 370.7 551.14V549.96C370.7 548.414 369.446 547.16 367.9 547.16H150.56C149.014 547.16 147.76 548.414 147.76 549.96V551.14C147.76 552.686 149.014 553.94 150.56 553.94Z" fill="#E0E0E0"/>
<path d="M500 745.12C714.165 745.12 887.78 734.984 887.78 722.48C887.78 709.976 714.165 699.84 500 699.84C285.835 699.84 112.22 709.976 112.22 722.48C112.22 734.984 285.835 745.12 500 745.12Z" fill="#F5F5F5"/>
<path d="M560.78 59.04C549.58 40.24 570.4 34.8 583.82 39.72C597.24 44.64 605.82 30.86 617.82 31.12C629.82 31.38 631.2 48.3 621.26 52.8C611.32 57.3 599.46 69.58 588 70.28C589.06 87.86 576.94 121.84 570.96 112.48C564.98 103.12 522.7 75.38 560.78 59.04Z" fill="#263238"/>
<path d="M561.16 61.8C557.86 61.8 550.52 60.58 545.4 50.58C545.021 49.8321 544.954 48.9642 545.215 48.1671C545.475 47.3701 546.042 46.7093 546.79 46.33C547.538 45.9508 548.406 45.8841 549.203 46.1448C550 46.4055 550.661 46.9721 551.04 47.72C555.44 56.32 561.48 55.5 561.74 55.46C562.556 55.3257 563.392 55.5165 564.068 55.9913C564.745 56.4661 565.209 57.1873 565.36 58C565.506 58.8137 565.326 59.6522 564.858 60.3337C564.39 61.0152 563.672 61.4846 562.86 61.64C562.299 61.7417 561.73 61.7953 561.16 61.8Z" fill="#263238"/>
<path d="M689.46 699.9L706.46 696L698.88 654.24L681.88 658.14L689.46 699.9Z" fill="#FF8B7B"/>
<path d="M564.92 700.56H582.78L582.74 659.2H564.88L564.92 700.56Z" fill="#FF8B7B"/>
<path d="M584.5 698.5H562.72C562.369 698.494 562.027 698.614 561.756 698.838C561.484 699.061 561.302 699.374 561.24 699.72L558.36 715.6C558.302 715.995 558.331 716.399 558.443 716.782C558.556 717.166 558.75 717.52 559.012 717.822C559.273 718.124 559.597 718.366 559.961 718.531C560.325 718.696 560.72 718.781 561.12 718.78C568.12 718.66 573.22 718.24 582.04 718.24C587.46 718.24 603.86 718.8 611.36 718.8C618.86 718.8 619.54 711.4 616.44 710.8C602.56 707.8 592.02 703.64 587.44 699.68C586.636 698.942 585.591 698.522 584.5 698.5Z" fill="#263238"/>
<path d="M707.6 693.02L688.8 698.26C688.457 698.352 688.156 698.559 687.948 698.847C687.741 699.135 687.639 699.486 687.66 699.84L688.52 716.08C688.538 716.473 688.644 716.856 688.832 717.202C689.019 717.548 689.283 717.846 689.603 718.075C689.922 718.305 690.29 718.458 690.677 718.525C691.065 718.591 691.462 718.569 691.84 718.46C698.6 716.46 708.28 713.34 716.8 710.96C726.8 708.2 728.14 708.06 739.82 704.82C746.9 702.82 746.86 695.16 743.72 695.34C729.44 696.14 725.72 697.16 712.12 693.22C710.661 692.735 709.096 692.666 707.6 693.02Z" fill="#263238"/>
<path d="M647.46 159.14C651.46 170.94 655.16 182.68 658.52 194.64C661.88 206.6 664.92 218.64 667.54 230.9C668.88 237.52 669.76 242.18 671.32 247.66L672.56 251.66L673.96 255.66C674.92 258.36 675.96 261.08 677.02 263.78C681.28 274.6 686.54 285.54 691.8 296.1L680.88 303.9C676.602 299.178 672.595 294.217 668.88 289.04C665.108 283.89 661.604 278.55 658.38 273.04C655.037 267.402 652.083 261.541 649.54 255.5C647.094 249.439 645.043 243.226 643.4 236.9C640.04 225.42 636.44 213.86 632.76 202.32L621.82 167.68L647.46 159.14Z" fill="#FF8B7B"/>
<path d="M614.84 158C610.08 174.4 628.56 200.22 628.56 200.22L660.26 190C660.26 190 658.92 170.56 648.06 155.62C634.74 137.18 620 140 614.84 158Z" fill="#263238"/>
<path opacity="0.2" d="M630.74 165.36C622.74 161.6 616.48 162 614.06 163.86C614.06 179.86 628.56 200.12 628.56 200.12L651.02 192.88C650 185.26 643.3 171.22 630.74 165.36Z" fill="black"/>
<path d="M690.22 293.38L702.64 307.38L684.1 314.42C684.1 314.42 672.36 306.42 679.98 295.84L690.22 293.38Z" fill="#FF8B7B"/>
<path d="M706.5 316.5L691.34 322.28L684.1 314.38L702.64 307.34L706.5 316.5Z" fill="#FF8B7B"/>
<path opacity="0.2" d="M698.88 654.26L702.78 675.78L685.78 679.68L681.88 658.16L698.88 654.26Z" fill="black"/>
<path opacity="0.2" d="M582.76 659.2H564.88V680.52H582.76V659.2Z" fill="black"/>
<path d="M535 150.58C554.44 218.38 550.78 290.42 552.56 305L647.82 297.64C658.4 209.48 640.9 158.54 636.06 146.52C635.721 145.684 635.177 144.947 634.478 144.377C633.779 143.807 632.947 143.423 632.06 143.26C629.46 142.84 625.36 142.24 620.5 141.74C617.88 141.48 615.06 141.26 612.12 141.12C610.5 141.12 608.86 140.98 607.18 140.94C593.599 141.181 580.044 142.203 566.58 144C564.04 144.32 561.46 144.72 558.96 145.14C556.46 145.56 554.36 145.96 552.22 146.4C542.5 148.44 535 150.58 535 150.58Z" fill="#263238"/>
<path opacity="0.2" d="M541.6 177.74C543.74 188.26 545.44 198.72 546.74 208.8C551.38 191.2 554.42 172.96 554.42 172.96L541.6 177.74Z" fill="black"/>
<path d="M567.26 98.46C570.82 111.3 575.26 134.98 566.78 144.46C574.4 150.94 584.28 158.36 599.8 157.72C615.32 157.08 611.8 146.62 607.26 141.32C592.46 138.98 592.02 128.16 593.76 117.84L567.26 98.46Z" fill="#FF8B7B"/>
<path d="M610.3 140.78C608.619 140.491 606.901 140.491 605.22 140.78C605.22 140.78 618.62 154.64 601.6 157.44C589.044 155.45 577.127 150.553 566.8 143.14C565.446 143.313 564.129 143.705 562.9 144.3C566.78 157.62 595.72 169.02 595.72 169.02C595.494 167.382 595.658 165.714 596.196 164.15C596.735 162.587 597.634 161.172 598.82 160.02L605.66 159.42C608.568 161.126 610.762 163.825 611.84 167.02C611.84 167.02 622.22 153.22 610.3 140.78Z" fill="white"/>
<path opacity="0.2" d="M578 106.34L593.68 117.76C593.238 120.162 593.011 122.598 593 125.04C587.38 124.66 579.28 119.16 578.24 113.4C577.736 111.08 577.654 108.689 578 106.34Z" fill="black"/>
<path d="M564.2 78.9799C566.64 96.5399 567.18 106.98 576.8 115.3C591.24 127.9 612.4 118.12 615.26 100.18C617.82 84.0399 613.38 58.04 595.56 52.36C591.639 51.0839 587.457 50.8326 583.411 51.63C579.366 52.4273 575.592 54.2467 572.448 56.9151C569.305 59.5834 566.897 63.0119 565.453 66.8741C564.009 70.7364 563.578 74.9039 564.2 78.9799Z" fill="#FF8B7B"/>
<path d="M564 89.3C568.66 96.6 582 73.3 577.9 63.3C573.8 53.3 562.96 62.42 562.96 62.42C562.96 62.42 556 76.68 564 89.3Z" fill="#263238"/>
<path d="M567.04 62C584.58 69.06 604.54 68.16 611.32 67.66C618.1 67.16 626.34 65.26 623.68 57.1C620.14 46.16 597 51.2599 588.36 48.4199C579.72 45.5799 559.56 53.18 567.04 62Z" fill="#263238"/>
<path d="M558.2 95.1599C560.13 98.7551 563.388 101.454 567.28 102.68C572.38 104.2 574.84 99.4799 573.28 94.4799C571.94 89.9799 567.66 83.7599 562.6 84.4799C557.54 85.1999 555.8 90.6799 558.2 95.1599Z" fill="#FF8B7B"/>
<path d="M708.6 670.32L679.06 676.84C679.06 676.84 647.2 564 638 509.02C635.22 492.32 628.88 468.5 623.1 443.42C615.78 411.82 606.64 377.64 599.1 350.9C591.22 322.72 585.38 302.46 585.38 302.46L647.68 297.64C647.68 297.64 678.36 444.54 684.82 498.68C691.7 554.98 708.6 670.32 708.6 670.32Z" fill="#407BFF"/>
<path opacity="0.3" d="M708.6 670.32L679.06 676.84C679.06 676.84 647.2 564 638 509.02C635.22 492.32 628.88 468.5 623.1 443.42C615.78 411.82 606.64 377.64 599.1 350.9C591.22 322.72 585.38 302.46 585.38 302.46L647.68 297.64C647.68 297.64 678.36 444.54 684.82 498.68C691.7 554.98 708.6 670.32 708.6 670.32Z" fill="black"/>
<path opacity="0.2" d="M623.16 443.42C615.84 411.82 606.7 377.64 599.16 350.9L605.56 336.9C621.32 355.2 626 412.34 623.16 443.42Z" fill="black"/>
<path d="M618.14 300C618.14 300 608.6 453.6 601.44 505.46C593.62 562.24 589.32 676.46 589.32 676.46H556.6C556.6 676.46 549.9 568.46 554.48 512.84C559.7 449.4 552.48 305.06 552.48 305.06L618.14 300Z" fill="#407BFF"/>
<path opacity="0.3" d="M618.14 300C618.14 300 608.6 453.6 601.44 505.46C593.62 562.24 589.32 676.46 589.32 676.46H556.6C556.6 676.46 549.9 568.46 554.48 512.84C559.7 449.4 552.48 305.06 552.48 305.06L618.14 300Z" fill="black"/>
<path d="M593.24 677.12H554.72V665.6L594.74 663.38L593.24 677.12Z" fill="#407BFF"/>
<path d="M712.46 670.2L677.26 677.98L674.76 666.6L711.6 657.3L712.46 670.2Z" fill="#407BFF"/>
<path d="M590 81.84C590.12 83.28 590.96 84.38 591.9 84.3C592.84 84.22 593.52 83.02 593.4 81.58C593.28 80.14 592.44 79.04 591.5 79.1C590.56 79.16 589.84 80.4 590 81.84Z" fill="#263238"/>
<path d="M606.18 80.58C606.3 82.02 607.14 83.12 608.18 83.06C609.22 83 609.8 81.76 609.68 80.32C609.56 78.88 608.72 77.78 607.68 77.84C606.64 77.9 606 79.14 606.18 80.58Z" fill="#263238"/>
<path d="M602.46 81.7C604.518 85.9581 607.15 89.9147 610.28 93.46C607.92 96.02 603.52 95.28 603.52 95.28L602.46 81.7Z" fill="#FF5652"/>
<path d="M597.76 99.58C596.149 99.5257 594.565 99.1429 593.107 98.4551C591.649 97.7673 590.347 96.7889 589.28 95.58C589.24 95.5409 589.208 95.4942 589.187 95.4427C589.165 95.3911 589.154 95.3358 589.154 95.28C589.154 95.2241 589.165 95.1688 589.187 95.1172C589.208 95.0657 589.24 95.0191 589.28 94.9799C589.358 94.9054 589.462 94.8638 589.57 94.8638C589.678 94.8638 589.782 94.9054 589.86 94.9799C591.063 96.3126 592.562 97.3451 594.236 97.9945C595.91 98.644 597.713 98.8924 599.5 98.72C599.608 98.7143 599.714 98.7507 599.796 98.8215C599.878 98.8923 599.93 98.9921 599.94 99.1C599.946 99.1552 599.94 99.2109 599.924 99.264C599.908 99.317 599.881 99.3664 599.846 99.4092C599.811 99.4519 599.767 99.4873 599.718 99.5132C599.669 99.539 599.615 99.5549 599.56 99.56C598.961 99.6121 598.36 99.6188 597.76 99.58Z" fill="#263238"/>
<path d="M586 76.9799C585.856 76.9733 585.717 76.9246 585.6 76.8399C585.505 76.7828 585.422 76.7069 585.357 76.6168C585.292 76.5267 585.245 76.4242 585.221 76.3157C585.197 76.2072 585.195 76.0949 585.215 75.9856C585.236 75.8763 585.278 75.7723 585.34 75.6799C586.04 74.5342 587.005 73.5731 588.153 72.8771C589.302 72.1811 590.6 71.7706 591.94 71.6799C592.163 71.6799 592.376 71.7684 592.534 71.926C592.692 72.0835 592.78 72.2972 592.78 72.5199C592.785 72.6309 592.768 72.7419 592.729 72.846C592.691 72.9502 592.631 73.0454 592.554 73.1258C592.478 73.2062 592.386 73.2702 592.283 73.3139C592.181 73.3576 592.071 73.3801 591.96 73.3799C590.897 73.4644 589.87 73.8027 588.965 74.3665C588.06 74.9303 587.304 75.7031 586.76 76.6199C586.678 76.743 586.564 76.8414 586.43 76.9048C586.296 76.9682 586.147 76.9941 586 76.9799Z" fill="#263238"/>
<path d="M614.14 74.4599C614 74.4537 613.864 74.4119 613.745 74.3384C613.626 74.2649 613.528 74.1621 613.46 74.0399C612.949 73.107 612.224 72.3087 611.344 71.7106C610.465 71.1126 609.456 70.7319 608.4 70.5999C608.177 70.5797 607.971 70.4754 607.822 70.3082C607.673 70.141 607.594 69.9235 607.6 69.6999C607.605 69.5896 607.632 69.4813 607.679 69.3814C607.726 69.2814 607.792 69.1917 607.874 69.1174C607.956 69.0431 608.051 68.9856 608.155 68.9483C608.259 68.911 608.37 68.8945 608.48 68.8999C609.817 69.0469 611.1 69.5123 612.22 70.2569C613.341 71.0016 614.267 72.0039 614.92 73.1799C614.977 73.2755 615.015 73.3816 615.031 73.492C615.047 73.6024 615.041 73.7148 615.013 73.8228C614.985 73.9308 614.936 74.0321 614.869 74.1209C614.801 74.2097 614.717 74.2842 614.62 74.3399C614.472 74.4172 614.307 74.4584 614.14 74.4599Z" fill="#263238"/>
<path d="M590.54 701.62C588.954 701.583 587.378 701.369 585.84 700.98C585.758 700.96 585.682 700.918 585.622 700.858C585.562 700.798 585.52 700.722 585.5 700.64C585.482 700.557 585.49 700.471 585.522 700.392C585.554 700.313 585.609 700.247 585.68 700.2C586.32 699.8 591.92 696.2 593.94 697.28C594.163 697.395 594.353 697.566 594.49 697.776C594.626 697.987 594.706 698.229 594.72 698.48C594.789 698.889 594.754 699.309 594.618 699.7C594.481 700.092 594.248 700.443 593.94 700.72C592.94 701.394 591.742 701.711 590.54 701.62ZM587.04 700.38C590.1 701 592.42 700.88 593.36 700.06C593.57 699.868 593.728 699.626 593.819 699.357C593.91 699.088 593.931 698.8 593.88 698.52C593.88 698.2 593.7 698.08 593.6 698.04C592.54 697.5 589.32 699.04 587.04 700.38Z" fill="#407BFF"/>
<path d="M586 701C585.921 701.017 585.839 701.017 585.76 701C585.694 700.962 585.64 700.906 585.605 700.839C585.569 700.772 585.554 700.696 585.56 700.62C585.56 700.4 585.78 695.24 587.78 693.54C588.021 693.328 588.304 693.17 588.611 693.076C588.918 692.983 589.242 692.957 589.56 693C589.885 693.004 590.199 693.117 590.452 693.32C590.706 693.523 590.884 693.804 590.96 694.12C591.42 696.12 588 700.12 586.2 701.02C586.133 701.031 586.064 701.024 586 701ZM589.3 693.76C588.948 693.765 588.609 693.892 588.34 694.12C587.06 695.2 586.62 698.22 586.46 699.72C588.24 698.32 590.46 695.36 590.12 694.18C590.12 694.18 590.12 693.82 589.5 693.76H589.3Z" fill="#407BFF"/>
<path d="M710 694.94C709.923 694.931 709.849 694.902 709.787 694.856C709.724 694.811 709.673 694.75 709.64 694.68C709.601 694.6 709.59 694.51 709.608 694.423C709.626 694.336 709.672 694.258 709.74 694.2C710.4 693.58 716.34 688.2 718.76 688.74C718.988 688.792 719.198 688.902 719.37 689.06C719.541 689.218 719.669 689.418 719.74 689.64C719.884 689.994 719.939 690.377 719.901 690.757C719.863 691.137 719.732 691.502 719.52 691.82C718.1 694.02 712.98 694.72 710.06 694.94H710ZM718.4 689.54C716.98 689.54 713.62 691.92 711.26 693.98C715.26 693.56 718.02 692.6 718.82 691.36C718.958 691.149 719.041 690.906 719.062 690.655C719.083 690.404 719.041 690.151 718.94 689.92C718.921 689.828 718.874 689.745 718.806 689.681C718.738 689.616 718.652 689.574 718.56 689.56L718.4 689.54Z" fill="#407BFF"/>
<path d="M710 694.94H709.88C709.809 694.916 709.746 694.874 709.697 694.818C709.647 694.762 709.614 694.693 709.6 694.62C709.6 694.42 708.74 689.66 710.44 687.26C710.666 686.914 710.96 686.617 711.304 686.386C711.647 686.156 712.034 685.998 712.44 685.92C713.6 685.72 714.08 686.2 714.28 686.64C715.14 688.5 712.06 693.36 710.28 694.88C710.193 694.922 710.097 694.943 710 694.94ZM713.08 686.68C712.934 686.663 712.786 686.663 712.64 686.68C712.332 686.726 712.037 686.838 711.775 687.007C711.513 687.175 711.289 687.398 711.12 687.66C710.247 689.531 709.974 691.627 710.34 693.66C712.1 691.8 714.08 688.1 713.56 686.98C713.5 686.88 713.42 686.72 713.04 686.68H713.08Z" fill="#407BFF"/>
<path d="M554.54 174.68C551.66 180.02 548.54 185.78 545.7 191.42C542.86 197.06 539.98 202.8 537.3 208.52C531.894 219.644 527.308 231.148 523.58 242.94L522.42 247.16C522.28 247.68 522.42 247.48 522.3 247.42C522.262 247.571 522.262 247.729 522.3 247.88C522.515 249.841 523.07 251.749 523.94 253.52C526.446 258.735 529.447 263.698 532.9 268.34C540.08 278.34 548.64 288.2 557.06 297.76L548.36 307.96C542.718 304.16 537.283 300.061 532.08 295.68C526.789 291.299 521.748 286.625 516.98 281.68C511.821 276.411 507.284 270.566 503.46 264.26C501.067 260.316 499.381 255.984 498.48 251.46C498.217 249.995 498.083 248.509 498.08 247.02C498.08 246.22 498.08 245.36 498.2 244.52L498.38 243.2C498.38 242.66 498.48 242.66 498.54 242.36L499.58 237C501.107 230.122 503.051 223.343 505.4 216.7C507.64 210.16 510.16 203.8 512.86 197.56C515.56 191.32 518.4 185.16 521.46 179.14C524.52 173.12 527.6 167.24 531.22 161.14L554.54 174.68Z" fill="#FF8B7B"/>
<path d="M535 150.58C525.32 154.7 516 184 516 184L541.66 203.32C541.66 203.32 550.02 190.16 556.3 179.32C568.38 158.46 554 142.5 535 150.58Z" fill="#263238"/>
<path d="M552.34 295.34L569.66 300.34L556.66 313.96C556.66 313.96 540.9 307.6 545.6 300.6L552.34 295.34Z" fill="#FF8B7B"/>
<path d="M577.12 315.3L565.08 323.04L556.64 313.96L569.64 300.34L577.12 315.3Z" fill="#FF8B7B"/>
<path d="M547.54 412.78C542.943 412.131 538.554 410.448 534.7 407.86L485.26 374.48C480.997 371.617 477.532 367.719 475.188 363.15C472.844 358.581 471.699 353.492 471.86 348.36L475.22 233.56C475.283 231.373 475.807 229.224 476.757 227.253C477.708 225.283 479.064 223.535 480.737 222.125C482.409 220.714 484.361 219.673 486.464 219.069C488.567 218.465 490.774 218.312 492.94 218.62C494.181 218.782 495.397 219.098 496.56 219.56C500.493 221.006 504.58 221.993 508.74 222.5C516.213 223.47 523.765 223.677 531.28 223.12C546.72 222.04 559.28 217.94 564.9 214.34C568.029 212.316 571.781 211.485 575.471 212C579.161 212.514 582.544 214.338 585 217.14C589.4 222.12 600.36 229.5 615 234.74C622.076 237.336 629.402 239.192 636.86 240.28C640.993 240.93 645.188 241.098 649.36 240.78C652.178 240.501 655.019 240.989 657.583 242.194C660.146 243.398 662.336 245.273 663.92 247.62C665.111 249.424 665.911 251.458 666.269 253.59C666.628 255.722 666.536 257.906 666 260L638 371.36C636.761 376.34 634.275 380.923 630.776 384.678C627.278 388.432 622.881 391.234 618 392.82L561.3 411.48C556.873 412.958 552.166 413.402 547.54 412.78Z" fill="#407BFF"/>
<path opacity="0.3" d="M569.56 221.6C561.84 226.54 547.56 230.64 531.88 231.72C516.2 232.8 502.26 231.08 493.4 227.6C492.362 227.176 491.237 227.01 490.121 227.116C489.005 227.222 487.932 227.597 486.992 228.208C486.053 228.819 485.275 229.649 484.726 230.627C484.177 231.604 483.873 232.7 483.84 233.82L480.48 348.62C480.372 352.294 481.196 355.935 482.875 359.205C484.553 362.474 487.032 365.266 490.08 367.32L539.52 400.72C542.287 402.576 545.44 403.78 548.74 404.24L574.26 220.54C572.617 220.315 570.948 220.692 569.56 221.6Z" fill="white"/>
<path opacity="0.2" d="M615.24 384.72C618.736 383.572 621.884 381.557 624.391 378.865C626.898 376.172 628.684 372.888 629.58 369.32L657.58 257.98C657.851 256.891 657.855 255.753 657.592 254.662C657.328 253.572 656.804 252.561 656.066 251.716C655.327 250.871 654.395 250.218 653.35 249.811C652.304 249.404 651.175 249.256 650.06 249.38C640.58 250.32 626.44 248.1 611.92 242.86C597.4 237.62 584.52 229.72 578.44 222.86C577.344 221.604 575.831 220.787 574.18 220.56L548.66 404.26C551.951 404.717 555.303 404.416 558.46 403.38L615.24 384.72Z" fill="white"/>
<path d="M562.22 335.48C561.484 335.403 560.74 335.479 560.034 335.702C559.329 335.926 558.677 336.293 558.12 336.78L568 265.64C554.2 285.08 552.1 302.54 552.1 302.54L558.58 311.12L553.86 345.12C553.06 350.98 555.46 356.18 559.26 356.7C563.06 357.22 566.84 352.9 567.64 347.04C568.44 341.18 566 336 562.22 335.48ZM559.68 353.78C556.94 353.4 555.2 349.66 555.78 345.44C556.36 341.22 559.08 338.08 561.78 338.46C564.48 338.84 566.28 342.58 565.78 346.82C565.28 351.06 562.44 354.16 559.68 353.78Z" fill="white"/>
<path d="M544.2 322C544.63 322.605 544.93 323.292 545.081 324.018C545.233 324.744 545.232 325.494 545.08 326.22L602.36 282.9C592.12 304.36 578 314.72 578 314.72L567.36 313.24L539.84 334C535.12 337.56 529.42 338 527.1 334.92C524.78 331.84 526.74 326.46 531.44 322.92C536.14 319.38 541.88 318.86 544.2 322ZM529.46 333.14C531.14 335.34 535.26 335.14 538.66 332.48C542.06 329.82 543.46 326.02 541.8 323.82C540.14 321.62 536.02 321.82 532.6 324.48C529.18 327.14 527.78 330.86 529.46 333.08V333.14Z" fill="white"/>
<path d="M569.38 261.36L567.84 261.14L568.4 257.14L569.94 257.36L569.38 261.36ZM570.78 251.22L569.26 251L570.1 244.88L571.64 245.1L570.78 251.22ZM572.48 238.98L570.96 238.78L571.8 232.66L573.32 232.88L572.48 238.98ZM574.18 226.76L572.66 226.54L573.5 220.44L575.02 220.66L574.18 226.76Z" fill="white"/>
<path d="M549.5 404.34L547.98 404.14L548.54 400.14L550.06 400.34L549.5 404.34ZM550.92 394.22L549.38 394L550.24 387.88L551.76 388.1L550.92 394.22ZM552.62 381.98L551.08 381.78L551.94 375.66L553.46 375.88L552.62 381.98ZM554.32 369.76L552.78 369.54L553.64 363.44L555.16 363.64L554.32 369.76Z" fill="white"/>
<path d="M414.18 82.76C434.18 75.26 455.48 87.52 461.8 110.9C468.12 134.28 454.7 157.66 446.18 162.72C436.96 155.36 412.36 154.72 392.58 161.7C375.6 132.42 379 81.12 414.18 82.76Z" fill="#263238"/>
<path d="M386 204.44C385.68 210.28 385 215.62 384.26 221.18C383.52 226.74 382.48 232.12 381.34 237.56C379.13 248.574 375.944 259.37 371.82 269.82C370.84 272.48 369.54 275.06 368.4 277.68C367.26 280.3 365.94 282.62 364.66 285.04C362.1 289.86 359.5 294.6 356.8 299.3C351.38 308.68 345.82 317.92 339.8 326.94L331.64 322.7C335.5 312.7 339.64 302.7 343.82 292.88L350.06 278.14L353.04 270.86C353.92 268.48 354.92 266.22 355.66 263.78C358.894 254.032 361.433 244.067 363.26 233.96C364.24 228.88 364.96 223.72 365.72 218.58C366.48 213.44 367.02 208.16 367.46 203.28L386 204.44Z" fill="#CE7A63"/>
<path d="M373.38 182.3C365.9 184.2 360.66 215.02 360.66 215.02L389.3 234.5C389.3 234.5 401.08 197.96 395.3 189.74C389.32 181.16 384.32 179.52 373.38 182.3Z" fill="#263238"/>
<path opacity="0.2" d="M374.06 189.18L364.34 217.56L379.9 228.1L374.06 189.18Z" fill="black"/>
<path d="M333.16 319.08L325.56 337.08L341.72 334.2C341.72 334.2 345.54 323.16 340.42 317.62L333.16 319.08Z" fill="#CE7A63"/>
<path d="M322.78 346.1L338.72 343.06L341.72 334.2L325.56 337.08L322.78 346.1Z" fill="#CE7A63"/>
<path d="M357.918 320.266L315.884 341.869C315.088 342.278 314.775 343.254 315.184 344.05L325.907 364.916C326.316 365.711 327.293 366.025 328.089 365.616L370.123 344.014C370.918 343.605 371.232 342.628 370.823 341.832L360.099 320.967C359.69 320.171 358.714 319.857 357.918 320.266Z" fill="#407BFF"/>
<path opacity="0.2" d="M357.918 320.266L315.884 341.869C315.088 342.278 314.775 343.254 315.184 344.05L325.907 364.916C326.316 365.711 327.293 366.025 328.089 365.616L370.123 344.014C370.918 343.605 371.232 342.628 370.823 341.832L360.099 320.967C359.69 320.171 358.714 319.857 357.918 320.266Z" fill="black"/>
<g opacity="0.6">
<path d="M345.06 356.9L335.34 361.9L320.46 339.5L330.18 334.52L345.06 356.9Z" fill="white"/>
<path d="M354.06 352.26L344.36 357.26L331.9 333.62L341.62 328.64L354.06 352.26Z" fill="white"/>
<path d="M360.5 348.96L355.64 351.46L340.76 329.08L345.62 326.58L360.5 348.96Z" fill="white"/>
<path d="M366.56 345.86L360.36 349.04L347.92 325.4L354.1 322.22L366.56 345.86Z" fill="white"/>
</g>
<path d="M301.955 321.03L300.959 321.542C299.368 322.36 298.74 324.313 299.558 325.905L331.571 388.223C332.389 389.814 334.342 390.442 335.934 389.624L336.93 389.112C338.522 388.295 339.149 386.342 338.331 384.75L306.318 322.432C305.5 320.84 303.547 320.213 301.955 321.03Z" fill="#407BFF"/>
<path d="M222.89 431.716L326.578 378.428L304.601 335.664L200.913 388.953L222.89 431.716Z" fill="#407BFF"/>
<path opacity="0.2" d="M209.307 405.3L312.995 352.011L307.83 341.961L204.142 395.249L209.307 405.3Z" fill="white"/>
<path opacity="0.2" d="M219.652 425.402L323.34 372.113L318.175 362.063L214.486 415.351L219.652 425.402Z" fill="white"/>
<path d="M308.34 317.74C309.043 319.099 309.327 320.636 309.155 322.156C308.983 323.676 308.364 325.111 307.375 326.279C306.386 327.446 305.073 328.293 303.601 328.713C302.13 329.133 300.567 329.106 299.111 328.635C297.655 328.165 296.372 327.273 295.424 326.072C294.476 324.871 293.907 323.415 293.788 321.89C293.669 320.364 294.005 318.838 294.755 317.505C295.505 316.171 296.635 315.09 298 314.4C299.815 313.476 301.922 313.309 303.86 313.935C305.798 314.561 307.408 315.929 308.34 317.74Z" fill="#407BFF"/>
<path d="M343.32 385.8C344.016 387.154 344.296 388.684 344.123 390.196C343.95 391.709 343.333 393.136 342.349 394.298C341.365 395.46 340.059 396.304 338.595 396.723C337.132 397.143 335.577 397.12 334.127 396.656C332.677 396.192 331.397 395.309 330.449 394.118C329.5 392.927 328.926 391.481 328.799 389.964C328.672 388.447 328.998 386.926 329.735 385.594C330.472 384.262 331.587 383.178 332.94 382.48C334.757 381.547 336.87 381.373 338.816 381.996C340.761 382.618 342.381 383.986 343.32 385.8Z" fill="#407BFF"/>
<path d="M172.72 430.46L222.9 431.7L200.92 388.92L172.72 430.46Z" fill="#407BFF"/>
<path opacity="0.6" d="M200.92 388.94L222.9 431.7L186.56 430.8L180.5 419L200.92 388.94Z" fill="white"/>
<path d="M368.34 188.72C367.4 199.36 368.34 225.76 378.9 291.26H452.68C451.52 262.8 451.42 244.66 463.64 190.38C463.916 189.161 463.939 187.899 463.708 186.67C463.478 185.442 462.998 184.274 462.299 183.238C461.601 182.202 460.697 181.32 459.645 180.646C458.592 179.972 457.413 179.521 456.18 179.32C448.982 178.134 441.724 177.339 434.44 176.94C423.281 176.139 412.079 176.139 400.92 176.94C391.76 177.78 381.82 179.44 375.82 180.54C373.848 180.892 372.047 181.885 370.695 183.363C369.343 184.842 368.515 186.724 368.34 188.72Z" fill="#263238"/>
<path opacity="0.2" d="M459.68 205.48C453 207.14 446.82 214.42 447.56 227.86C447.963 233.965 450.1 239.828 453.72 244.76C454.9 234.44 456.88 222.44 460.02 207.1L459.68 205.48Z" fill="black"/>
<path d="M431.12 139.22C429 150 426.88 169.74 434.44 176.94C434.44 176.94 426.9 183.64 407.24 194.02C392.3 182.02 400.92 176.94 400.92 176.94C412.92 174.08 412.64 165.16 410.54 156.78L431.12 139.22Z" fill="#CE7A63"/>
<path opacity="0.2" d="M422.72 146.38L410.56 156.76C411.073 158.727 411.414 160.734 411.58 162.76C416.18 162.1 423.4 158.18 424.38 153.18C424.86 150.78 423.12 147.5 422.72 146.38Z" fill="black"/>
<path d="M443.8 118C440.98 135.82 440.18 143.42 430.24 151.74C415.32 164.28 394.06 156.92 391.48 138.64C389.18 122.18 394.16 95.8 412.38 90.36C416.391 89.133 420.649 88.9528 424.75 89.8367C428.85 90.7205 432.656 92.639 435.805 95.4094C438.955 98.1799 441.343 101.71 442.742 105.664C444.141 109.619 444.506 113.865 443.8 118Z" fill="#CE7A63"/>
<path d="M414.78 120C414.64 121.46 413.74 122.56 412.78 122.46C411.82 122.36 411.16 121.12 411.3 119.66C411.44 118.2 412.32 117.1 413.3 117.18C414.28 117.26 414.92 118.62 414.78 120Z" fill="#263238"/>
<path d="M398.28 118.5C398.14 119.96 397.26 121.06 396.28 120.98C395.3 120.9 394.68 119.62 394.8 118.16C394.92 116.7 395.84 115.6 396.8 115.68C397.76 115.76 398.42 117.04 398.28 118.5Z" fill="#263238"/>
<path d="M397.22 115.82L393.82 114.46C393.82 114.46 395.36 117.38 397.22 115.82Z" fill="#263238"/>
<path d="M403.12 121.62C401.502 124.82 399.449 127.782 397.02 130.42C397.716 131.022 398.534 131.467 399.418 131.722C400.301 131.978 401.23 132.038 402.14 131.9L403.12 121.62Z" fill="#BA4D3C"/>
<path d="M409.54 138.38C408.821 138.429 408.099 138.429 407.38 138.38C407.269 138.38 407.162 138.336 407.083 138.257C407.004 138.178 406.96 138.071 406.96 137.96C406.96 137.849 407.004 137.742 407.083 137.663C407.162 137.584 407.269 137.54 407.38 137.54C409.192 137.748 411.028 137.529 412.74 136.901C414.452 136.272 415.993 135.251 417.24 133.92C417.274 133.877 417.316 133.84 417.365 133.813C417.413 133.786 417.466 133.769 417.52 133.763C417.575 133.756 417.631 133.761 417.684 133.776C417.737 133.79 417.787 133.816 417.83 133.85C417.873 133.884 417.909 133.926 417.936 133.975C417.963 134.023 417.981 134.076 417.987 134.13C417.994 134.185 417.989 134.241 417.974 134.294C417.959 134.347 417.934 134.397 417.9 134.44C416.836 135.617 415.549 136.571 414.114 137.247C412.68 137.923 411.125 138.308 409.54 138.38Z" fill="#263238"/>
<path d="M447.74 132.54C446.413 135.765 443.87 138.337 440.66 139.7C436.38 141.46 433.7 137.7 434.44 133.44C435.1 129.56 438.12 123.96 442.62 124.04C443.597 124.094 444.546 124.386 445.384 124.89C446.222 125.395 446.925 126.097 447.429 126.935C447.934 127.773 448.227 128.722 448.281 129.699C448.335 130.676 448.149 131.651 447.74 132.54Z" fill="#CE7A63"/>
<path d="M435.44 105.58C438.02 113.92 438.6 129.74 431.7 139.22C442.7 129.48 449.28 118.72 444.12 101.96C441.148 102.968 438.248 104.177 435.44 105.58Z" fill="#263238"/>
<path d="M413.72 86.8599C400.06 88.0199 398.32 98.0799 395.52 103.14C405.52 101.38 433.9 109.46 438.8 116.28C449.34 118.5 447.28 101.38 447.28 101.38C447.28 101.38 445.02 85.2199 413.72 86.8599Z" fill="#263238"/>
<path d="M420.52 112.44C420.348 112.501 420.161 112.506 419.985 112.456C419.81 112.406 419.654 112.303 419.54 112.16C417.04 109.08 411.92 109.36 411.86 109.36C411.654 109.343 411.46 109.252 411.315 109.104C411.171 108.956 411.084 108.76 411.072 108.553C411.06 108.347 411.123 108.142 411.249 107.978C411.376 107.814 411.557 107.701 411.76 107.66C412 107.66 417.76 107.3 420.88 111.08C420.952 111.169 421.006 111.271 421.037 111.381C421.069 111.491 421.079 111.606 421.066 111.719C421.053 111.833 421.018 111.943 420.962 112.043C420.906 112.142 420.83 112.23 420.74 112.3C420.675 112.358 420.6 112.405 420.52 112.44Z" fill="#263238"/>
<path d="M392.3 110.62C392.109 110.637 391.917 110.589 391.756 110.484C391.595 110.379 391.474 110.223 391.412 110.041C391.349 109.859 391.35 109.662 391.413 109.481C391.476 109.299 391.598 109.144 391.76 109.04C392.876 108.25 394.163 107.738 395.517 107.547C396.87 107.356 398.249 107.49 399.54 107.94C399.729 108.041 399.873 108.208 399.945 108.41C400.017 108.611 400.011 108.833 399.929 109.03C399.846 109.228 399.693 109.387 399.499 109.478C399.305 109.568 399.084 109.583 398.88 109.52C397.852 109.178 396.758 109.084 395.687 109.248C394.616 109.411 393.599 109.827 392.72 110.46C392.597 110.55 392.452 110.606 392.3 110.62Z" fill="#263238"/>
<path d="M321.22 701.2L303.78 696.12L314.4 655.38L331.84 660.48L321.22 701.2Z" fill="#CE7A63"/>
<path d="M304 692.22L323.6 697.94C323.939 698.034 324.232 698.248 324.423 698.543C324.615 698.838 324.692 699.192 324.64 699.54L322.34 715.68C322.269 716.085 322.114 716.471 321.884 716.812C321.654 717.153 321.354 717.441 321.005 717.658C320.656 717.875 320.264 718.016 319.857 718.072C319.449 718.127 319.035 718.096 318.64 717.98C311.84 715.86 308.64 714.5 300.06 711.98C294.76 710.44 283.64 707.8 276.3 705.66C268.96 703.52 270.72 696.16 273.96 696.4C288.48 697.44 295.04 694.96 300.78 692.4C301.799 691.964 302.939 691.9 304 692.22Z" fill="#263238"/>
<g opacity="0.2">
<path d="M314.4 655.4L308.92 676.38L326.36 681.48L331.84 660.48L314.4 655.4Z" fill="black"/>
</g>
<path d="M378.9 291.26C378.9 291.26 347.66 432 339.14 486.7C330.3 543.6 306.66 670.38 306.66 670.38L330.24 677.26C330.24 677.26 365.3 546.78 377.42 490.92C390.64 430.04 433.28 348.6 432.92 291.26H378.9Z" fill="#407BFF"/>
<path d="M330 330.98L330.72 342.62C330.72 342.62 334.02 339.98 333.6 336.8C333.18 333.62 338.14 331.8 339.6 328.04L330 330.98Z" fill="#CE7A63"/>
<path opacity="0.2" d="M416.38 326.4C395.76 353.06 392.2 407.64 392.38 440.1C407.98 394.78 428.22 345.56 432.2 305.32C427.44 311.06 421.56 319.7 416.38 326.4Z" fill="black"/>
<path d="M446.06 700.26H427.9L426.68 658.18H444.84L446.06 700.26Z" fill="#CE7A63"/>
<path d="M427.26 698.16H447.68C448.032 698.156 448.374 698.279 448.642 698.507C448.91 698.735 449.087 699.052 449.14 699.4L451.46 715.54C451.502 715.949 451.458 716.362 451.33 716.753C451.203 717.143 450.994 717.503 450.719 717.808C450.444 718.113 450.108 718.358 449.733 718.525C449.357 718.692 448.951 718.779 448.54 718.78C441.42 718.66 438 718.24 429.02 718.24C423.5 718.24 412.08 718.8 404.46 718.8C396.84 718.8 396.46 711.26 399.6 710.58C413.84 707.52 419.44 703.3 424.24 699.28C425.081 698.558 426.152 698.161 427.26 698.16Z" fill="#263238"/>
<g opacity="0.2">
<path d="M426.68 658.2L427.3 679.88H445.48L444.86 658.2H426.68Z" fill="black"/>
</g>
<path d="M399.62 291.26C399.62 291.26 407.02 432.98 412 488.16C417.18 545.58 423.44 675.68 423.44 675.68H448C448 675.68 452.38 546.08 450.68 489.46C448.82 427.74 463.64 348.6 453.64 291.26H399.62Z" fill="#407BFF"/>
<path d="M450.14 676.56H421.32L419.2 667.36L451.48 666.24L450.14 676.56Z" fill="#263238"/>
<path d="M420.44 701.34C418.889 701.47 417.34 701.076 416.04 700.22C415.748 699.961 415.523 699.634 415.387 699.267C415.251 698.901 415.208 698.507 415.26 698.12C415.273 697.882 415.347 697.651 415.477 697.451C415.607 697.251 415.787 697.088 416 696.98C418.22 695.74 425.46 699.46 426.28 699.88C426.36 699.918 426.426 699.982 426.466 700.062C426.505 700.142 426.518 700.233 426.5 700.32C426.489 700.408 426.45 700.491 426.389 700.555C426.328 700.62 426.247 700.664 426.16 700.68C424.277 701.074 422.363 701.295 420.44 701.34ZM417.2 697.58C416.926 697.567 416.653 697.615 416.4 697.72C416.317 697.77 416.248 697.84 416.199 697.924C416.15 698.008 416.123 698.103 416.12 698.2C416.084 698.453 416.11 698.712 416.198 698.952C416.285 699.193 416.43 699.409 416.62 699.58C417.72 700.56 420.62 700.74 424.74 700.06C422.384 698.815 419.835 697.976 417.2 697.58Z" fill="#407BFF"/>
<path d="M426 700.68C423.84 699.7 419.56 695.78 420 693.72C420 693.22 420.42 692.62 421.6 692.5C422.029 692.45 422.465 692.49 422.878 692.618C423.291 692.745 423.673 692.957 424 693.24C426.28 695.14 426.7 700.04 426.72 700.24C426.723 700.318 426.707 700.396 426.672 700.466C426.637 700.536 426.585 700.596 426.52 700.64C426.446 700.696 426.358 700.73 426.266 700.737C426.174 700.744 426.081 700.724 426 700.68ZM421.68 693.32H421.42C420.62 693.32 420.58 693.72 420.56 693.82C420.36 695.04 423.26 698.14 425.48 699.46C425.305 697.398 424.494 695.442 423.16 693.86C422.769 693.524 422.275 693.334 421.76 693.32H421.68Z" fill="#407BFF"/>
<path d="M332.04 678.7L304.38 670.62L304.92 661.2L336.22 669.16L332.04 678.7Z" fill="#263238"/>
<path d="M295.02 692.82C293.457 692.536 292.042 691.715 291.02 690.5C290.816 690.17 290.695 689.796 290.667 689.41C290.639 689.023 290.705 688.635 290.86 688.28C290.939 688.056 291.075 687.855 291.253 687.698C291.432 687.54 291.648 687.431 291.88 687.38C294.38 686.82 300.28 692.42 300.94 693.06C301.008 693.117 301.054 693.196 301.072 693.283C301.09 693.37 301.079 693.46 301.04 693.54C301.002 693.619 300.942 693.685 300.868 693.731C300.793 693.777 300.707 693.801 300.62 693.8C298.727 693.645 296.853 693.317 295.02 692.82ZM293.02 688.3C292.757 688.235 292.483 688.235 292.22 688.3C292.124 688.316 292.034 688.359 291.96 688.422C291.886 688.485 291.831 688.568 291.8 688.66C291.681 688.888 291.619 689.142 291.619 689.4C291.619 689.658 291.681 689.911 291.8 690.14C292.58 691.4 295.4 692.4 299.46 692.88C297.57 690.994 295.372 689.445 292.96 688.3H293.02Z" fill="#407BFF"/>
<path d="M300.62 693.78L300.46 693.68C298.64 692.14 295.64 687.18 296.46 685.3C296.68 684.86 297.18 684.36 298.46 684.58C299.283 684.757 300.002 685.253 300.46 685.96C302.12 688.44 301.16 693.24 301.12 693.44C301.107 693.517 301.071 693.588 301.018 693.645C300.964 693.702 300.896 693.742 300.82 693.76C300.757 693.787 300.687 693.794 300.62 693.78ZM298.52 685.5C298.435 685.48 298.345 685.48 298.26 685.5C297.48 685.34 297.36 685.64 297.3 685.74C296.76 686.86 298.7 690.64 300.44 692.54C300.843 690.52 300.613 688.424 299.78 686.54C299.511 686.043 299.059 685.67 298.52 685.5Z" fill="#407BFF"/>
<path d="M413.72 117.38L410.3 116.04C410.3 116.04 411.84 118.96 413.72 117.38Z" fill="#263238"/>
<path d="M453.78 286.92L455.78 293.52C456.04 294.04 455.42 294.56 454.58 294.56H378.58C377.9 294.56 377.36 294.24 377.32 293.82L376.64 287.22C376.64 286.76 377.18 286.38 377.9 286.38H452.62C452.843 286.366 453.066 286.408 453.269 286.502C453.471 286.597 453.647 286.74 453.78 286.92Z" fill="#263238"/>
<path d="M443.5 295.28H445.5C445.9 295.28 446.22 295.08 446.18 294.82L445.24 286.24C445.24 286 444.86 285.78 444.48 285.78H442.48C442.1 285.78 441.78 286 441.82 286.24L442.76 294.82C442.76 295.08 443.1 295.28 443.5 295.28Z" fill="#407BFF"/>
<path d="M384.16 295.28H386.16C386.56 295.28 386.86 295.08 386.84 294.82L385.9 286.24C385.9 286 385.52 285.78 385.12 285.78H383.12C382.72 285.78 382.42 286 382.44 286.24L383.38 294.82C383.4 295.08 383.76 295.28 384.16 295.28Z" fill="#407BFF"/>
<path d="M413.7 295.28H415.7C416.1 295.28 416.42 295.08 416.38 294.82L415.44 286.24C415.44 286 415.06 285.78 414.68 285.78H412.68C412.3 285.78 411.98 286 412.02 286.24L412.96 294.82C412.96 295.08 413.3 295.28 413.7 295.28Z" fill="#407BFF"/>
<path d="M466 290.48L447.1 295.78L462.38 306.16C462.38 306.16 472.78 300.88 472.94 293.34L466 290.48Z" fill="#CE7A63"/>
<path d="M473.4 196.96C477.04 205.16 480.513 213.427 483.82 221.76C487.18 230.1 490.42 238.44 493.46 247.04C494.22 249.2 494.96 251.34 495.7 253.7L495.96 254.58L496.32 255.98C496.537 256.893 496.677 257.823 496.74 258.76C496.894 260.501 496.834 262.254 496.56 263.98C495.504 269.495 493.199 274.695 489.82 279.18C484.156 286.934 477.241 293.693 469.36 299.18L463.24 292.32C468.657 285.912 473.408 278.969 477.42 271.6C479.076 268.662 480.11 265.415 480.46 262.06C480.468 261.562 480.415 261.065 480.3 260.58C480.265 260.408 480.211 260.24 480.14 260.08L479.78 259.16C479.06 257.3 478.18 255.16 477.34 253.16L466.78 228.74C463.2 220.6 459.72 212.38 456.32 204.16L473.4 196.96Z" fill="#CE7A63"/>
<path d="M455.58 179.64C473.68 179.64 482.2 209.06 482.2 209.06L457.16 230.84C457.16 230.84 446.5 213.8 445.16 203.84C443.86 193.46 446.76 179.64 455.58 179.64Z" fill="#263238"/>
<path d="M438 308.08L451.24 316.08L462.32 306.16L447.04 295.78L438 308.08Z" fill="#CE7A63"/>
<path d="M442.44 176.4C442.243 176.379 442.045 176.408 441.863 176.485C441.681 176.562 441.521 176.684 441.4 176.84C436.02 183.9 376.72 262.72 370.92 318.62C370.68 322.12 370.22 331 370.22 331C370.22 331 379.78 270.16 448.02 178.74C448.146 178.576 448.225 178.382 448.251 178.177C448.276 177.973 448.247 177.765 448.165 177.575C448.084 177.386 447.953 177.222 447.787 177.099C447.621 176.977 447.425 176.901 447.22 176.88L442.44 176.4Z" fill="#407BFF"/>
<path opacity="0.4" d="M442.44 176.4C442.243 176.379 442.045 176.408 441.863 176.485C441.681 176.562 441.521 176.684 441.4 176.84C436.02 183.9 376.72 262.72 370.92 318.62C370.68 322.12 370.22 331 370.22 331C370.22 331 379.78 270.16 448.02 178.74C448.146 178.576 448.225 178.382 448.251 178.177C448.276 177.973 448.247 177.765 448.165 177.575C448.084 177.386 447.953 177.222 447.787 177.099C447.621 176.977 447.425 176.901 447.22 176.88L442.44 176.4Z" fill="white"/>
</svg>
