<svg width="1000" height="745" viewBox="0 0 1000 745" fill="none" xmlns="http://www.w3.org/2000/svg">
<path d="M899.8 686.98H833.56V687.48H899.8V686.98Z" fill="#EBEBEB"/>
<path d="M662.44 692.42H645.06V692.92H662.44V692.42Z" fill="#EBEBEB"/>
<path d="M831.56 668.42H793.18V668.92H831.56V668.42Z" fill="#EBEBEB"/>
<path d="M191.3 671.78H104.92V672.28H191.3V671.78Z" fill="#EBEBEB"/>
<path d="M221.78 671.78H209.12V672.28H221.78V671.78Z" fill="#EBEBEB"/>
<path d="M450.3 680.22H262.94V680.72H450.3V680.22Z" fill="#EBEBEB"/>
<path d="M476.8 565.6H90.6001C87.5713 565.6 84.6666 564.397 82.5249 562.255C80.3832 560.114 79.1801 557.209 79.1801 554.18V11.32C79.2064 8.30859 80.4212 5.4295 82.56 3.30941C84.6989 1.18932 87.5885 -0.000115452 90.6001 8.4051e-09H476.8C478.3 8.40511e-09 479.785 0.295384 481.17 0.869293C482.556 1.4432 483.815 2.2844 484.875 3.34484C485.936 4.40529 486.777 5.66422 487.351 7.04976C487.925 8.4353 488.22 9.9203 488.22 11.42V554.18C488.22 555.68 487.925 557.165 487.351 558.55C486.777 559.936 485.936 561.195 484.875 562.255C483.815 563.316 482.556 564.157 481.17 564.731C479.785 565.305 478.3 565.6 476.8 565.6ZM90.6001 0.400002C87.7055 0.405288 84.931 1.55748 82.8843 3.60423C80.8375 5.65099 79.6853 8.42546 79.6801 11.32V554.18C79.6853 557.075 80.8375 559.849 82.8843 561.896C84.931 563.943 87.7055 565.095 90.6001 565.1H476.8C479.695 565.095 482.469 563.943 484.516 561.896C486.563 559.849 487.715 557.075 487.72 554.18V11.32C487.715 8.42546 486.563 5.65099 484.516 3.60423C482.469 1.55748 479.695 0.405288 476.8 0.400002H90.6001Z" fill="#EBEBEB"/>
<path d="M909.4 565.6H523.2C520.171 565.6 517.267 564.397 515.125 562.255C512.983 560.114 511.78 557.209 511.78 554.18V11.32C511.806 8.30859 513.021 5.4295 515.16 3.30941C517.299 1.18932 520.189 -0.000115452 523.2 8.4051e-09H909.4C912.429 8.40512e-09 915.334 1.20318 917.475 3.34484C919.617 5.48651 920.82 8.39123 920.82 11.42V554.18C920.82 557.209 919.617 560.114 917.475 562.255C915.334 564.397 912.429 565.6 909.4 565.6ZM523.2 0.400002C520.306 0.405288 517.531 1.55748 515.484 3.60423C513.438 5.65099 512.285 8.42546 512.28 11.32V554.18C512.285 557.075 513.438 559.849 515.484 561.896C517.531 563.943 520.306 565.095 523.2 565.1H909.4C912.295 565.095 915.069 563.943 917.116 561.896C919.163 559.849 920.315 557.075 920.32 554.18V11.32C920.315 8.42546 919.163 5.65099 917.116 3.60423C915.069 1.55748 912.295 0.405288 909.4 0.400002H523.2Z" fill="#EBEBEB"/>
<path d="M1000 654.8H0V655.3H1000V654.8Z" fill="#EBEBEB"/>
<path d="M261.36 126.88L275.94 117.52L283.9 132.92L301.22 132.12L300.42 149.44L315.82 157.4L306.46 171.98L315.82 186.58L300.42 194.54L301.22 211.86L283.9 211.06L275.94 226.46L261.36 217.1L246.76 226.46L238.8 211.06L221.48 211.86L222.28 194.54L206.88 186.58L216.24 171.98L206.88 157.4L222.28 149.44L221.48 132.12L238.8 132.92L246.76 117.52L261.36 126.88Z" fill="#E6E6E6"/>
<path d="M255.82 194.26L238.48 176.92C237.529 175.968 236.994 174.676 236.994 173.33C236.994 171.984 237.529 170.693 238.48 169.74C239.433 168.789 240.724 168.254 242.07 168.254C243.416 168.254 244.707 168.789 245.66 169.74L255.82 179.9L277.04 158.68C277.993 157.729 279.284 157.194 280.63 157.194C281.976 157.194 283.267 157.729 284.22 158.68C285.171 159.633 285.706 160.924 285.706 162.27C285.706 163.616 285.171 164.907 284.22 165.86L255.82 194.26Z" fill="#FAFAFA"/>
<path d="M803.72 279.96L815.16 272.62L821.4 284.7L835 284.06L834.36 297.64L846.44 303.88L839.1 315.34L846.44 326.78L834.36 333.02L835 346.6L821.4 345.98L815.16 358.06L803.72 350.72L792.28 358.06L786.04 345.98L772.46 346.6L773.08 333.02L761 326.78L768.34 315.34L761 303.88L773.08 297.64L772.46 284.06L786.04 284.7L792.28 272.62L803.72 279.96Z" fill="#E6E6E6"/>
<path d="M799.38 332.8L785.78 319.2C785.041 318.451 784.627 317.442 784.627 316.39C784.627 315.338 785.041 314.329 785.78 313.58C786.529 312.835 787.543 312.417 788.6 312.417C789.657 312.417 790.671 312.835 791.42 313.58L799.42 321.58L816.06 304.94C816.809 304.195 817.823 303.777 818.88 303.777C819.937 303.777 820.951 304.195 821.7 304.94C822.445 305.689 822.863 306.703 822.863 307.76C822.863 308.817 822.445 309.831 821.7 310.58L799.38 332.8Z" fill="#FAFAFA"/>
<path d="M262.82 472L285.12 483.38C286.957 484.31 289.047 484.617 291.074 484.257C293.101 483.896 294.956 482.886 296.36 481.38L313.42 463.06C314.408 462.001 315.139 460.728 315.555 459.341C315.971 457.953 316.062 456.488 315.82 455.06L306.96 404.74C306.258 400.793 304.019 397.286 300.735 394.988C297.45 392.69 293.388 391.788 289.44 392.48L261.2 397.46C259.245 397.805 257.376 398.532 255.702 399.6C254.028 400.667 252.58 402.054 251.441 403.681C250.303 405.308 249.496 407.143 249.067 409.082C248.638 411.02 248.595 413.025 248.94 414.98L257.8 465.28C258.067 466.71 258.658 468.059 259.528 469.224C260.399 470.389 261.525 471.339 262.82 472ZM288.22 468C289.148 467.832 290.105 467.943 290.969 468.319C291.834 468.695 292.567 469.32 293.076 470.114C293.585 470.907 293.847 471.834 293.829 472.777C293.81 473.719 293.512 474.635 292.972 475.409C292.433 476.182 291.675 476.777 290.797 477.119C289.918 477.461 288.958 477.535 288.037 477.33C287.117 477.126 286.278 476.653 285.627 475.971C284.976 475.289 284.542 474.429 284.38 473.5C284.165 472.262 284.447 470.989 285.167 469.959C285.886 468.928 286.984 468.224 288.22 468Z" fill="#E6E6E6"/>
<path d="M263.909 456.405L307.063 448.796L306.24 444.128L263.086 451.737L263.909 456.405Z" fill="#FAFAFA"/>
<path d="M256.601 414.924L299.755 407.315L298.932 402.647L255.778 410.256L256.601 414.924Z" fill="#FAFAFA"/>
<path d="M339.04 146.28L354.4 162.76C355.662 164.113 357.33 165.019 359.152 165.34C360.974 165.661 362.851 165.38 364.5 164.54L384.5 154.3C385.677 153.706 386.698 152.845 387.483 151.785C388.267 150.726 388.794 149.499 389.02 148.2L397.02 102.96C397.642 99.4119 396.831 95.7618 394.765 92.8109C392.699 89.86 389.547 87.8492 386 87.22L360.62 82.74C357.067 82.1179 353.411 82.9309 350.457 85.0007C347.502 87.0704 345.489 90.2278 344.86 93.78L336.86 139C336.63 140.299 336.708 141.634 337.087 142.899C337.465 144.163 338.134 145.321 339.04 146.28ZM361.7 150.8C362.535 150.943 363.308 151.331 363.923 151.914C364.537 152.498 364.965 153.25 365.151 154.077C365.337 154.903 365.274 155.766 364.97 156.557C364.665 157.347 364.133 158.029 363.441 158.517C362.748 159.005 361.926 159.277 361.08 159.297C360.233 159.318 359.399 159.086 358.683 158.633C357.968 158.179 357.403 157.523 357.061 156.748C356.719 155.973 356.614 155.114 356.76 154.28C356.955 153.164 357.585 152.172 358.511 151.519C359.437 150.867 360.584 150.608 361.7 150.8Z" fill="#F0F0F0"/>
<path d="M344.775 133.467L383.576 140.309L384.316 136.114L345.514 129.272L344.775 133.467Z" fill="#FAFAFA"/>
<path d="M352.471 98.5715L391.083 105.27L391.807 101.095L353.195 94.3967L352.471 98.5715Z" fill="#FAFAFA"/>
<path d="M710.76 97.5C707.921 93.4443 703.587 90.6817 698.712 89.8192C693.837 88.9566 688.819 90.0647 684.76 92.9L676.76 98.44L671.2 90.44C668.354 86.393 664.021 83.6373 659.149 82.7754C654.277 81.9134 649.262 83.0152 645.2 85.84C641.153 88.6862 638.397 93.0189 637.535 97.8909C636.673 102.763 637.775 107.778 640.6 111.84L667.62 150.42L706.22 123.4C710.233 120.549 712.961 116.231 713.811 111.383C714.661 106.534 713.565 101.546 710.76 97.5Z" fill="#EBEBEB"/>
<path d="M766.24 101.1C765.553 100.111 764.677 99.2682 763.662 98.6191C762.648 97.9701 761.515 97.5278 760.33 97.3178C759.144 97.1078 757.928 97.1342 756.753 97.3954C755.577 97.6566 754.465 98.1475 753.48 98.84L749.6 101.56L746.88 97.68C745.485 95.6919 743.358 94.3378 740.967 93.9142C738.575 93.4906 736.113 94.032 734.12 95.42C732.134 96.822 730.783 98.9532 730.364 101.348C729.944 103.743 730.489 106.206 731.88 108.2L745.1 127.08L764 113.86C764.987 113.171 765.828 112.294 766.476 111.279C767.123 110.264 767.563 109.131 767.771 107.945C767.979 106.76 767.951 105.545 767.688 104.37C767.426 103.195 766.933 102.084 766.24 101.1Z" fill="#EBEBEB"/>
<path d="M174.72 284.72C161.812 288.427 150.904 297.107 144.393 308.853C137.883 320.599 136.303 334.449 140 347.36C145.02 364.82 175.64 394.08 196.48 412.46C198.617 414.349 201.196 415.669 203.979 416.299C206.761 416.928 209.657 416.847 212.399 416.061C215.142 415.276 217.642 413.813 219.67 411.806C221.697 409.799 223.186 407.314 224 404.58C232 377.96 242.38 336.9 237.38 319.44C235.547 313.045 232.472 307.074 228.331 301.867C224.189 296.661 219.063 292.322 213.244 289.097C207.425 285.873 201.027 283.827 194.417 283.076C187.807 282.325 181.114 282.883 174.72 284.72ZM195.12 355.86C190.679 357.136 185.96 357.067 181.559 355.661C177.158 354.255 173.272 351.575 170.394 347.961C167.516 344.347 165.774 339.96 165.389 335.356C165.004 330.751 165.993 326.136 168.231 322.094C170.469 318.052 173.855 314.764 177.961 312.647C182.068 310.529 186.71 309.677 191.301 310.198C195.892 310.719 200.225 312.589 203.753 315.573C207.281 318.556 209.844 322.519 211.12 326.96C212.83 332.914 212.105 339.304 209.105 344.723C206.104 350.143 201.074 354.149 195.12 355.86Z" fill="#E0E0E0"/>
<path d="M182.64 282.46C169.748 286.179 158.859 294.863 152.365 306.603C145.87 318.344 144.3 332.183 148 345.08C153.02 362.54 183.64 391.82 204.48 410.2C206.626 412.083 209.211 413.395 211.998 414.014C214.785 414.634 217.683 414.54 220.424 413.743C223.165 412.945 225.661 411.47 227.681 409.452C229.701 407.435 231.179 404.94 231.98 402.2C239.98 375.58 250.36 334.54 245.36 317.06C243.517 310.668 240.432 304.701 236.282 299.502C232.132 294.303 226.997 289.973 221.172 286.759C215.347 283.546 208.946 281.512 202.334 280.774C195.722 280.037 189.03 280.609 182.64 282.46ZM203.04 353.6C198.596 354.88 193.872 354.814 189.465 353.408C185.059 352.003 181.168 349.323 178.286 345.706C175.403 342.09 173.658 337.7 173.27 333.091C172.883 328.482 173.872 323.862 176.111 319.815C178.349 315.768 181.738 312.476 185.849 310.356C189.959 308.235 194.605 307.381 199.201 307.902C203.796 308.423 208.134 310.295 211.666 313.282C215.197 316.268 217.763 320.235 219.04 324.68C219.89 327.629 220.15 330.718 219.806 333.768C219.461 336.818 218.519 339.77 217.033 342.456C215.547 345.142 213.547 347.508 211.146 349.42C208.745 351.333 205.99 352.753 203.04 353.6Z" fill="#F5F5F5"/>
<path d="M765.82 156C760.255 154.391 754.426 153.897 748.669 154.545C742.913 155.194 737.341 156.974 732.273 159.782C727.206 162.59 722.743 166.37 719.14 170.907C715.538 175.444 712.866 180.648 711.28 186.22C706.92 201.44 716.02 237.18 722.94 260.36C723.645 262.748 724.941 264.92 726.709 266.673C728.477 268.426 730.66 269.704 733.054 270.388C735.448 271.073 737.976 271.141 740.404 270.587C742.831 270.033 745.08 268.875 746.94 267.22C765.1 251.22 791.76 225.74 796.12 210.54C797.728 204.969 798.219 199.136 797.564 193.375C796.91 187.614 795.124 182.039 792.308 176.971C789.493 171.903 785.703 167.441 781.157 163.842C776.611 160.243 771.399 157.578 765.82 156ZM748 218C744.136 216.891 740.687 214.661 738.089 211.593C735.491 208.525 733.861 204.756 733.404 200.762C732.947 196.768 733.683 192.728 735.521 189.153C737.359 185.577 740.214 182.626 743.728 180.673C747.242 178.719 751.255 177.85 755.262 178.177C759.269 178.503 763.089 180.009 766.241 182.505C769.392 185.001 771.733 188.375 772.968 192.201C774.203 196.027 774.277 200.132 773.18 204C772.45 206.575 771.218 208.98 769.556 211.078C767.895 213.176 765.835 214.926 763.496 216.227C761.157 217.527 758.584 218.353 755.925 218.658C753.266 218.962 750.573 218.738 748 218Z" fill="#E0E0E0"/>
<path d="M772.72 158C767.155 156.391 761.326 155.897 755.569 156.545C749.813 157.194 744.241 158.974 739.173 161.782C734.106 164.59 729.643 168.37 726.04 172.907C722.437 177.444 719.766 182.648 718.18 188.22C713.82 203.42 722.92 239.18 729.84 262.36C730.545 264.748 731.841 266.92 733.609 268.673C735.377 270.426 737.56 271.704 739.954 272.388C742.348 273.073 744.876 273.141 747.304 272.587C749.731 272.033 751.98 270.875 753.84 269.22C771.98 253.22 798.64 227.74 803 212.54C804.608 206.971 805.1 201.139 804.447 195.379C803.794 189.619 802.01 184.045 799.196 178.976C796.382 173.908 792.595 169.446 788.051 165.846C783.507 162.247 778.297 159.58 772.72 158ZM754.96 220C751.094 218.894 747.642 216.667 745.041 213.6C742.44 210.534 740.807 206.765 740.347 202.77C739.887 198.775 740.622 194.734 742.458 191.156C744.294 187.579 747.15 184.626 750.664 182.671C754.177 180.715 758.192 179.845 762.2 180.171C766.208 180.496 770.03 182.003 773.182 184.499C776.334 186.996 778.676 190.371 779.911 194.198C781.146 198.025 781.218 202.132 780.12 206C778.64 211.193 775.158 215.585 770.439 218.211C765.721 220.836 760.153 221.48 754.96 220Z" fill="#F5F5F5"/>
<path d="M500 744.02C714.165 744.02 887.78 733.884 887.78 721.38C887.78 708.876 714.165 698.74 500 698.74C285.835 698.74 112.22 708.876 112.22 721.38C112.22 733.884 285.835 744.02 500 744.02Z" fill="#F5F5F5"/>
<path d="M377 265.74H398.4C399.461 265.72 400.513 265.926 401.489 266.343C402.464 266.76 403.34 267.38 404.058 268.16C404.776 268.941 405.321 269.865 405.655 270.872C405.99 271.878 406.108 272.945 406 274L402 319.14C401.771 321.387 400.726 323.472 399.064 325.001C397.402 326.53 395.238 327.398 392.98 327.44H371.6C370.537 327.457 369.483 327.249 368.507 326.828C367.531 326.407 366.656 325.783 365.939 324.999C365.222 324.214 364.681 323.286 364.35 322.276C364.019 321.266 363.906 320.197 364.02 319.14L368 274C368.238 271.764 369.283 269.691 370.94 268.171C372.597 266.65 374.752 265.786 377 265.74Z" fill="#407BFF"/>
<path opacity="0.2" d="M616.4 256.1H649.84C651.5 256.07 653.148 256.395 654.673 257.051C656.198 257.707 657.566 258.681 658.686 259.907C659.806 261.133 660.652 262.583 661.168 264.161C661.685 265.739 661.859 267.409 661.68 269.06L657.56 316.2C657.201 319.693 655.582 322.936 653.005 325.321C650.428 327.707 647.07 329.071 643.56 329.16H610C608.341 329.187 606.696 328.86 605.173 328.203C603.65 327.545 602.285 326.571 601.167 325.346C600.049 324.12 599.205 322.671 598.69 321.094C598.175 319.517 598.001 317.849 598.18 316.2L602.3 269.06C602.661 265.55 604.295 262.294 606.892 259.906C609.49 257.519 612.872 256.165 616.4 256.1Z" fill="black"/>
<path opacity="0.2" d="M609.54 334.42H643C644.658 334.393 646.304 334.72 647.827 335.377C649.349 336.035 650.715 337.009 651.833 338.234C652.951 339.46 653.795 340.909 654.31 342.486C654.825 344.063 654.999 345.731 654.82 347.38L650.7 394.52C650.343 398.031 648.711 401.29 646.112 403.679C643.513 406.067 640.129 407.42 636.6 407.48H603.16C601.5 407.509 599.852 407.185 598.327 406.529C596.802 405.873 595.434 404.899 594.314 403.673C593.194 402.447 592.348 400.997 591.831 399.419C591.315 397.841 591.141 396.171 591.32 394.52L595.46 347.38C595.816 343.872 597.446 340.616 600.04 338.228C602.635 335.84 606.014 334.485 609.54 334.42Z" fill="black"/>
<path d="M437.02 167.72H623.34C629.345 167.613 635.304 168.786 640.82 171.163C646.337 173.539 651.283 177.063 655.331 181.5C659.379 185.938 662.434 191.187 664.295 196.897C666.155 202.608 666.777 208.65 666.12 214.62L626.36 668.96C625.066 681.657 619.163 693.439 609.769 702.077C600.375 710.716 588.14 715.612 575.38 715.84H389.06C383.057 715.947 377.099 714.774 371.585 712.399C366.07 710.024 361.125 706.501 357.077 702.066C353.03 697.631 349.974 692.385 348.112 686.676C346.25 680.968 345.626 674.929 346.28 668.96L386 214.62C387.291 201.913 393.197 190.121 402.6 181.477C412.003 172.833 424.25 167.939 437.02 167.72Z" fill="#407BFF"/>
<path opacity="0.2" d="M437.02 167.72H623.34C629.345 167.613 635.304 168.786 640.82 171.163C646.337 173.539 651.283 177.063 655.331 181.5C659.379 185.938 662.434 191.187 664.295 196.897C666.155 202.608 666.777 208.65 666.12 214.62L626.36 668.96C625.066 681.657 619.163 693.439 609.769 702.077C600.375 710.716 588.14 715.612 575.38 715.84H389.06C383.057 715.947 377.099 714.774 371.585 712.399C366.07 710.024 361.125 706.501 357.077 702.066C353.03 697.631 349.974 692.385 348.112 686.676C346.25 680.968 345.626 674.929 346.28 668.96L386 214.62C387.291 201.913 393.197 190.121 402.6 181.477C412.003 172.833 424.25 167.939 437.02 167.72Z" fill="black"/>
<path d="M431 167.72H617.34C623.344 167.616 629.302 168.792 634.816 171.169C640.331 173.546 645.276 177.07 649.323 181.507C653.37 185.944 656.426 191.191 658.288 196.901C660.149 202.61 660.774 208.65 660.12 214.62L620.36 668.96C619.062 681.655 613.158 693.434 603.764 702.072C594.371 710.71 582.139 715.608 569.38 715.84H383.06C377.056 715.95 371.097 714.779 365.581 712.405C360.065 710.031 355.118 706.509 351.07 702.073C347.022 697.637 343.966 692.389 342.105 686.68C340.245 680.97 339.622 674.929 340.28 668.96L380 214.62C382.28 188.72 405.12 167.72 431 167.72Z" fill="#407BFF"/>
<path d="M654.52 214.62L614.78 668.94C613.629 680.121 608.424 690.493 600.148 698.098C591.872 705.703 581.098 710.015 569.86 710.22H383.54C378.253 710.317 373.005 709.286 368.147 707.196C363.289 705.106 358.933 702.005 355.367 698.099C351.802 694.193 349.11 689.572 347.471 684.544C345.831 679.516 345.282 674.197 345.86 668.94L385.62 214.62C386.766 203.439 391.967 193.065 400.239 185.456C408.511 177.847 419.283 173.53 430.52 173.32H616.84C622.128 173.226 627.376 174.259 632.234 176.352C637.092 178.444 641.448 181.547 645.013 185.455C648.578 189.362 651.27 193.984 652.909 199.013C654.548 204.042 655.098 209.362 654.52 214.62Z" fill="white"/>
<g opacity="0.1">
<path d="M383.54 710.22H454.18L568.3 173.32H478.3L365.14 705.68C370.805 708.689 377.126 710.248 383.54 710.22Z" fill="black"/>
<path d="M611.5 173.32H594.38L480.24 710.22H497.38L611.5 173.32Z" fill="black"/>
</g>
<path d="M469.06 172C468.886 173.677 469.067 175.372 469.591 176.974C470.116 178.576 470.972 180.05 472.104 181.299C473.236 182.548 474.619 183.545 476.162 184.224C477.705 184.903 479.374 185.249 481.06 185.24H564.06C567.658 185.162 571.104 183.774 573.751 181.337C576.399 178.899 578.066 175.579 578.44 172H469.06Z" fill="#407BFF"/>
<path d="M613.46 188H632.3C632.664 187.998 633.025 188.073 633.359 188.22C633.693 188.366 633.992 188.581 634.237 188.851C634.482 189.121 634.668 189.439 634.782 189.785C634.896 190.131 634.936 190.497 634.9 190.86L634.18 199.06C634.102 199.833 633.744 200.551 633.172 201.078C632.601 201.605 631.857 201.904 631.08 201.92H612.24C611.875 201.925 611.512 201.852 611.177 201.707C610.842 201.561 610.542 201.346 610.296 201.076C610.05 200.805 609.864 200.486 609.751 200.138C609.638 199.791 609.6 199.423 609.64 199.06L610.36 190.86C610.438 190.087 610.796 189.369 611.368 188.842C611.939 188.315 612.683 188.016 613.46 188Z" fill="#407BFF"/>
<path d="M412.3 188H437.52C437.932 187.995 438.34 188.077 438.718 188.241C439.095 188.405 439.434 188.647 439.712 188.951C439.989 189.255 440.2 189.614 440.329 190.005C440.457 190.396 440.502 190.81 440.46 191.22L439.8 198.7C439.712 199.572 439.307 200.382 438.662 200.975C438.017 201.569 437.176 201.905 436.3 201.92H411.08C410.669 201.925 410.262 201.843 409.885 201.679C409.508 201.515 409.17 201.273 408.894 200.968C408.618 200.664 408.41 200.304 408.283 199.913C408.157 199.522 408.115 199.109 408.16 198.7L408.8 191.22C408.888 190.348 409.293 189.538 409.938 188.945C410.583 188.351 411.423 188.015 412.3 188Z" fill="#407BFF"/>
<path opacity="0.4" d="M412.3 188H437.52C437.932 187.995 438.34 188.077 438.718 188.241C439.095 188.405 439.434 188.647 439.712 188.951C439.989 189.255 440.2 189.614 440.329 190.005C440.457 190.396 440.502 190.81 440.46 191.22L439.8 198.7C439.712 199.572 439.307 200.382 438.662 200.975C438.017 201.569 437.176 201.905 436.3 201.92H411.08C410.669 201.925 410.262 201.843 409.885 201.679C409.508 201.515 409.17 201.273 408.894 200.968C408.618 200.664 408.41 200.304 408.283 199.913C408.157 199.522 408.115 199.109 408.16 198.7L408.8 191.22C408.888 190.348 409.293 189.538 409.938 188.945C410.583 188.351 411.423 188.015 412.3 188Z" fill="white"/>
<path d="M608.44 190.32H611.4C611.534 190.316 611.667 190.341 611.791 190.393C611.914 190.446 612.025 190.523 612.116 190.622C612.207 190.72 612.276 190.837 612.318 190.965C612.36 191.092 612.374 191.227 612.36 191.36L611.74 198.44C611.711 198.723 611.578 198.985 611.368 199.177C611.158 199.369 610.884 199.477 610.6 199.48H607.64C607.506 199.484 607.373 199.458 607.249 199.406C607.126 199.354 607.015 199.276 606.924 199.178C606.833 199.079 606.764 198.963 606.722 198.835C606.68 198.708 606.666 198.573 606.68 198.44L607.3 191.36C607.329 191.077 607.462 190.815 607.672 190.623C607.882 190.431 608.155 190.323 608.44 190.32Z" fill="#407BFF"/>
<path d="M628.56 190.32H631.54C631.672 190.319 631.803 190.346 631.924 190.4C632.046 190.453 632.154 190.531 632.243 190.63C632.331 190.728 632.398 190.844 632.439 190.969C632.48 191.095 632.494 191.228 632.48 191.36L631.86 198.44C631.835 198.721 631.707 198.983 631.5 199.175C631.293 199.368 631.022 199.476 630.74 199.48H627.76C627.628 199.481 627.497 199.453 627.376 199.4C627.255 199.347 627.146 199.268 627.057 199.17C626.969 199.072 626.902 198.956 626.861 198.83C626.82 198.705 626.806 198.572 626.82 198.44L627.44 191.36C627.465 191.079 627.593 190.817 627.8 190.624C628.007 190.432 628.278 190.324 628.56 190.32Z" fill="white"/>
<path d="M622.18 190.32H625.16C625.292 190.319 625.423 190.346 625.544 190.4C625.666 190.453 625.774 190.531 625.863 190.63C625.951 190.728 626.018 190.844 626.059 190.969C626.1 191.095 626.114 191.228 626.1 191.36L625.48 198.44C625.455 198.721 625.327 198.983 625.12 199.175C624.913 199.368 624.642 199.476 624.36 199.48H621.38C621.248 199.481 621.117 199.453 620.996 199.4C620.875 199.347 620.766 199.268 620.677 199.17C620.589 199.072 620.522 198.956 620.481 198.83C620.44 198.705 620.426 198.572 620.44 198.44L621.06 191.36C621.085 191.079 621.213 190.817 621.42 190.624C621.627 190.432 621.898 190.324 622.18 190.32Z" fill="white"/>
<path d="M655.66 315.88L651.66 362.34C653.618 361.964 655.403 360.967 656.75 359.497C658.097 358.028 658.935 356.163 659.14 354.18L661.7 324C661.903 322.134 661.393 320.261 660.273 318.755C659.153 317.249 657.505 316.222 655.66 315.88Z" fill="#407BFF"/>
<path opacity="0.2" d="M655.66 315.88L651.66 362.34C653.618 361.964 655.403 360.967 656.75 359.497C658.097 358.028 658.935 356.163 659.14 354.18L661.7 324C661.903 322.134 661.393 320.261 660.273 318.755C659.153 317.249 657.505 316.222 655.66 315.88Z" fill="black"/>
<path d="M660 265.74L656 312.2C657.954 311.827 659.735 310.833 661.08 309.367C662.424 307.9 663.258 306.039 663.46 304.06L666 274C666.232 272.119 665.742 270.22 664.628 268.687C663.515 267.154 661.86 266.101 660 265.74Z" fill="#407BFF"/>
<path opacity="0.2" d="M660 265.74L656 312.2C657.954 311.827 659.735 310.833 661.08 309.367C662.424 307.9 663.258 306.039 663.46 304.06L666 274C666.232 272.119 665.742 270.22 664.628 268.687C663.515 267.154 661.86 266.101 660 265.74Z" fill="black"/>
<path d="M810.58 371.76H771.32C768.137 371.76 765.085 373.024 762.835 375.275C760.584 377.525 759.32 380.577 759.32 383.76V407C759.346 410.165 760.622 413.192 762.87 415.421C765.117 417.65 768.155 418.9 771.32 418.9H782.54V427.96C782.546 428.458 782.699 428.943 782.978 429.354C783.258 429.766 783.652 430.087 784.112 430.277C784.572 430.466 785.078 430.517 785.567 430.421C786.055 430.326 786.505 430.089 786.86 429.74L797.68 418.9H810.58C813.728 418.874 816.74 417.612 818.966 415.386C821.192 413.16 822.454 410.148 822.48 407V383.66C822.454 380.512 821.192 377.5 818.966 375.274C816.74 373.048 813.728 371.786 810.58 371.76Z" fill="#407BFF"/>
<path d="M801.08 382.88H782.22C782.04 381.3 781.94 380.52 781.76 378.88H771.38C771.6 379.78 771.72 380.22 771.94 381.12H779.42C779.52 381.78 779.58 382.12 779.68 382.8C780.18 386.1 780.44 387.74 780.94 391.04C781.06 391.94 781.14 392.38 781.28 393.28C781.78 396.58 782.02 398.22 782.52 401.52C782.8 403.3 782.94 404.18 783.2 405.94H804C804.2 405.04 804.3 404.6 804.52 403.7H784.82C784.72 402.84 784.66 402.4 784.56 401.52H805.98L807.98 393.28C808.2 392.38 808.3 391.94 808.54 391.04C809.34 387.74 809.76 386.1 810.54 382.8L801.08 382.88ZM782.5 385.1H789.18C789.18 387.52 789.28 388.72 789.36 391.1H783.2L782.5 385.1ZM784.2 399.38C783.9 396.96 783.76 395.76 783.48 393.38H789.48C789.48 395.78 789.58 396.98 789.66 399.38H784.2ZM797.02 399.38H791.6C791.6 396.96 791.6 395.76 791.6 393.38H797.6C797.34 395.76 797.24 396.96 797.02 399.38ZM797.78 391.12H791.62C791.62 388.72 791.62 387.52 791.62 385.12H798.3C798.1 387.52 798 388.72 797.78 391.12ZM804.42 399.38H799.02C799.32 396.96 799.46 395.76 799.78 393.38H805.78L804.42 399.38ZM806.2 391.12H800C800.32 388.72 800.46 387.52 800.76 385.12H807.44C806.96 387.52 806.7 388.72 806.2 391.12Z" fill="white"/>
<path d="M784.48 408.1C783.954 408.1 783.44 408.256 783.002 408.548C782.565 408.841 782.224 409.256 782.022 409.742C781.821 410.228 781.768 410.763 781.871 411.279C781.974 411.795 782.227 412.269 782.599 412.641C782.971 413.013 783.445 413.266 783.961 413.369C784.477 413.472 785.012 413.419 785.498 413.218C785.984 413.016 786.399 412.675 786.692 412.238C786.984 411.8 787.14 411.286 787.14 410.76C787.14 410.055 786.86 409.378 786.361 408.879C785.862 408.38 785.185 408.1 784.48 408.1Z" fill="white"/>
<path d="M803.32 413.4C804.778 413.4 805.96 412.218 805.96 410.76C805.96 409.302 804.778 408.12 803.32 408.12C801.862 408.12 800.68 409.302 800.68 410.76C800.68 412.218 801.862 413.4 803.32 413.4Z" fill="white"/>
<path d="M547.02 205.24H484.7C479.56 205.331 474.631 207.302 470.846 210.781C467.061 214.26 464.683 219.006 464.16 224.12L460.94 261.02C460.675 263.423 460.926 265.855 461.675 268.154C462.423 270.453 463.653 272.566 465.283 274.352C466.912 276.138 468.903 277.557 471.124 278.514C473.344 279.47 475.743 279.943 478.16 279.9H496L494.74 294.26C494.679 295.047 494.866 295.834 495.275 296.51C495.683 297.186 496.294 297.716 497.02 298.028C497.746 298.339 498.551 298.415 499.322 298.245C500.093 298.075 500.792 297.667 501.32 297.08L520 280H540.48C545.619 279.905 550.545 277.932 554.329 274.454C558.113 270.976 560.493 266.233 561.02 261.12L564.24 224.22C564.52 221.809 564.281 219.366 563.539 217.055C562.797 214.744 561.57 212.618 559.939 210.821C558.308 209.023 556.311 207.595 554.083 206.633C551.855 205.67 549.447 205.195 547.02 205.24Z" fill="#407BFF"/>
<path d="M528.38 222.88H498.48L498.28 216.68H481.82C482.04 218.1 482.16 218.8 482.38 220.22H494.26C494.26 221.28 494.36 221.82 494.42 222.88C494.76 228.12 494.94 230.74 495.28 235.98C495.28 237.38 495.42 238.1 495.5 239.52C495.84 244.74 496.02 247.36 496.34 252.6C496.54 255.4 496.62 256.8 496.8 259.6H529.64L530.78 256.06H499.52V252.6H533.52C535.28 247.36 536.16 244.74 537.9 239.52L539.08 235.98C540.84 230.74 541.72 228.12 543.46 222.88H528.38ZM498.58 226.42H509.18C508.96 230.24 508.86 232.14 508.64 235.98H498.88L498.58 226.42ZM499.3 249.06L499 239.52H508.44C508.22 243.34 508.1 245.24 507.88 249.06H499.3ZM519.64 249.06H511.06C511.4 245.24 511.58 243.34 511.92 239.52H521.36C520.68 243.34 520.34 245.24 519.64 249.06ZM522 236H512.24C512.6 232.16 512.76 230.26 513.1 226.44H523.72C523.02 230.24 522.68 232.14 522 236ZM531.4 249.08H522.82L524.82 239.54H534.24C533.14 243.34 532.56 245.24 531.4 249.06V249.08ZM535.4 236H525.6C526.42 232.16 526.82 230.26 527.6 226.44H538.2C537.08 230.24 536.5 232.14 535.36 236H535.4Z" fill="white"/>
<path d="M498.56 262.92C497.415 262.938 496.316 263.376 495.472 264.15C494.628 264.924 494.097 265.981 493.98 267.12C493.923 267.655 493.981 268.196 494.149 268.707C494.317 269.218 494.591 269.688 494.954 270.085C495.317 270.482 495.76 270.797 496.255 271.01C496.749 271.223 497.282 271.329 497.82 271.32C498.965 271.301 500.064 270.864 500.908 270.09C501.752 269.316 502.283 268.259 502.4 267.12C502.457 266.585 502.399 266.044 502.231 265.533C502.063 265.022 501.789 264.552 501.426 264.155C501.063 263.758 500.62 263.443 500.126 263.23C499.631 263.017 499.098 262.911 498.56 262.92Z" fill="white"/>
<path d="M528.42 262.92C527.277 262.939 526.181 263.377 525.34 264.152C524.499 264.926 523.973 265.982 523.86 267.12C523.803 267.655 523.861 268.196 524.029 268.707C524.197 269.218 524.471 269.688 524.834 270.085C525.197 270.482 525.64 270.797 526.135 271.01C526.629 271.223 527.162 271.329 527.7 271.32C528.843 271.301 529.939 270.863 530.78 270.088C531.62 269.314 532.147 268.257 532.26 267.12C532.317 266.585 532.259 266.044 532.091 265.533C531.923 265.022 531.649 264.552 531.286 264.155C530.923 263.758 530.479 263.443 529.985 263.23C529.491 263.017 528.958 262.911 528.42 262.92Z" fill="white"/>
<path d="M591.8 466.36H520.54V537.62H591.8V466.36Z" fill="#407BFF"/>
<path d="M635.54 466.36H591.78V537.62H635.54V466.36Z" fill="#407BFF"/>
<path d="M578.18 448.48H506.92L520.54 466.36H591.78L578.18 448.48Z" fill="#407BFF"/>
<path opacity="0.3" d="M635.54 466.36H591.78V537.62H635.54V466.36Z" fill="white"/>
<path opacity="0.4" d="M578.18 448.48H506.92L520.54 466.36H591.78L578.18 448.48Z" fill="white"/>
<path d="M604.68 448.48H648.44L635.56 466.36H591.78L604.68 448.48Z" fill="#407BFF"/>
<path opacity="0.6" d="M591.8 466.36H520.54V537.62H591.8V466.36Z" fill="white"/>
<path opacity="0.2" d="M604.68 448.48H648.44L635.56 466.36H591.78L604.68 448.48Z" fill="white"/>
<path d="M792.3 535.86H612.7V715.46H792.3V535.86Z" fill="#407BFF"/>
<path opacity="0.4" d="M792.3 535.86H612.7V715.46H792.3V535.86Z" fill="white"/>
<path d="M612.66 535.86H502.34V715.46H612.66V535.86Z" fill="#407BFF"/>
<path opacity="0.6" d="M612.66 535.86H502.34V715.46H612.66V535.86Z" fill="white"/>
<path opacity="0.5" d="M536.42 535.86V584.1L540.8 586.4L544.58 583.26L550.56 586.4L556.24 583.26L560.64 586.4L565.68 583.26L568.54 585.84V535.86H536.42Z" fill="white"/>
<path opacity="0.5" d="M568.54 715.46V667.22L564.16 664.9L560.38 668.06L554.4 664.9L548.72 668.06L544.32 664.9L539.28 668.06L536.42 665.48V715.46H568.54Z" fill="white"/>
<path d="M686 609.1C687.02 613.2 687.52 615.26 688.54 619.36C688.8 620.46 688.94 621.02 689.22 622.14C690.24 626.24 690.74 628.3 691.76 632.4H718.4C718.26 633.48 718.2 634.02 718.08 635.1H693.54C693.8 636.22 693.92 636.78 694.18 637.88H720L720.84 632.4C721.46 628.3 721.78 626.24 722.4 622.14C722.58 621.02 722.66 620.46 722.82 619.36C723.44 615.26 723.76 613.2 724.38 609.1C724.52 608.26 724.58 607.84 724.7 607H734C734.26 605.9 734.4 605.34 734.68 604.24H721.78C721.54 606.24 721.42 607.14 721.2 609.1H686ZM720 619.36H712.36C712.36 616.36 712.48 614.86 712.58 611.86H720.88C720.44 614.86 720.28 616.36 720 619.36ZM712 629.62C712 626.62 712.14 625.12 712.22 622.14H719.62L718.72 629.62H712ZM702 622.14H709.38C709.38 625.12 709.38 626.62 709.38 629.62H702.64C702.46 626.62 702.32 625.12 702 622.14ZM701.06 611.86H709.36C709.36 614.86 709.36 616.36 709.36 619.36H701.8C701.52 616.36 701.38 614.86 701.12 611.86H701.06ZM691.86 622.14H699.26C699.62 625.12 699.82 626.62 700.2 629.62H693.46L691.86 622.14ZM689.66 611.86H698C698.36 614.86 698.56 616.36 698.92 619.36H691.28L689.66 611.86Z" fill="white"/>
<path d="M718.32 647.08C720.143 647.08 721.62 645.603 721.62 643.78C721.62 641.957 720.143 640.48 718.32 640.48C716.497 640.48 715.02 641.957 715.02 643.78C715.02 645.603 716.497 647.08 718.32 647.08Z" fill="white"/>
<path d="M694.9 647.08C696.723 647.08 698.2 645.603 698.2 643.78C698.2 641.957 696.723 640.48 694.9 640.48C693.077 640.48 691.6 641.957 691.6 643.78C691.6 645.603 693.077 647.08 694.9 647.08Z" fill="white"/>
<g opacity="0.5">
<path d="M533.18 609.1C534.2 613.2 534.7 615.26 535.72 619.36C535.98 620.46 536.12 621.02 536.4 622.14C537.42 626.24 537.92 628.3 538.94 632.4H565.58C565.44 633.48 565.38 634.02 565.26 635.1H540.76C541.02 636.22 541.14 636.78 541.4 637.88H567.14L567.98 632.4C568.6 628.3 568.92 626.24 569.54 622.14C569.7 621.02 569.8 620.46 569.96 619.36C570.58 615.26 570.9 613.2 571.52 609.1L571.84 607H581.16C581.42 605.9 581.56 605.34 581.84 604.24H568.94C568.7 606.24 568.58 607.14 568.36 609.1H533.18ZM567.18 619.36H559.54L559.76 611.86H568C567.66 614.86 567.48 616.36 567.14 619.36H567.18ZM559.18 629.62C559.28 626.62 559.32 625.12 559.4 622.14H566.8L565.9 629.62H559.18ZM549.28 622.14H556.66C556.66 625.12 556.66 626.62 556.66 629.62H550C549.68 626.62 549.54 625.12 549.28 622.14ZM548.32 611.86H556.64C556.64 614.86 556.64 616.36 556.64 619.36H549L548.32 611.86ZM539.14 622.14H546.54L547.46 629.62H540.74L539.14 622.14ZM536.94 611.86H545.26C545.62 614.86 545.82 616.36 546.18 619.36H538.54L536.94 611.86Z" fill="white"/>
<path d="M565.54 647.08C567.362 647.08 568.84 645.603 568.84 643.78C568.84 641.957 567.362 640.48 565.54 640.48C563.717 640.48 562.24 641.957 562.24 643.78C562.24 645.603 563.717 647.08 565.54 647.08Z" fill="white"/>
<path d="M542.12 647.08C543.942 647.08 545.42 645.603 545.42 643.78C545.42 641.957 543.942 640.48 542.12 640.48C540.297 640.48 538.82 641.957 538.82 643.78C538.82 645.603 540.297 647.08 542.12 647.08Z" fill="white"/>
</g>
<path d="M726.72 392.94C726.72 392.94 732.96 437.72 738.56 445.44C744.16 453.16 769.32 474.52 769.32 474.52L785.22 472.2L795.88 482.2L788.16 487.54L779.66 483.74C774.866 484.272 770.034 484.386 765.22 484.08C757.1 483.58 725.38 462.08 719.54 450.86C713.7 439.64 707.1 398.1 707.1 398.1L726.72 392.94Z" fill="#CE7A63"/>
<path d="M732 405.88L730.4 406.16C729.3 395.64 724.9 363.68 712.84 371.88C701.26 379.78 704.52 402.2 706.2 410.58L704.2 410.92L705.96 416.44L732.62 411.34L732 405.88Z" fill="#407BFF"/>
<path opacity="0.2" d="M722 384.74L719.06 378.42L709.84 387.7L704.54 395.7C704.687 400.707 705.263 405.691 706.26 410.6L704.26 410.94L706.02 416.46L721.06 413.58C722.736 404.06 723.052 394.349 722 384.74Z" fill="black"/>
<path d="M722.92 304.38C722.92 304.38 754.72 311.26 737.82 326.38L723.82 314.16L722.92 304.38Z" fill="#263238"/>
<path d="M767.06 640.16L746.82 689.74L732.78 684.28L744.1 635L767.06 640.16Z" fill="#CE7A63"/>
<path opacity="0.2" d="M745.1 631.5L737.12 666.24L754.42 670.1L768.06 636.64L745.1 631.5Z" fill="black"/>
<path d="M750 688.58C752.58 694.44 754.32 699.26 764.88 705.52C767.18 706.84 763.28 712.92 757.54 710.34C748.06 706.06 750.54 705.98 742.42 702.46C735.6 699.44 730.52 697.62 724.96 695.3C724.816 695.24 724.681 695.159 724.56 695.06C724.087 694.706 723.774 694.179 723.688 693.595C723.602 693.01 723.75 692.416 724.1 691.94L732.3 680.72C732.48 680.469 732.742 680.287 733.041 680.207C733.34 680.127 733.658 680.153 733.94 680.28L747.22 686C748.429 686.494 749.417 687.411 750 688.58Z" fill="#263238"/>
<path d="M812.36 523.64C809.78 555.64 763.82 661.42 763.82 661.42L736.54 653.82C736.54 653.82 757.38 552.2 770.98 535.38C770.98 535.38 766.54 535.38 759.4 535.52C734.54 535.74 676.92 535.7 660.3 531.28C648.44 528.12 623.66 521.78 630.3 482.1L661.02 481.04L696.8 479.8C696.8 479.8 816 480 812.36 523.64Z" fill="#263238"/>
<path opacity="0.2" d="M759.4 535.52C734.54 535.74 676.92 535.7 660.3 531.28C648.44 528.12 623.66 521.78 630.3 482.1L661.02 481.04C685.2 483.9 716.8 488.68 738.34 497.94C748.82 502.44 756.1 510.56 758.24 520.12C758.976 525.221 759.364 530.366 759.4 535.52Z" fill="black"/>
<path d="M719.62 638.4L709.5 688.94L694.28 688.24L696.08 637.7L719.62 638.4Z" fill="#CE7A63"/>
<path opacity="0.2" d="M719.62 638.4L696.08 637.7L695.04 667.92L713.58 668.58L719.62 638.4Z" fill="black"/>
<path d="M711.82 690.14C714.3 696.14 715.82 701.18 726.48 707.86C728.76 709.34 724.6 715.44 718.86 712.6C709.34 707.94 711.88 707.96 703.7 704.1C696.8 700.84 691.7 698.82 686.12 696.28L685.7 696.08C685.463 695.896 685.265 695.667 685.117 695.406C684.969 695.145 684.875 694.858 684.839 694.56C684.804 694.262 684.828 693.96 684.911 693.672C684.993 693.383 685.132 693.114 685.32 692.88L694.02 681.66C694.207 681.411 694.475 681.234 694.778 681.161C695.081 681.088 695.4 681.123 695.68 681.26L709 687.48C710.238 687.985 711.243 688.934 711.82 690.14Z" fill="#263238"/>
<path d="M612.34 482C612.34 482 603.64 513.26 618.02 525.6C638.12 542.86 710.74 537.6 710.74 537.6C698.2 577.74 692.6 657.48 692.6 657.48H719.82C719.82 657.48 756.9 548.4 751.42 520.2C745.94 492 648.66 482.02 648.66 482.02L612.34 482Z" fill="#263238"/>
<path d="M734.12 656.98L765 664.76L771.3 651.54L737.38 641.92L734.12 656.98Z" fill="#407BFF"/>
<path d="M689.9 661.36L721.4 662.98L724.66 649.12L689.9 647.5V661.36Z" fill="#407BFF"/>
<path d="M704.34 438.78C712.34 415.2 722.34 397.26 723.5 377.16C696.12 337.64 642.58 361 642.58 361C610.18 421.8 612.34 482 612.34 482C685.96 482 690.18 480.74 690.18 480.74C690.18 480.74 690.44 470.4 704.34 438.78Z" fill="#407BFF"/>
<path opacity="0.2" d="M679.62 359.84C680.8 366.8 683.26 379.36 686.18 381.18C690.18 383.62 696.18 380.2 696.18 380.2C696.18 380.2 701.04 386.78 706.18 382.4C709.066 379.636 711.318 376.279 712.78 372.56C711.267 375.137 709.357 377.459 707.12 379.44C701.92 383.8 697.12 377.24 697.12 377.24C697.12 377.24 691.12 380.64 687.12 378.22C684.48 376.64 681.4 366.7 679.62 359.84Z" fill="black"/>
<path d="M686.22 350.24L693.52 352.74L687.8 357.76L686.22 350.24Z" fill="#407BFF"/>
<path opacity="0.2" d="M686.22 350.24L693.52 352.74L687.8 357.76L686.22 350.24Z" fill="black"/>
<path d="M709.42 357.76L711.42 363.76C711.42 363.76 700.98 374.68 697.98 374.8C694.98 374.92 686.18 354.26 686.18 354.26C697.8 349 696.72 343.22 696.72 343.22L709.42 357.76Z" fill="#CE7A63"/>
<path opacity="0.2" d="M705.62 369.34C708.7 366.52 711.46 363.66 711.46 363.66L709.46 357.66L698.16 344.6C696.68 350.38 695.24 362.26 705.62 369.34Z" fill="black"/>
<path d="M715.38 368C713.5 372.4 710.721 376.358 707.22 379.62C702 383.98 697.22 377.44 697.22 377.44C697.22 377.44 691.22 380.82 687.22 378.4C683.22 375.98 678 353.78 678 353.78L686.22 350.24L697.54 374.24L712.8 361.62L715.38 368Z" fill="#407BFF"/>
<path d="M696.32 322.94C696.303 319.389 697.221 315.896 698.982 312.812C700.742 309.728 703.283 307.161 706.349 305.37C709.415 303.578 712.899 302.625 716.45 302.606C720.001 302.587 723.495 303.502 726.58 305.26C741.1 313.08 741.5 335.92 737.18 349.26C736.136 352.764 734.152 355.915 731.443 358.37C728.733 360.825 725.403 362.491 721.813 363.186C718.224 363.88 714.512 363.578 711.083 362.311C707.653 361.044 704.636 358.861 702.36 356C695.24 347.24 696.16 338.26 696.36 322.84L696.32 322.94Z" fill="#CE7A63"/>
<path d="M723.36 332.5C724.2 332.5 724.72 333.72 724.5 334.94C724.28 336.16 723.54 336.94 722.72 336.94C721.9 336.94 721.38 335.72 721.58 334.5C721.78 333.28 722.52 332.44 723.36 332.5Z" fill="#263238"/>
<path d="M737.22 335.1C738.08 335.1 738.6 336.28 738.4 337.52C738.2 338.76 737.42 339.52 736.58 339.52C735.74 339.52 735.26 338.32 735.44 337.08C735.62 335.84 736.38 335 737.22 335.1Z" fill="#263238"/>
<path d="M719.64 329.58C720.357 329.027 721.195 328.652 722.086 328.489C722.977 328.325 723.893 328.377 724.76 328.64C724.938 328.698 725.131 328.684 725.299 328.602C725.467 328.52 725.596 328.376 725.66 328.2C725.715 328.017 725.7 327.82 725.619 327.646C725.538 327.473 725.396 327.335 725.22 327.26C724.105 326.925 722.925 326.867 721.782 327.09C720.639 327.313 719.568 327.811 718.66 328.54C718.555 328.61 718.472 328.709 718.423 328.825C718.374 328.941 718.361 329.069 718.384 329.193C718.408 329.317 718.467 329.431 718.555 329.522C718.644 329.612 718.757 329.674 718.88 329.7C719.003 329.765 719.143 329.789 719.28 329.767C719.417 329.745 719.543 329.68 719.64 329.58Z" fill="#263238"/>
<path d="M740.72 333.48C740.882 333.377 740.997 333.215 741.042 333.029C741.087 332.842 741.057 332.645 740.96 332.48C740.392 331.456 739.591 330.581 738.621 329.924C737.652 329.267 736.541 328.848 735.38 328.7C735.226 328.705 735.078 328.76 734.958 328.858C734.839 328.956 734.755 329.09 734.72 329.24C734.696 329.333 734.691 329.43 734.706 329.526C734.72 329.621 734.754 329.712 734.804 329.794C734.854 329.876 734.921 329.947 734.999 330.003C735.077 330.059 735.166 330.099 735.26 330.12C736.198 330.263 737.091 330.621 737.868 331.165C738.645 331.71 739.286 332.427 739.74 333.26C739.794 333.366 739.873 333.456 739.971 333.522C740.069 333.589 740.182 333.629 740.3 333.64C740.452 333.628 740.598 333.572 740.72 333.48Z" fill="#263238"/>
<path d="M729 348.74C729.942 349.169 730.965 349.391 732 349.391C733.035 349.391 734.058 349.169 735 348.74C733.164 345.009 731.82 341.056 731 336.98L729 348.74Z" fill="#BA4D3C"/>
<path d="M695.36 332.92C689.36 311.12 699.06 305.44 709.54 301.52C720.02 297.6 725.84 301.36 729.18 305.04C730.22 306.2 732.3 309.68 725.58 310.14C721.511 310.297 717.437 309.982 713.44 309.2C712.641 309.06 711.819 309.143 711.064 309.44C710.309 309.736 709.651 310.234 709.16 310.88C706.84 313.92 703.16 319.6 703.16 324.56C703.3 326.447 703.025 328.341 702.355 330.11C701.684 331.879 700.635 333.48 699.28 334.8L695.36 332.92Z" fill="#263238"/>
<path d="M687.8 442.48C688.322 442.484 688.831 442.643 689.263 442.936C689.695 443.229 690.03 443.644 690.227 444.128C690.423 444.612 690.471 445.143 690.365 445.655C690.259 446.166 690.004 446.634 689.632 447.001C689.26 447.367 688.788 447.615 688.275 447.713C687.762 447.811 687.232 447.755 686.751 447.551C686.27 447.348 685.861 447.006 685.574 446.57C685.287 446.134 685.136 445.622 685.14 445.1C685.14 444.751 685.21 444.405 685.345 444.083C685.48 443.762 685.679 443.47 685.928 443.226C686.178 442.982 686.474 442.79 686.799 442.662C687.124 442.534 687.471 442.472 687.82 442.48H687.8Z" fill="#407BFF"/>
<path d="M682 470.4C682.347 470.4 682.69 470.468 683.01 470.601C683.331 470.734 683.622 470.928 683.867 471.173C684.112 471.418 684.306 471.71 684.439 472.03C684.572 472.35 684.64 472.693 684.64 473.04C684.64 473.387 684.572 473.73 684.439 474.05C684.306 474.371 684.112 474.662 683.867 474.907C683.622 475.152 683.331 475.346 683.01 475.479C682.69 475.612 682.347 475.68 682 475.68C681.298 475.675 680.627 475.392 680.132 474.894C679.637 474.396 679.36 473.722 679.36 473.02C679.36 472.674 679.428 472.332 679.561 472.013C679.694 471.694 679.889 471.404 680.134 471.16C680.38 470.917 680.671 470.724 680.991 470.594C681.311 470.463 681.654 470.397 682 470.4Z" fill="#407BFF"/>
<path d="M695.52 328C699.76 328.76 701.8 334.74 701.84 338.66C701.88 342.58 698.84 346.04 695.1 343.54C692.261 341.58 690.263 338.624 689.5 335.26C688.68 331.04 691.3 327.16 695.52 328Z" fill="#CE7A63"/>
<path d="M714.88 348.52C719.475 349.817 723.936 351.552 728.2 353.7C726.885 355.108 725.125 356.02 723.216 356.283C721.307 356.545 719.366 356.141 717.72 355.14C717.082 354.914 716.498 354.559 716.004 354.097C715.51 353.634 715.117 353.074 714.85 352.452C714.583 351.83 714.448 351.16 714.453 350.483C714.458 349.806 714.604 349.138 714.88 348.52Z" fill="#263238"/>
<path d="M721.02 354C719.183 353.019 717.082 352.648 715.02 352.94C715.652 353.954 716.581 354.75 717.68 355.22C719.516 356.205 721.618 356.576 723.68 356.28C723.063 355.252 722.13 354.452 721.02 354Z" fill="#A02724"/>
<path d="M715.36 348.64C715.29 349.034 715.331 349.439 715.48 349.81C715.628 350.181 715.878 350.503 716.2 350.74C719.03 352.05 721.968 353.114 724.98 353.92C725.443 354.094 725.942 354.149 726.431 354.079C726.921 354.009 727.385 353.817 727.78 353.52C723.773 351.573 719.62 349.942 715.36 348.64Z" fill="white"/>
<path d="M730.676 495.36L766.875 495.556L766.907 489.736L730.707 489.54L730.676 495.36Z" fill="#263238"/>
<path d="M733.654 495.383L687.654 495.134C687.297 495.133 686.944 495.06 686.614 494.922C686.285 494.783 685.986 494.581 685.735 494.327C685.484 494.073 685.285 493.773 685.15 493.442C685.015 493.111 684.947 492.757 684.949 492.4L684.966 489.32L733.685 489.583L733.653 495.403L733.654 495.383Z" fill="#263238"/>
<path opacity="0.3" d="M733.654 495.383L687.654 495.134C687.297 495.133 686.944 495.06 686.614 494.922C686.285 494.783 685.986 494.581 685.735 494.327C685.484 494.073 685.285 493.773 685.15 493.442C685.015 493.111 684.947 492.757 684.949 492.4L684.966 489.32L733.685 489.583L733.653 495.403L733.654 495.383Z" fill="white"/>
<path d="M720.545 493.439L726.365 493.471L726.376 491.411L720.556 491.379L720.545 493.439Z" fill="#263238"/>
<path d="M711.464 493.428L717.284 493.46L717.295 491.4L711.475 491.368L711.464 493.428Z" fill="#263238"/>
<path d="M740.56 489.64L736.7 489.62L752.1 437.18L755.96 437.2L740.56 489.64Z" fill="#263238"/>
<path opacity="0.3" d="M740.56 489.64L736.7 489.62L752.1 437.18L755.96 437.2L740.56 489.64Z" fill="white"/>
<path d="M739.14 489.64L807.08 490L822.48 437.54L754.54 437.18L739.14 489.64Z" fill="#263238"/>
<path opacity="0.6" d="M739.14 489.64L807.08 490L822.48 437.54L754.54 437.18L739.14 489.64Z" fill="white"/>
<path d="M735.82 489.62L806.54 490C807.72 490 808.68 491.32 808.68 492.92C808.68 494.52 807.7 495.82 806.5 495.82L735.78 495.44C734.6 495.44 733.64 494.12 733.64 492.52C733.64 490.92 734.62 489.62 735.82 489.62Z" fill="#263238"/>
<path opacity="0.5" d="M735.82 489.62L806.54 490C807.72 490 808.68 491.32 808.68 492.92C808.68 494.52 807.7 495.82 806.5 495.82L735.78 495.44C734.6 495.44 733.64 494.12 733.64 492.52C733.64 490.92 734.62 489.62 735.82 489.62Z" fill="white"/>
<path d="M733.64 492.52C733.64 494.12 734.6 495.42 735.78 495.44C736.96 495.46 737.94 494.14 737.96 492.54C737.98 490.94 737 489.62 735.82 489.62C734.64 489.62 733.66 490.92 733.64 492.52Z" fill="#263238"/>
<path opacity="0.3" d="M733.64 492.52C733.64 494.12 734.6 495.42 735.78 495.44C736.96 495.46 737.94 494.14 737.96 492.54C737.98 490.94 737 489.62 735.82 489.62C734.64 489.62 733.66 490.92 733.64 492.52Z" fill="white"/>
<path opacity="0.2" d="M666.86 441.06C663.6 436.58 660.14 419.98 657.72 406.26L660.86 405.66L660.12 399.98L658.48 400.28C657.34 389.56 652.9 357.32 640.88 364.28C637.38 371.08 634.3 377.92 631.62 384.68C631.382 391.438 631.959 398.2 633.34 404.82L631.34 405.18L633.18 410.92L637.44 410.12C639.98 423.36 643.68 440.12 647.12 446.76C651.64 455.48 671.12 470.04 684.16 477.12C698.82 474.52 702.16 472.68 702.16 472.68C701.741 472.129 701.398 471.523 701.14 470.88L698.78 471.22C698.78 471.22 672.68 449.08 666.86 441.06Z" fill="black"/>
<path d="M663.28 386.76C663.28 386.76 667.56 433.5 673 441.78C678.44 450.06 703.5 473.46 703.5 473.46L720.1 471.82L730.66 482.8L722.4 488L713.76 483.62C708.76 483.95 703.74 483.836 698.76 483.28C690.38 482.36 658.52 458.6 653 446.6C647.48 434.6 642.66 391.26 642.66 391.26L663.28 386.76Z" fill="#CE7A63"/>
<path d="M667 396.84L665.34 397.14C664.2 386.22 659.62 353.02 647.12 361.54C635.12 369.74 638.46 393.02 640.22 401.72L638.22 402.08L640.06 407.82L667.74 402.52L667 396.84Z" fill="#407BFF"/>
<path d="M262.44 557.12L257.66 556.86L258.78 535.18C259.238 527.994 262.394 521.246 267.616 516.287C272.838 511.329 279.74 508.526 286.94 508.44C290.431 508.406 293.892 509.091 297.107 510.454C300.321 511.817 303.22 513.829 305.623 516.362C308.025 518.896 309.879 521.898 311.069 525.18C312.259 528.463 312.76 531.955 312.54 535.44L311.4 557.12L306.62 556.86L307.76 535.18C307.951 532.341 307.552 529.494 306.589 526.817C305.625 524.14 304.119 521.691 302.163 519.625C300.208 517.559 297.846 515.919 295.226 514.81C292.606 513.701 289.785 513.146 286.94 513.18C280.961 513.254 275.232 515.585 270.9 519.706C266.568 523.827 263.953 529.433 263.58 535.4L262.44 557.12Z" fill="#263238"/>
<path d="M364.98 547.48H223.64L218.84 715.18L239.8 710.38L260.76 715.18H369.78L364.98 547.48Z" fill="#407BFF"/>
<path opacity="0.6" d="M364.98 547.48H223.64L218.84 715.18L239.8 710.38L260.76 715.18H369.78L364.98 547.48Z" fill="white"/>
<path d="M260.76 715.18L239.8 710.38L218.84 715.18L223.64 547.48H255.98L260.76 715.18Z" fill="#407BFF"/>
<path opacity="0.3" d="M260.76 715.18L239.8 710.38L218.84 715.18L223.64 547.48H255.98L260.76 715.18Z" fill="white"/>
<path d="M335.06 557.12L334 535.44C333.627 529.469 331.009 523.861 326.673 519.739C322.337 515.618 316.602 513.289 310.62 513.22C307.777 513.189 304.958 513.746 302.341 514.856C299.723 515.967 297.364 517.607 295.41 519.673C293.457 521.739 291.952 524.186 290.99 526.862C290.028 529.538 289.63 532.383 289.82 535.22L290.96 556.9L286.18 557.16L285.04 535.48C284.817 531.996 285.315 528.504 286.503 525.222C287.691 521.94 289.543 518.938 291.944 516.403C294.345 513.869 297.242 511.858 300.456 510.494C303.669 509.131 307.129 508.445 310.62 508.48C317.822 508.562 324.726 511.363 329.949 516.322C335.172 521.282 338.326 528.032 338.78 535.22L339.92 556.9L335.06 557.12Z" fill="#263238"/>
<g opacity="0.2">
<path d="M335.06 557.12L334 535.44C333.627 529.469 331.009 523.861 326.673 519.739C322.337 515.618 316.602 513.289 310.62 513.22C307.777 513.189 304.958 513.746 302.341 514.856C299.723 515.967 297.364 517.607 295.41 519.673C293.457 521.739 291.952 524.186 290.99 526.862C290.028 529.538 289.63 532.383 289.82 535.22L290.96 556.9L286.18 557.16L285.04 535.48C284.817 531.996 285.315 528.504 286.503 525.222C287.691 521.94 289.543 518.938 291.944 516.403C294.345 513.869 297.242 511.858 300.456 510.494C303.669 509.131 307.129 508.445 310.62 508.48C317.822 508.562 324.726 511.363 329.949 516.322C335.172 521.282 338.326 528.032 338.78 535.22L339.92 556.9L335.06 557.12Z" fill="white"/>
</g>
<path d="M345.88 608.72H280.16C278.68 608.72 277.48 609.92 277.48 611.4V622.02C277.48 623.5 278.68 624.7 280.16 624.7H345.88C347.36 624.7 348.56 623.5 348.56 622.02V611.4C348.56 609.92 347.36 608.72 345.88 608.72Z" fill="white"/>
<path d="M197.48 609.22L194.26 609.04L195.02 594.52C195.308 589.688 197.416 585.145 200.919 581.806C204.422 578.466 209.06 576.577 213.9 576.52C216.232 576.497 218.543 576.953 220.691 577.861C222.84 578.768 224.778 580.107 226.387 581.795C227.996 583.483 229.241 585.483 230.045 587.672C230.849 589.861 231.194 592.192 231.06 594.52L230.3 609.06L227.1 608.88L227.86 594.36C227.981 592.456 227.708 590.548 227.057 588.755C226.406 586.962 225.391 585.323 224.077 583.941C222.762 582.558 221.176 581.463 219.418 580.723C217.66 579.983 215.767 579.614 213.86 579.64C209.854 579.687 206.014 581.247 203.11 584.007C200.206 586.766 198.452 590.522 198.2 594.52L197.48 609.22Z" fill="#263238"/>
<path d="M266.22 602.76H171.46L168.26 715.18L182.3 711.96L196.36 715.18H269.44L266.22 602.76Z" fill="#407BFF"/>
<path d="M196.36 715.18L182.3 711.96L168.26 715.18L171.46 602.76H193.14L196.36 715.18Z" fill="#407BFF"/>
<path opacity="0.2" d="M196.36 715.18L182.3 711.96L168.26 715.18L171.46 602.76H193.14L196.36 715.18Z" fill="black"/>
<path d="M246.16 609.22L245.4 594.68C245.121 590.688 243.355 586.946 240.453 584.192C237.55 581.437 233.721 579.87 229.72 579.8C227.811 579.768 225.916 580.133 224.155 580.871C222.394 581.609 220.805 582.704 219.49 584.088C218.174 585.471 217.159 587.113 216.51 588.908C215.862 590.704 215.592 592.615 215.72 594.52L216.48 609.04L213.28 609.22L212.5 594.68C212.369 592.353 212.716 590.023 213.521 587.835C214.326 585.648 215.571 583.649 217.179 581.961C218.788 580.274 220.725 578.935 222.872 578.027C225.019 577.118 227.329 576.66 229.66 576.68C234.5 576.737 239.138 578.626 242.641 581.966C246.144 585.305 248.252 589.848 248.54 594.68L249.3 609.2L246.16 609.22Z" fill="#263238"/>
<g opacity="0.2">
<path d="M246.16 609.22L245.4 594.68C245.121 590.688 243.355 586.946 240.453 584.192C237.55 581.437 233.721 579.87 229.72 579.8C227.811 579.768 225.916 580.133 224.155 580.871C222.394 581.609 220.805 582.704 219.49 584.088C218.174 585.471 217.159 587.113 216.51 588.908C215.862 590.704 215.592 592.615 215.72 594.52L216.48 609.04L213.28 609.22L212.5 594.68C212.369 592.353 212.716 590.023 213.521 587.835C214.326 585.648 215.571 583.649 217.179 581.961C218.788 580.274 220.725 578.935 222.872 578.027C225.019 577.118 227.329 576.66 229.66 576.68C234.5 576.737 239.138 578.626 242.641 581.966C246.144 585.305 248.252 589.848 248.54 594.68L249.3 609.2L246.16 609.22Z" fill="white"/>
</g>
<path d="M252.52 643.82H210.24C208.76 643.82 207.56 645.02 207.56 646.5V651.84C207.56 653.32 208.76 654.52 210.24 654.52H252.52C254 654.52 255.2 653.32 255.2 651.84V646.5C255.2 645.02 254 643.82 252.52 643.82Z" fill="white"/>
<path d="M343.36 704.2L328.14 702.62L328.9 667.06L344.12 668.64L343.36 704.2Z" fill="#B55B52"/>
<path d="M472.12 653.2L458.5 660.14L438.02 630.78L451.66 623.84L472.12 653.2Z" fill="#B55B52"/>
<path d="M455.66 658.24L469.66 648.24C469.898 648.066 470.192 647.984 470.486 648.01C470.781 648.035 471.055 648.167 471.26 648.38L480.74 658.38C480.97 658.637 481.144 658.94 481.249 659.269C481.355 659.598 481.39 659.946 481.352 660.289C481.314 660.633 481.205 660.964 481.03 661.262C480.856 661.561 480.621 661.819 480.34 662.02C475.4 665.42 472.84 666.8 466.68 671.2C462.9 673.9 457.64 678.24 452.42 681.96C447.2 685.68 443.22 680.72 445.06 678.7C453.32 669.64 452.8 665.64 454.12 660.54C454.343 659.614 454.889 658.799 455.66 658.24Z" fill="#263238"/>
<path d="M326.84 700.7L343.94 702.48C344.234 702.504 344.508 702.636 344.711 702.85C344.914 703.064 345.031 703.345 345.04 703.64L345.58 717.38C345.582 717.726 345.511 718.069 345.371 718.386C345.232 718.702 345.027 718.986 344.77 719.218C344.513 719.45 344.211 719.626 343.881 719.733C343.552 719.84 343.204 719.877 342.86 719.84C336.86 719.1 334.08 718.46 326.56 717.68C321.92 717.18 308.56 716.28 302.2 715.68C295.84 715.08 296.2 708.66 298.86 708.36C311.04 707.04 319.84 704.36 324.2 701.42C324.968 700.877 325.903 700.622 326.84 700.7Z" fill="#263238"/>
<g opacity="0.2">
<path d="M328.9 667.06L328.5 685.4L343.74 686.98L344.12 668.66L328.9 667.06Z" fill="black"/>
<path d="M451.66 623.86L438.02 630.8L448.58 645.92L462.22 638.98L451.66 623.86Z" fill="black"/>
</g>
<path d="M336.18 359.86C336.18 359.86 320.4 477.32 320 524C319.52 572.56 325.68 681.56 325.68 681.56L346.26 683.7C346.26 683.7 354.62 576.5 357.94 528.92C361.58 477.02 381.74 361.32 381.74 361.32L336.18 359.86Z" fill="#263238"/>
<path d="M347.9 684.6L323.74 682.08L322.78 674.2L349.92 676.08L347.9 684.6Z" fill="#407BFF"/>
<path opacity="0.6" d="M362 390C345.76 420.22 356.2 476.6 360.94 497.6C364.68 466.4 370.56 428.3 375.08 400.34C373.32 384.38 369.54 376.1 362 390Z" fill="black"/>
<path d="M352.58 360.38C352.58 360.38 362.8 483.32 372.18 522.98C383.32 570.08 443.68 644.44 443.68 644.44L462.28 634.98C462.28 634.98 421.38 552.34 412.52 527.42C393.58 474.28 413.68 396.6 398.3 361.82L352.58 360.38Z" fill="#263238"/>
<path d="M464.92 634.86L441.84 646.6L435.7 640.6L462.22 625.56L464.92 634.86Z" fill="#407BFF"/>
<path d="M450.28 664.52H450.1C449.749 664.476 449.416 664.34 449.135 664.126C448.854 663.911 448.635 663.626 448.5 663.3C448.389 663.112 448.331 662.898 448.331 662.68C448.331 662.462 448.389 662.248 448.5 662.06C449.48 660.36 455 660.06 455.62 660.06C455.692 660.058 455.763 660.078 455.824 660.118C455.885 660.157 455.932 660.213 455.96 660.28C456.004 660.334 456.028 660.401 456.028 660.47C456.028 660.539 456.004 660.606 455.96 660.66C454.62 662.16 452.2 664.58 450.28 664.52ZM454.78 660.84C452.58 661 449.64 661.52 449.12 662.4C449.071 662.485 449.045 662.582 449.045 662.68C449.045 662.778 449.071 662.875 449.12 662.96C449.209 663.178 449.354 663.368 449.54 663.512C449.726 663.656 449.947 663.748 450.18 663.78C451.22 664 452.92 662.82 454.78 660.84Z" fill="#407BFF"/>
<path d="M455.12 660.8C453.22 660.8 449.76 659.74 449.12 658.28C449.003 658.017 448.981 657.722 449.057 657.445C449.134 657.167 449.305 656.925 449.54 656.76C449.739 656.568 449.98 656.423 450.243 656.336C450.506 656.25 450.785 656.224 451.06 656.26C453.28 656.5 455.84 660.06 455.96 660.26C455.99 660.315 456.005 660.377 456.005 660.44C456.005 660.503 455.99 660.565 455.96 660.62C455.932 660.677 455.89 660.725 455.837 660.76C455.784 660.795 455.723 660.816 455.66 660.82C455.48 660.833 455.299 660.826 455.12 660.8ZM450.86 656.98C450.704 656.967 450.546 656.987 450.398 657.039C450.25 657.09 450.114 657.173 450 657.28C449.66 657.6 449.7 657.82 449.76 657.98C450.2 658.96 453.06 659.98 454.92 660.08C454 658.94 452.28 657.12 450.92 656.98H450.86Z" fill="#407BFF"/>
<path d="M320.86 702.76C319.544 702.744 318.274 702.278 317.26 701.44C317.037 701.199 316.876 700.907 316.793 700.59C316.709 700.273 316.704 699.939 316.78 699.62C316.815 699.422 316.899 699.235 317.025 699.078C317.151 698.921 317.314 698.797 317.5 698.72C319.5 697.9 325.22 701.62 325.86 702.06C325.925 702.097 325.975 702.154 326.004 702.223C326.033 702.292 326.039 702.368 326.02 702.44C326.003 702.515 325.963 702.582 325.906 702.632C325.848 702.683 325.776 702.713 325.7 702.72C324.091 702.885 322.471 702.898 320.86 702.76ZM318.46 699.32C318.235 699.276 318.005 699.276 317.78 699.32C317.705 699.354 317.639 699.407 317.59 699.473C317.541 699.54 317.51 699.618 317.5 699.7C317.444 699.906 317.443 700.123 317.495 700.329C317.548 700.536 317.653 700.726 317.8 700.88C318.64 701.82 321.12 702.22 324.56 702.02C322.69 700.789 320.629 699.876 318.46 699.32Z" fill="#407BFF"/>
<path d="M325.62 702.72C325.62 702.72 325.52 702.72 325.48 702.72C323.76 701.72 320.5 698.06 320.96 696.36C321.08 695.96 321.42 695.48 322.42 695.48C322.794 695.472 323.165 695.542 323.51 695.687C323.854 695.832 324.164 696.047 324.42 696.32C326.16 698.12 326.1 702.32 326.08 702.42C326.082 702.482 326.067 702.543 326.035 702.597C326.003 702.65 325.956 702.693 325.9 702.72C325.81 702.754 325.71 702.754 325.62 702.72ZM322.64 696.16H322.42C321.76 696.16 321.7 696.4 321.66 696.5C321.4 697.52 323.56 700.34 325.3 701.66C325.324 699.916 324.815 698.206 323.84 696.76C323.521 696.428 323.097 696.216 322.64 696.16Z" fill="#407BFF"/>
<path d="M329.62 297.42C323.956 304.986 317.609 312.015 310.66 318.42C306.984 321.87 302.963 324.933 298.66 327.56C296.125 329.115 293.394 330.325 290.54 331.16C288.733 331.682 286.86 331.938 284.98 331.92C283.857 331.908 282.737 331.78 281.64 331.54C281.08 331.4 280.48 331.22 279.92 331.02C279.262 330.79 278.627 330.502 278.02 330.16C276.606 329.397 275.372 328.34 274.4 327.06C273.655 326.114 273.043 325.071 272.58 323.96C271.895 322.35 271.431 320.655 271.2 318.92C270.849 316.235 270.748 313.523 270.9 310.82C271.233 306.039 271.902 301.287 272.9 296.6C274.732 287.561 277.232 278.669 280.38 270L288.66 272.14C287.48 280.84 286.38 289.72 285.72 298.32C285.358 302.49 285.251 306.677 285.4 310.86C285.439 312.645 285.66 314.42 286.06 316.16C286.157 316.642 286.326 317.107 286.56 317.54C286.68 317.74 286.56 317.12 285.4 316.38C284.98 316.18 285.12 316.2 285.02 316.18C285.368 316.101 285.709 315.994 286.04 315.86C287.45 315.284 288.792 314.553 290.04 313.68C293.245 311.392 296.261 308.85 299.06 306.08C302.04 303.18 304.9 300.08 307.72 296.82C310.54 293.56 313.36 290.24 315.94 287.06L329.62 297.42Z" fill="#B55B52"/>
<path d="M326.28 275.4C320.02 273.68 301.44 297.4 301.44 297.4L319.2 317.22C319.2 317.22 340.02 298.42 339.2 290C338.42 281.2 335.44 278 326.28 275.4Z" fill="#407BFF"/>
<path d="M288.88 270L288.18 257.54L276.18 267.42C276.18 267.42 278 277.08 284.06 279L287.8 273.74C288.566 272.648 288.946 271.332 288.88 270Z" fill="#B55B52"/>
<path d="M280.36 247.26L270.76 256.1L276.16 267.38L288.18 257.5L280.36 247.26Z" fill="#B55B52"/>
<path d="M275.48 271.36L272.7 270.36C271.949 270.078 271.321 269.54 270.927 268.842C270.532 268.144 270.395 267.329 270.54 266.54L274.76 244.1L282.34 246.86L280 268.54C279.95 269.052 279.783 269.546 279.511 269.984C279.24 270.421 278.871 270.791 278.435 271.063C277.998 271.336 277.504 271.504 276.992 271.556C276.48 271.607 275.962 271.54 275.48 271.36Z" fill="#263238"/>
<path d="M295.46 242.86C295.94 241.56 296.4 240.28 296.82 239C295.112 236.248 292.826 233.9 290.12 232.12C289.12 234.58 288.12 237.16 287.14 239.82C286.16 242.48 285.28 245.1 284.48 247.64C287.699 248.013 290.96 247.685 294.04 246.68C294.52 245.42 295 244.16 295.46 242.86Z" fill="#263238"/>
<path d="M290.44 241.04C291.622 237.924 292.473 234.693 292.98 231.4L268.12 222.34L261.36 240.92L286.24 250C287.946 247.167 289.354 244.164 290.44 241.04Z" fill="#407BFF"/>
<path opacity="0.6" d="M290.44 241.04C291.622 237.924 292.473 234.693 292.98 231.4L268.12 222.34L261.36 240.92L286.24 250C287.946 247.167 289.354 244.164 290.44 241.04Z" fill="white"/>
<path d="M274.58 222.96C273.46 222.54 246.58 194.96 243.58 193.78C240.58 192.6 233.32 203.56 227.96 218.28C222.6 233 220.92 245.88 224.18 247.08C227.44 248.28 265.54 244.26 266.68 244.66C267.82 245.06 270.86 240.66 273.04 234.66C275.22 228.66 276 223.44 274.58 222.96Z" fill="#407BFF"/>
<path opacity="0.4" d="M274.58 222.96C273.46 222.54 246.58 194.96 243.58 193.78C240.58 192.6 233.32 203.56 227.96 218.28C222.6 233 220.92 245.88 224.18 247.08C227.44 248.28 265.54 244.26 266.68 244.66C267.82 245.06 270.86 240.66 273.04 234.66C275.22 228.66 276 223.44 274.58 222.96Z" fill="white"/>
<path d="M239.8 222.58C234.44 237.3 227.44 248.26 224.18 247.08C220.92 245.9 222.6 233.08 227.96 218.28C233.32 203.48 240.32 192.6 243.58 193.78C246.84 194.96 245.16 207.88 239.8 222.58Z" fill="#407BFF"/>
<path d="M232 219.7C231.64 220.68 231.3 221.7 230.98 222.6C232.826 224.914 235.084 226.867 237.64 228.36C238.4 226.52 239.16 224.58 239.9 222.58C240.64 220.58 241.28 218.58 241.9 216.7C238.983 216.204 236 216.251 233.1 216.84C232.6 217.78 232.24 218.74 232 219.7Z" fill="#263238"/>
<path opacity="0.7" d="M232 219.7C231.64 220.68 231.3 221.7 230.98 222.6C232.826 224.914 235.084 226.867 237.64 228.36C238.4 226.52 239.16 224.58 239.9 222.58C240.64 220.58 241.28 218.58 241.9 216.7C238.983 216.204 236 216.251 233.1 216.84C232.6 217.78 232.24 218.74 232 219.7Z" fill="white"/>
<path opacity="0.2" d="M321.04 289.34C321.96 302.64 318.86 310.56 316.66 314.38L319.2 317.2C319.2 317.2 330.94 306.6 336.46 297.76C330.26 288.56 320 275.36 321.04 289.34Z" fill="black"/>
<path d="M390.96 213.7C399.299 213.7 406.06 206.94 406.06 198.6C406.06 190.261 399.299 183.5 390.96 183.5C382.62 183.5 375.86 190.261 375.86 198.6C375.86 206.94 382.62 213.7 390.96 213.7Z" fill="#263238"/>
<path d="M389.34 205.48C389.344 207.36 388.79 209.198 387.749 210.763C386.707 212.328 385.225 213.549 383.489 214.271C381.754 214.993 379.843 215.184 377.999 214.82C376.155 214.456 374.46 213.552 373.13 212.225C371.799 210.897 370.892 209.204 370.524 207.361C370.156 205.517 370.343 203.606 371.061 201.869C371.78 200.132 372.997 198.647 374.56 197.602C376.123 196.558 377.96 196 379.84 196C382.356 196 384.769 196.998 386.55 198.775C388.331 200.553 389.335 202.964 389.34 205.48Z" fill="#407BFF"/>
<path d="M349.68 193.7C349.68 193.7 329.68 192.06 329.68 226.46C329.68 250.02 341.12 260.92 355.14 253C355.14 253 386.06 250.46 389.62 222.16C393.18 193.86 371.3 183.32 349.68 193.7Z" fill="#263238"/>
<path d="M322.2 276.32C322.2 276.32 315.1 279.4 336.2 367.9L398.2 363.4C395.32 338.24 394.2 322.7 402.46 270.04C393.649 268.88 384.766 268.358 375.88 268.48C366.458 268.48 357.048 269.148 347.72 270.48C335.7 272.52 322.2 276.32 322.2 276.32Z" fill="#407BFF"/>
<path d="M370.76 236.98C369.64 246.18 369.08 262.98 375.86 268.48C375.86 268.48 374.06 277.84 357.22 279.08C338.72 280.42 347.7 270.52 347.7 270.52C357.7 267.38 356.82 259.9 354.56 253L370.76 236.98Z" fill="#B55B52"/>
<path opacity="0.2" d="M364.16 243.52L354.56 253C355.114 254.601 355.528 256.248 355.8 257.92C359.62 257.08 364.6 252.46 364.72 248.4C364.833 246.753 364.643 245.099 364.16 243.52Z" fill="black"/>
<path d="M381.12 221.7C377.66 236.48 376.5 242.82 367.64 249.2C354.32 258.8 336.92 251.3 335.9 235.78C334.98 221.78 340.8 199.98 356.46 196.52C359.905 195.746 363.49 195.865 366.876 196.865C370.262 197.866 373.336 199.716 375.807 202.238C378.277 204.761 380.062 207.873 380.992 211.279C381.922 214.685 381.966 218.272 381.12 221.7Z" fill="#B55B52"/>
<path d="M355.62 221.6C355.42 222.82 354.6 223.6 353.82 223.6C353.04 223.6 352.54 222.36 352.74 221.14C352.94 219.92 353.78 219.14 354.56 219.14C355.34 219.14 355.84 220.38 355.62 221.6Z" fill="#263238"/>
<path d="M341.88 219.26C341.66 220.46 340.86 221.26 340.06 221.26C339.26 221.26 338.78 220.04 339 218.82C339.22 217.6 340.02 216.82 340.82 216.82C341.62 216.82 342 218 341.88 219.26Z" fill="#263238"/>
<path d="M341.16 216.94L338.38 215.58C338.38 215.58 339.48 218.12 341.16 216.94Z" fill="#263238"/>
<path d="M346.72 222.16C345.165 224.755 343.26 227.124 341.06 229.2C341.607 229.745 342.266 230.165 342.991 230.431C343.716 230.697 344.49 230.802 345.26 230.74L346.72 222.16Z" fill="#A02724"/>
<path d="M382.84 236.1C381.347 238.633 378.92 240.478 376.08 241.24C372.32 242.2 370.52 238.8 371.64 235.24C372.64 232.08 375.82 227.78 379.64 228.36C380.457 228.514 381.223 228.869 381.869 229.393C382.514 229.918 383.018 230.595 383.336 231.363C383.654 232.132 383.775 232.967 383.688 233.794C383.602 234.622 383.31 235.414 382.84 236.1Z" fill="#B55B52"/>
<path d="M361.62 219.74C361.466 219.737 361.317 219.686 361.194 219.592C361.072 219.498 360.983 219.368 360.94 219.22C359.96 216.02 355.86 214.66 355.82 214.64C355.729 214.61 355.646 214.562 355.573 214.499C355.501 214.437 355.442 214.361 355.4 214.275C355.357 214.19 355.331 214.097 355.325 214.002C355.318 213.906 355.33 213.811 355.36 213.72C355.39 213.629 355.438 213.546 355.501 213.473C355.563 213.401 355.639 213.342 355.725 213.299C355.81 213.257 355.903 213.231 355.998 213.224C356.094 213.218 356.189 213.23 356.28 213.26C357.614 213.709 358.837 214.435 359.871 215.39C360.905 216.344 361.726 217.506 362.28 218.8C362.308 218.891 362.317 218.986 362.308 219.08C362.299 219.174 362.271 219.266 362.227 219.35C362.182 219.433 362.122 219.507 362.048 219.567C361.975 219.627 361.891 219.673 361.8 219.7C361.743 219.724 361.682 219.738 361.62 219.74Z" fill="#263238"/>
<path d="M338.82 212.2C338.666 212.187 338.519 212.127 338.401 212.027C338.283 211.927 338.2 211.792 338.162 211.642C338.125 211.492 338.135 211.334 338.192 211.19C338.249 211.046 338.35 210.924 338.48 210.84C339.464 210.243 340.578 209.891 341.726 209.815C342.875 209.738 344.025 209.939 345.08 210.4C345.165 210.443 345.241 210.503 345.304 210.576C345.366 210.649 345.413 210.733 345.443 210.824C345.473 210.915 345.484 211.011 345.477 211.106C345.469 211.202 345.443 211.295 345.4 211.38C345.357 211.465 345.297 211.541 345.224 211.604C345.152 211.666 345.067 211.713 344.976 211.743C344.885 211.773 344.789 211.784 344.694 211.777C344.598 211.769 344.505 211.743 344.42 211.7C343.582 211.341 342.67 211.191 341.761 211.26C340.852 211.33 339.974 211.618 339.2 212.1C339.083 212.164 338.953 212.198 338.82 212.2Z" fill="#263238"/>
<path d="M354.9 219.28L352.12 217.94C352.12 217.94 353.24 220.48 354.9 219.28Z" fill="#263238"/>
<path d="M346.46 234.52C351.547 233.462 356.725 232.9 361.92 232.84C360.74 236.34 358.38 239.26 352.52 239.48C351.792 239.581 351.051 239.53 350.343 239.33C349.635 239.131 348.976 238.788 348.408 238.322C347.839 237.857 347.372 237.279 347.037 236.624C346.702 235.97 346.505 235.254 346.46 234.52Z" fill="#263238"/>
<path d="M355.1 236.66C352.847 236.642 350.648 237.343 348.82 238.66C349.933 239.325 351.227 239.626 352.52 239.52C354.773 239.538 356.972 238.837 358.8 237.52C357.692 236.84 356.394 236.538 355.1 236.66Z" fill="#A02724"/>
<path d="M346.98 234.4C347.116 234.816 347.363 235.186 347.694 235.472C348.026 235.757 348.429 235.947 348.86 236.02C352.225 235.841 355.57 235.386 358.86 234.66C359.395 234.595 359.904 234.395 360.341 234.081C360.778 233.766 361.128 233.346 361.36 232.86C356.534 232.999 351.726 233.514 346.98 234.4Z" fill="white"/>
<path d="M338.48 210.84C343.032 208.913 346.993 205.814 349.96 201.86C349.96 201.86 349.96 212.5 354.3 211.68C358.64 210.86 352.12 201.84 352.12 201.84C352.12 201.84 362.12 206.28 365.54 214.96C368.96 223.64 372.86 233.12 380.56 230.76C388.26 228.4 386.56 203.8 375.22 197.66L359.22 194.78L354.5 195.48C352.049 195.829 349.699 196.687 347.6 198C344.436 199.94 341.949 202.811 340.48 206.22L338.48 210.84Z" fill="#263238"/>
<path d="M375.82 212.12C375.08 210.56 371.54 210.7 367.82 212.42C364.1 214.14 364.04 215.76 364.78 217.32C365.52 218.88 366.78 219.78 370.5 218.06C374.22 216.34 376.56 213.68 375.82 212.12ZM367.24 216.12C366.72 215 366.82 213.86 369.42 212.62C372.02 211.38 374.56 211.3 375.08 212.42C375.6 213.54 373.94 215.44 371.34 216.66C368.74 217.88 367.78 217.3 367.24 216.18V216.12Z" fill="#407BFF"/>
<path opacity="0.2" d="M395.6 290.56L390.9 286.56L387.42 288.14C386.212 300.451 389.346 312.796 396.28 323.04C396.58 316.38 397.2 308.88 398.28 299.92C396.8 294.52 395.6 290.56 395.6 290.56Z" fill="black"/>
<path d="M458.96 339.3L456.42 339.56L455.22 328.1C454.858 324.288 455.952 320.481 458.282 317.442C460.612 314.404 464.005 312.36 467.78 311.72C469.605 311.412 471.474 311.483 473.27 311.929C475.067 312.375 476.752 313.187 478.221 314.312C479.69 315.438 480.912 316.854 481.81 318.473C482.708 320.092 483.263 321.878 483.44 323.72L484.66 335.18L482.12 335.46L480.92 323.98C480.773 322.479 480.322 321.023 479.592 319.702C478.863 318.382 477.872 317.224 476.68 316.3C475.485 315.381 474.114 314.719 472.651 314.354C471.189 313.989 469.666 313.93 468.18 314.18C465.046 314.711 462.23 316.409 460.297 318.932C458.364 321.455 457.458 324.616 457.76 327.78L458.96 339.3Z" fill="#263238"/>
<path d="M411.82 288C412.18 289.72 412.66 291.84 413.12 293.78C413.58 295.72 414.12 297.78 414.68 299.78C415.8 303.78 416.98 307.64 418.4 311.42C420.956 318.781 424.589 325.723 429.18 332.02L429.6 332.56L429.8 332.84L429.56 332.6C429.24 332.32 428.865 332.109 428.46 331.98C427.86 331.82 427.88 331.98 428.28 331.98C429.698 331.906 431.095 331.609 432.42 331.1C436.122 329.748 439.707 328.096 443.14 326.16C450.4 322.16 457.74 317.6 464.84 312.98L470.38 319.5C464.152 325.974 457.381 331.902 450.14 337.22C446.301 340.053 442.203 342.518 437.9 344.58C435.248 345.853 432.414 346.703 429.5 347.1C427.267 347.375 425.001 347.128 422.88 346.38C421.466 345.855 420.163 345.068 419.04 344.06C418.76 343.8 418.46 343.52 418.22 343.26L417.9 342.92L417.26 342.22C413.967 338.579 411.083 334.589 408.66 330.32C406.296 326.241 404.231 321.997 402.48 317.62C400.76 313.293 399.264 308.881 398 304.4C397.38 302.2 396.8 299.98 396.28 297.74C395.76 295.5 395.28 293.32 394.88 290.76L411.82 288Z" fill="#B55B52"/>
<path d="M402.44 270C408.78 271.44 419.88 294.36 419.88 294.36L394.96 311.26C394.96 311.26 384.96 294.04 386.96 285.82C389 277.3 395.2 268.4 402.44 270Z" fill="#407BFF"/>
<path d="M463.8 312.88L478.28 304.88L475.24 320.14C475.24 320.14 465.88 323.12 461.24 318.68L463.8 312.88Z" fill="#B55B52"/>
<path d="M490.98 306.94L487.74 319.6L475.24 320.16L478.28 304.9L490.98 306.94Z" fill="#B55B52"/>
<path d="M497.06 333.26L494.66 321.98C493.971 318.879 492.135 316.153 489.519 314.35C486.904 312.547 483.703 311.801 480.56 312.26C479.066 312.479 477.633 313.005 476.352 313.803C475.071 314.602 473.968 315.657 473.114 316.902C472.259 318.147 471.671 319.556 471.387 321.038C471.102 322.521 471.127 324.047 471.46 325.52L473.86 336.8L471.38 337.34L468.98 326.06C468.572 324.25 468.542 322.375 468.892 320.553C469.242 318.731 469.964 317.001 471.014 315.471C472.063 313.941 473.417 312.644 474.991 311.661C476.565 310.678 478.325 310.031 480.16 309.76C483.947 309.204 487.805 310.101 490.958 312.271C494.111 314.441 496.327 317.724 497.16 321.46L499.56 332.74L497.06 333.26Z" fill="#263238"/>
<g opacity="0.3">
<path d="M497.06 333.26L494.66 321.98C493.971 318.879 492.135 316.153 489.519 314.35C486.904 312.547 483.703 311.801 480.56 312.26C479.066 312.479 477.633 313.005 476.352 313.803C475.071 314.602 473.968 315.657 473.114 316.902C472.259 318.147 471.671 319.556 471.387 321.038C471.102 322.521 471.127 324.047 471.46 325.52L473.86 336.8L471.38 337.34L468.98 326.06C468.572 324.25 468.542 322.375 468.892 320.553C469.242 318.731 469.964 317.001 471.014 315.471C472.063 313.941 473.417 312.644 474.991 311.661C476.565 310.678 478.325 310.031 480.16 309.76C483.947 309.204 487.805 310.101 490.958 312.271C494.111 314.441 496.327 317.724 497.16 321.46L499.56 332.74L497.06 333.26Z" fill="white"/>
</g>
<path d="M511.98 325.72L437.8 337.46L449.22 425.86L459.82 421.6L471.22 422.38L528.42 413.32L511.98 325.72Z" fill="#407BFF"/>
<path opacity="0.6" d="M511.98 325.72L437.8 337.46L449.22 425.86L459.82 421.6L471.22 422.38L528.42 413.32L511.98 325.72Z" fill="white"/>
<path d="M471.22 422.38L459.82 421.6L449.22 425.86L437.8 337.46L454.76 334.78L471.22 422.38Z" fill="#407BFF"/>
<path opacity="0.3" d="M471.22 422.38L459.82 421.6L449.22 425.86L437.8 337.46L454.76 334.78L471.22 422.38Z" fill="white"/>
<path d="M504.692 363.798L474.014 368.657C472.367 368.918 471.243 370.465 471.504 372.112L471.548 372.389C471.809 374.036 473.356 375.16 475.003 374.899L505.681 370.041C507.328 369.78 508.452 368.233 508.191 366.585L508.147 366.309C507.886 364.661 506.339 363.537 504.692 363.798Z" fill="white"/>
</svg>
