<svg width="1000" height="738" viewBox="0 0 1000 738" fill="none" xmlns="http://www.w3.org/2000/svg">
<path d="M899.8 686.98H833.56V687.48H899.8V686.98Z" fill="#EBEBEB"/>
<path d="M662.44 692.42H645.06V692.92H662.44V692.42Z" fill="#EBEBEB"/>
<path d="M831.56 668.42H793.18V668.92H831.56V668.42Z" fill="#EBEBEB"/>
<path d="M191.3 671.78H104.92V672.28H191.3V671.78Z" fill="#EBEBEB"/>
<path d="M221.78 671.78H209.12V672.28H221.78V671.78Z" fill="#EBEBEB"/>
<path d="M450.3 680.22H262.94V680.72H450.3V680.22Z" fill="#EBEBEB"/>
<path d="M474 565.6H87.84C84.8113 565.6 81.9066 564.397 79.7649 562.255C77.6232 560.114 76.42 557.209 76.42 554.18V11.32C76.4464 8.30859 77.6612 5.4295 79.8 3.30941C81.9388 1.18932 84.8285 -0.000115452 87.84 8.4051e-09H474C477.029 8.40512e-09 479.934 1.20318 482.075 3.34484C484.217 5.48651 485.42 8.39123 485.42 11.42V554.18C485.42 557.209 484.217 560.114 482.075 562.255C479.934 564.397 477.029 565.6 474 565.6ZM87.84 0.400002C84.9455 0.405288 82.171 1.55748 80.1243 3.60423C78.0775 5.65099 76.9253 8.42546 76.92 11.32V554.18C76.9253 557.075 78.0775 559.849 80.1243 561.896C82.171 563.943 84.9455 565.095 87.84 565.1H474C476.895 565.095 479.669 563.943 481.716 561.896C483.763 559.849 484.915 557.075 484.92 554.18V11.32C484.915 8.42546 483.763 5.65099 481.716 3.60423C479.669 1.55748 476.895 0.405288 474 0.400002H87.84Z" fill="#EBEBEB"/>
<path d="M906.62 565.6H520.42C517.393 565.595 514.491 564.39 512.351 562.249C510.21 560.109 509.005 557.207 509 554.18V11.32C509.032 8.31023 510.248 5.43415 512.386 3.31519C514.523 1.19622 517.41 0.00509658 520.42 0H906.62C909.625 0.010409 912.504 1.2045 914.634 3.32346C916.764 5.44241 917.974 8.3155 918 11.32V554.18C918 557.202 916.802 560.101 914.669 562.241C912.536 564.382 909.642 565.589 906.62 565.6ZM520.42 0.400002C517.525 0.405288 514.751 1.55748 512.704 3.60423C510.657 5.65099 509.505 8.42546 509.5 11.32V554.18C509.505 557.075 510.657 559.849 512.704 561.896C514.751 563.943 517.525 565.095 520.42 565.1H906.62C909.515 565.095 912.289 563.943 914.336 561.896C916.383 559.849 917.535 557.075 917.54 554.18V11.32C917.535 8.42546 916.383 5.65099 914.336 3.60423C912.289 1.55748 909.515 0.405288 906.62 0.400002H520.42Z" fill="#EBEBEB"/>
<path d="M1000 654.8H0V655.3H1000V654.8Z" fill="#EBEBEB"/>
<path d="M510.4 451.66C508.097 451.668 505.843 450.993 503.924 449.719C502.005 448.446 500.507 446.632 499.619 444.507C498.732 442.382 498.494 440.041 498.937 437.781C499.38 435.521 500.484 433.443 502.108 431.811C503.732 430.178 505.804 429.064 508.062 428.609C510.32 428.154 512.662 428.38 514.791 429.257C516.921 430.133 518.743 431.622 520.026 433.534C521.309 435.447 521.996 437.697 522 440C522 443.082 520.78 446.039 518.606 448.224C516.432 450.409 513.482 451.644 510.4 451.66ZM510.4 434.38C509.282 434.372 508.187 434.697 507.254 435.312C506.32 435.928 505.591 436.807 505.159 437.838C504.726 438.869 504.61 440.006 504.825 441.103C505.04 442.2 505.576 443.209 506.365 444.001C507.154 444.793 508.161 445.332 509.257 445.551C510.354 445.77 511.49 445.657 512.523 445.229C513.555 444.8 514.437 444.074 515.056 443.143C515.675 442.212 516.004 441.118 516 440C515.99 438.516 515.397 437.096 514.349 436.045C513.302 434.993 511.884 434.396 510.4 434.38Z" fill="#263238"/>
<path d="M518.467 444.178L514.222 448.418L528.001 462.216L532.246 457.976L518.467 444.178Z" fill="#263238"/>
<path d="M891.25 107.789C896.556 75.1022 874.359 44.3027 841.672 38.9968C808.985 33.691 778.185 55.8879 772.88 88.5751C767.574 121.262 789.771 152.062 822.458 157.368C855.145 162.673 885.944 140.477 891.25 107.789Z" fill="#E0E0E0"/>
<path d="M832.2 159.46C816.131 159.17 800.819 152.583 789.558 141.116C778.297 129.65 771.987 114.221 771.987 98.15C771.987 82.0787 778.297 66.6498 789.558 55.1835C800.819 43.7172 816.131 37.1302 832.2 36.84V39.54C816.843 39.8237 802.211 46.1233 791.451 57.084C780.691 68.0446 774.663 82.7905 774.663 98.15C774.663 113.509 780.691 128.255 791.451 139.216C802.211 150.177 816.843 156.476 832.2 156.76V159.46Z" fill="white"/>
<path d="M832.2 159.46V156.76C839.988 156.904 847.726 155.494 854.963 152.613C862.2 149.733 868.79 145.438 874.349 139.982C879.907 134.525 884.322 128.015 887.336 120.833C890.35 113.65 891.903 105.939 891.903 98.15C891.903 90.3607 890.35 82.6496 887.336 75.4672C884.322 68.2848 879.907 61.775 874.349 56.3183C868.79 50.8616 862.2 46.5674 854.963 43.6866C847.726 40.8058 839.988 39.3961 832.2 39.54V36.84C840.344 36.6929 848.437 38.17 856.004 41.185C863.571 44.2001 870.462 48.6927 876.274 54.4004C882.086 60.1082 886.702 66.9166 889.853 74.4283C893.004 81.9399 894.627 90.0041 894.627 98.15C894.627 106.296 893.004 114.36 889.853 121.872C886.702 129.383 882.086 136.192 876.274 141.9C870.462 147.607 863.571 152.1 856.004 155.115C848.437 158.13 840.344 159.607 832.2 159.46Z" fill="white"/>
<path d="M863.54 98.1601H860.84C860.84 78.3001 850.84 51.7001 831.48 39.3401L832.94 37.0601C853.02 50.0001 863.54 77.5601 863.54 98.1601Z" fill="white"/>
<path d="M832.94 157.44L831.48 155.16C850.76 142.8 860.84 116.2 860.84 96.34H863.54C863.54 116.94 853.02 144.54 832.94 157.44Z" fill="white"/>
<path d="M803.58 98.1601H800.88C800.88 77.5401 811.38 49.9401 831.48 37.0601L832.94 39.3201C813.66 51.7001 803.58 78.2801 803.58 98.1601Z" fill="white"/>
<path d="M831.48 157.42C811.38 144.52 800.88 116.92 800.88 96.3201H803.58C803.58 116.2 813.58 142.78 832.94 155.14L831.48 157.42Z" fill="white"/>
<path d="M833.56 38.1799H830.86V158.1H833.56V38.1799Z" fill="white"/>
<path d="M882.98 64.86H781.46V67.56H882.98V64.86Z" fill="white"/>
<path d="M892.16 97.8201H772.28V100.52H892.16V97.8201Z" fill="white"/>
<path d="M881.62 130.76H782.8V133.46H881.62V130.76Z" fill="white"/>
<path d="M191.18 76C191.202 71.9341 190.608 67.8884 189.42 64L199.88 54.82L193.3 43.42L180.12 48C174.584 42.0492 167.409 37.8732 159.5 36L156.76 22.38H143.62L140.9 36C132.986 37.873 125.803 42.0487 120.26 48L107.08 43.54L100.52 54.94L110.96 64.12C108.613 71.8866 108.613 80.1734 110.96 87.94L100.52 97.1L107.08 108.5L120.26 104C125.803 109.951 132.986 114.127 140.9 116L143.62 129.64H156.76L159.5 116C167.409 114.127 174.584 109.951 180.12 104L193.3 108.46L199.88 97.06L189.42 88C190.605 84.1109 191.198 80.0656 191.18 76ZM150.2 98.16C145.982 98.164 141.859 96.9169 138.35 94.5767C134.841 92.2364 132.105 88.9081 130.489 85.0127C128.872 81.1173 128.447 76.8299 129.267 72.6929C130.088 68.556 132.117 64.7552 135.097 61.7716C138.078 58.7879 141.877 56.7554 146.013 55.9311C150.15 55.1069 154.437 55.5279 158.334 57.141C162.231 58.754 165.562 61.4867 167.906 64.9932C170.249 68.4997 171.5 72.6224 171.5 76.84C171.503 79.6388 170.954 82.4108 169.884 84.9973C168.815 87.5838 167.247 89.9343 165.268 91.9143C163.29 93.8943 160.941 95.4651 158.356 96.5367C155.77 97.6084 152.999 98.16 150.2 98.16Z" fill="#E0E0E0"/>
<path d="M247.58 132.68C247.577 129.611 247.125 126.559 246.24 123.62L254.24 116.62L249.24 107.96L239.24 111.36C235.023 106.844 229.558 103.683 223.54 102.28L221.54 91.9H211.54L209.54 102.28C203.516 103.683 198.045 106.843 193.82 111.36L183.82 107.96L178.8 116.62L186.8 123.62C185.013 129.535 185.013 135.845 186.8 141.76L178.8 148.74L183.82 157.42L193.82 154.02C198.045 158.537 203.516 161.697 209.54 163.1L211.54 173.48H221.54L223.54 163.1C229.558 161.697 235.023 158.536 239.24 154.02L249.24 157.42L254.24 148.74L246.24 141.76C247.125 138.815 247.577 135.756 247.58 132.68ZM216.36 149.54C213.146 149.544 210.004 148.594 207.33 146.811C204.656 145.028 202.572 142.492 201.34 139.524C200.108 136.556 199.785 133.289 200.411 130.137C201.037 126.985 202.584 124.089 204.857 121.817C207.129 119.544 210.025 117.997 213.177 117.371C216.329 116.745 219.596 117.068 222.564 118.3C225.532 119.532 228.068 121.616 229.851 124.29C231.634 126.964 232.584 130.106 232.58 133.32C232.58 137.622 230.871 141.747 227.829 144.789C224.787 147.831 220.662 149.54 216.36 149.54Z" fill="#E0E0E0"/>
<path d="M397.22 81.12L402.52 70.34L407.84 81.1L419.72 82.82L411.12 91.2L413.16 103.02L402.54 97.44L391.94 103.04L393.96 91.22L385.36 82.84L397.22 81.12Z" fill="#EBEBEB"/>
<path d="M445.56 81.12L450.86 70.34L456.18 81.1L468.04 82.82L459.46 91.2L461.5 103.02L450.88 97.44L440.26 103.04L442.28 91.22L433.68 82.84L445.56 81.12Z" fill="#EBEBEB"/>
<path d="M493.88 81.12L499.18 70.34L504.5 81.1L516.38 82.82L507.8 91.2L509.84 103.02L499.22 97.44L488.6 103.04L490.62 91.22L482.02 82.84L493.88 81.12Z" fill="#EBEBEB"/>
<path d="M542.22 81.12L547.52 70.34L552.84 81.1L564.72 82.82L556.12 91.2L558.16 103.02L547.54 97.44L536.94 103.04L538.96 91.22L530.36 82.84L542.22 81.12Z" fill="#EBEBEB"/>
<path d="M590.56 81.12L595.86 70.34L601.18 81.1L613.04 82.82L604.46 91.2L606.5 103.02L595.88 97.44L585.26 103.04L587.28 91.22L578.68 82.84L590.56 81.12Z" fill="#EBEBEB"/>
<path d="M490.36 737.42C704.525 737.42 878.14 727.284 878.14 714.78C878.14 702.276 704.525 692.14 490.36 692.14C276.195 692.14 102.58 702.276 102.58 714.78C102.58 727.284 276.195 737.42 490.36 737.42Z" fill="#F5F5F5"/>
<path d="M359.32 694.86L358.92 699.46C358.878 700.026 358.939 700.596 359.1 701.14C359.174 701.393 359.281 701.636 359.42 701.86C359.567 702.083 359.727 702.296 359.9 702.5C360.076 702.705 360.278 702.886 360.5 703.04C361.178 703.522 361.989 703.78 362.82 703.78H527.62C528.014 703.78 528.405 703.72 528.78 703.6C529.041 703.521 529.295 703.421 529.54 703.3C530.41 702.874 531.114 702.17 531.54 701.3C531.795 700.815 531.951 700.285 532 699.74L532.38 695.32C532.443 694.793 532.381 694.259 532.2 693.76C532.124 693.53 532.024 693.308 531.9 693.1C531.59 692.576 531.148 692.142 530.62 691.84C530.395 691.717 530.161 691.61 529.92 691.52C529.552 691.4 529.167 691.34 528.78 691.34H487.74C487.223 691.346 486.707 691.299 486.2 691.2L485.62 691.04C485.4 690.978 485.186 690.897 484.98 690.8C484.78 690.737 484.591 690.642 484.42 690.52C484.132 690.37 483.858 690.196 483.6 690C483.289 689.753 483.002 689.478 482.74 689.18C482.6 689 482.46 688.84 482.32 688.64L482.04 688.24L481.94 688.08C481.82 687.897 481.72 687.703 481.64 687.5L481.4 686.96C481.409 686.92 481.409 686.88 481.4 686.84C481.412 686.794 481.412 686.746 481.4 686.7C481.341 686.545 481.301 686.384 481.28 686.22C481.259 685.994 481.259 685.766 481.28 685.54C481.28 685.34 481.28 685.12 481.28 684.9C481.28 684.68 481.28 684.48 481.28 684.26V684C481.269 683.787 481.269 683.573 481.28 683.36C481.28 683.12 481.38 682.92 481.42 682.7L497.54 620.86L500.64 608.98L503.06 599.68H409.46L404.44 608.98L398.04 620.86L361.64 688.34C361.52 688.58 361.4 688.82 361.26 689.06L360.9 689.88C360.8 690.16 360.68 690.42 360.58 690.72L360.4 691.28C359.909 692.43 359.547 693.63 359.32 694.86Z" fill="#263238"/>
<path opacity="0.2" d="M532.32 695.36L531.94 699.82C531.837 700.901 531.34 701.906 530.543 702.644C529.746 703.382 528.706 703.8 527.62 703.82H362.86C362.307 703.822 361.759 703.709 361.252 703.488C360.744 703.267 360.288 702.944 359.912 702.538C359.536 702.132 359.249 701.652 359.067 701.129C358.886 700.606 358.816 700.052 358.86 699.5L359.26 694.9C359.365 693.67 359.606 692.456 359.98 691.28C360.319 690.251 360.747 689.254 361.26 688.3L409.1 599.64H502.7L481.06 682.66C480.917 683.135 480.83 683.625 480.8 684.12C480.663 685.76 481.13 687.393 482.114 688.712C483.097 690.03 484.529 690.944 486.14 691.28C486.645 691.397 487.162 691.45 487.68 691.44H528.66C529.167 691.426 529.671 691.521 530.138 691.716C530.606 691.912 531.027 692.205 531.373 692.576C531.719 692.946 531.982 693.386 532.146 693.866C532.309 694.346 532.368 694.855 532.32 695.36Z" fill="white"/>
<path d="M356 688.26L403.82 599.58H409.12L361.28 688.26C360.171 690.301 359.491 692.547 359.28 694.86L358.88 699.46C358.819 700.014 358.879 700.574 359.054 701.103C359.229 701.632 359.517 702.117 359.896 702.525C360.276 702.933 360.739 703.255 361.254 703.468C361.768 703.681 362.323 703.781 362.88 703.76H357.58C357.023 703.781 356.468 703.681 355.954 703.468C355.439 703.255 354.976 702.933 354.596 702.525C354.217 702.117 353.929 701.632 353.754 701.103C353.579 700.574 353.519 700.014 353.58 699.46L353.98 694.86C354.188 692.544 354.876 690.296 356 688.26Z" fill="#263238"/>
<path opacity="0.3" d="M409.16 599.58H502.74L497.22 620.78H397.72L409.16 599.58Z" fill="black"/>
<path d="M250.36 305.76V594.3C250.357 596.216 250.733 598.114 251.464 599.886C252.196 601.657 253.269 603.267 254.623 604.623C255.977 605.979 257.586 607.054 259.356 607.788C261.126 608.522 263.024 608.9 264.94 608.9H664.28C666.196 608.9 668.094 608.522 669.864 607.788C671.634 607.054 673.243 605.979 674.597 604.623C675.951 603.267 677.024 601.657 677.756 599.886C678.487 598.114 678.863 596.216 678.86 594.3V305.76C678.863 303.842 678.487 301.942 677.754 300.17C677.021 298.397 675.946 296.787 674.59 295.43C673.233 294.074 671.623 292.999 669.85 292.266C668.078 291.533 666.178 291.157 664.26 291.16H264.98C261.768 291.163 258.647 292.224 256.1 294.18C255.742 294.445 255.401 294.732 255.08 295.04C254.096 295.932 253.247 296.963 252.56 298.1C252.077 298.849 251.675 299.647 251.36 300.48C250.71 302.165 250.371 303.954 250.36 305.76Z" fill="#263238"/>
<path d="M678.86 563.1V594.3C678.86 598.172 677.322 601.886 674.584 604.624C671.846 607.362 668.132 608.9 664.26 608.9H264.98C261.108 608.9 257.394 607.362 254.656 604.624C251.918 601.886 250.38 598.172 250.38 594.3V563.1H678.86Z" fill="#407BFF"/>
<path opacity="0.6" d="M678.86 563.1V594.3C678.86 598.172 677.322 601.886 674.584 604.624C671.846 607.362 668.132 608.9 664.26 608.9H264.98C261.108 608.9 257.394 607.362 254.656 604.624C251.918 601.886 250.38 598.172 250.38 594.3V563.1H678.86Z" fill="white"/>
<path d="M265.24 554.28H664C666.122 554.28 668.157 553.437 669.657 551.937C671.157 550.437 672 548.402 672 546.28V308C672 305.878 671.157 303.843 669.657 302.343C668.157 300.843 666.122 300 664 300H265.24C263.118 300 261.083 300.843 259.583 302.343C258.083 303.843 257.24 305.878 257.24 308V546.36C257.261 548.468 258.113 550.482 259.611 551.965C261.109 553.448 263.132 554.28 265.24 554.28Z" fill="#407BFF"/>
<path d="M256.14 291.16H264.98C261.108 291.16 257.394 292.698 254.656 295.436C251.918 298.174 250.38 301.888 250.38 305.76V594.3C250.38 598.172 251.918 601.886 254.656 604.624C257.394 607.362 261.108 608.9 264.98 608.9H256.14C252.268 608.9 248.554 607.362 245.816 604.624C243.078 601.886 241.54 598.172 241.54 594.3V305.76C241.54 301.888 243.078 298.174 245.816 295.436C248.554 292.698 252.268 291.16 256.14 291.16Z" fill="#263238"/>
<g opacity="0.2">
<path d="M256.14 291.16H264.98C261.108 291.16 257.394 292.698 254.656 295.436C251.918 298.174 250.38 301.888 250.38 305.76V594.3C250.38 598.172 251.918 601.886 254.656 604.624C257.394 607.362 261.108 608.9 264.98 608.9H256.14C252.268 608.9 248.554 607.362 245.816 604.624C243.078 601.886 241.54 598.172 241.54 594.3V305.76C241.54 301.888 243.078 298.174 245.816 295.436C248.554 292.698 252.268 291.16 256.14 291.16Z" fill="white"/>
</g>
<path opacity="0.5" d="M674.36 451.84C664.08 449.84 647.8 456.5 644.76 466.5C645.102 463.447 644.558 460.36 643.192 457.608C641.827 454.855 639.698 452.555 637.06 450.98C631.76 447.92 624.82 445.76 619.94 449.44C622.253 439.611 621.784 429.332 618.583 419.756C615.383 410.179 609.578 401.683 601.82 395.22C586.18 382.56 563.36 381.22 545.3 390.04C547.91 385.025 549.391 379.5 549.638 373.852C549.886 368.204 548.894 362.57 546.733 357.346C544.571 352.122 541.293 347.434 537.127 343.612C532.962 339.789 528.01 336.925 522.62 335.22C497.5 326.471 470.637 323.926 444.32 327.8C429.1 330.04 413.58 334.8 402.52 345.48C391.46 356.16 388.52 375.48 395.96 388.94C387.375 386.167 378.194 385.799 369.415 387.876C360.636 389.952 352.593 394.395 346.16 400.72C339.958 407.198 335.663 415.261 333.747 424.023C331.831 432.784 332.368 441.904 335.3 450.38C332.94 448.979 330.268 448.191 327.526 448.086C324.784 447.981 322.06 448.563 319.6 449.78C317.177 451.009 315.108 452.834 313.586 455.084C312.063 457.334 311.139 459.934 310.9 462.64C307.702 458.419 303.537 455.028 298.755 452.753C293.974 450.477 288.716 449.383 283.423 449.564C278.131 449.744 272.959 451.193 268.343 453.789C263.728 456.385 259.803 460.051 256.9 464.48V554.28H672L674.36 451.84Z" fill="white"/>
<path d="M581.86 412.42H368.02C357.14 412.42 348.32 421.24 348.32 432.12C348.32 443 357.14 451.82 368.02 451.82H581.86C592.74 451.82 601.56 443 601.56 432.12C601.56 421.24 592.74 412.42 581.86 412.42Z" fill="white"/>
<path d="M366.8 439.66C364.498 439.66 362.247 438.977 360.333 437.698C358.419 436.419 356.927 434.601 356.046 432.474C355.165 430.348 354.935 428.007 355.384 425.749C355.833 423.491 356.941 421.417 358.569 419.789C360.197 418.161 362.271 417.053 364.529 416.604C366.787 416.155 369.128 416.385 371.254 417.266C373.381 418.147 375.199 419.639 376.478 421.553C377.757 423.467 378.44 425.718 378.44 428.02C378.435 431.106 377.207 434.063 375.025 436.245C372.843 438.427 369.886 439.655 366.8 439.66ZM366.8 422.38C365.685 422.38 364.594 422.711 363.667 423.331C362.739 423.95 362.016 424.831 361.589 425.862C361.162 426.892 361.051 428.026 361.268 429.12C361.486 430.214 362.023 431.219 362.812 432.008C363.601 432.797 364.606 433.334 365.7 433.552C366.794 433.769 367.928 433.658 368.958 433.231C369.989 432.804 370.87 432.081 371.49 431.153C372.109 430.226 372.44 429.136 372.44 428.02C372.435 426.526 371.839 425.094 370.782 424.038C369.726 422.981 368.294 422.385 366.8 422.38Z" fill="#263238"/>
<path d="M374.856 432.156L370.611 436.396L384.39 450.194L388.635 445.955L374.856 432.156Z" fill="#263238"/>
<g opacity="0.1">
<path d="M536.94 299.98H552.26L584.08 554.28H568.74L536.94 299.98Z" fill="white"/>
<path d="M599.58 554.28L567.78 299.98H625.4L657.2 554.28H599.58Z" fill="white"/>
</g>
<path opacity="0.2" d="M387.74 695.4L387.38 699.62C387.32 700.149 387.374 700.684 387.537 701.19C387.701 701.696 387.971 702.162 388.328 702.556C388.686 702.949 389.124 703.262 389.612 703.473C390.1 703.685 390.628 703.789 391.16 703.78H527.62C528.706 703.76 529.746 703.342 530.543 702.604C531.34 701.866 531.837 700.861 531.94 699.78L532.32 695.36C532.384 694.852 532.337 694.336 532.182 693.848C532.028 693.359 531.771 692.91 531.427 692.53C531.083 692.15 530.662 691.849 530.191 691.647C529.721 691.445 529.212 691.347 528.7 691.36H487.72C487.208 691.362 486.698 691.301 486.2 691.18H392.2C391.07 691.219 389.993 691.67 389.172 692.447C388.351 693.224 387.842 694.274 387.74 695.4Z" fill="white"/>
<path opacity="0.2" d="M360 691.24H486.2C484.587 690.912 483.152 690 482.17 688.678C481.188 687.357 480.729 685.719 480.88 684.08H364L360 691.24Z" fill="black"/>
<path d="M424.54 388.78L427.3 382.64C430.717 385.003 434.766 386.285 438.92 386.32C443.74 386.32 445.7 384.7 445.7 382.54C445.7 375.96 425.24 380.54 425.24 367.42C425.24 361.42 430.06 356.46 440.06 356.46C444.341 356.371 448.566 357.45 452.28 359.58L449.76 365.76C446.802 364.008 443.438 363.057 440 363C435.18 363 433.32 364.8 433.32 367C433.32 373.48 453.78 369 453.78 381.92C453.78 387.8 448.9 392.84 438.84 392.84C433.772 392.967 428.785 391.551 424.54 388.78Z" fill="#263238"/>
<path d="M486.62 385.72V392.24H459.38V357.06H486V363.6H467.5V371.24H483.84V377.58H467.5V385.72H486.62Z" fill="#263238"/>
<path d="M490.8 374.66C490.8 364.2 498.94 356.46 510.04 356.46C521.14 356.46 529.3 364.16 529.3 374.66C529.3 385.16 521.1 392.86 510.04 392.86C498.98 392.86 490.8 385.12 490.8 374.66ZM521.06 374.66C520.997 372.497 520.299 370.4 519.052 368.631C517.805 366.863 516.066 365.5 514.049 364.714C512.033 363.927 509.83 363.752 507.715 364.209C505.6 364.667 503.667 365.737 502.156 367.286C500.645 368.835 499.623 370.795 499.219 372.921C498.814 375.047 499.045 377.244 499.881 379.24C500.718 381.236 502.124 382.941 503.923 384.143C505.723 385.345 507.836 385.991 510 386C511.489 386.047 512.972 385.783 514.353 385.226C515.735 384.669 516.986 383.831 518.026 382.764C519.066 381.698 519.873 380.426 520.395 379.031C520.918 377.636 521.144 376.147 521.06 374.66Z" fill="#263238"/>
<path opacity="0.8" d="M464.44 477.68H380.04C375.788 477.68 372.34 481.127 372.34 485.38V503.22C372.34 507.473 375.788 510.92 380.04 510.92H464.44C468.693 510.92 472.14 507.473 472.14 503.22V485.38C472.14 481.127 468.693 477.68 464.44 477.68Z" fill="white"/>
<path opacity="0.8" d="M586.84 477.68H502.44C498.187 477.68 494.74 481.127 494.74 485.38V503.22C494.74 507.473 498.187 510.92 502.44 510.92H586.84C591.093 510.92 594.54 507.473 594.54 503.22V485.38C594.54 481.127 591.093 477.68 586.84 477.68Z" fill="white"/>
<path d="M419.84 311.32L469.42 223.32C469.595 223.012 469.847 222.756 470.153 222.578C470.459 222.4 470.806 222.306 471.16 222.306C471.514 222.306 471.861 222.4 472.167 222.578C472.473 222.756 472.726 223.012 472.9 223.32L522.48 311.32C522.646 311.624 522.731 311.965 522.725 312.311C522.72 312.657 522.625 312.995 522.45 313.294C522.274 313.592 522.025 313.839 521.725 314.012C521.425 314.185 521.086 314.277 520.74 314.28H421.6C421.252 314.281 420.911 314.191 420.608 314.02C420.306 313.848 420.053 313.601 419.876 313.302C419.698 313.003 419.601 312.663 419.595 312.316C419.589 311.968 419.673 311.625 419.84 311.32Z" fill="#407BFF"/>
<path opacity="0.3" d="M419.84 311.32L469.42 223.32C469.595 223.012 469.847 222.756 470.153 222.578C470.459 222.4 470.806 222.306 471.16 222.306C471.514 222.306 471.861 222.4 472.167 222.578C472.473 222.756 472.726 223.012 472.9 223.32L522.48 311.32C522.646 311.624 522.731 311.965 522.725 312.311C522.72 312.657 522.625 312.995 522.45 313.294C522.274 313.592 522.025 313.839 521.725 314.012C521.425 314.185 521.086 314.277 520.74 314.28H421.6C421.252 314.281 420.911 314.191 420.608 314.02C420.306 313.848 420.053 313.601 419.876 313.302C419.698 313.003 419.601 312.663 419.595 312.316C419.589 311.968 419.673 311.625 419.84 311.32Z" fill="black"/>
<path d="M447.6 327.46L445.18 317.58H436.5L434.1 327.46C438.422 329.25 443.278 329.25 447.6 327.46Z" fill="#263238"/>
<path opacity="0.2" d="M436.5 317.58L435.94 319.88C439.139 320.82 442.541 320.82 445.74 319.88L445.18 317.58H436.5Z" fill="white"/>
<path opacity="0.4" d="M435.34 322.36C435.18 323 435.02 323.62 434.88 324.22C438.786 325.448 442.974 325.448 446.88 324.22L446.44 322.36C442.777 323.101 439.003 323.101 435.34 322.36Z" fill="white"/>
<path d="M450 316.88C444.134 319.302 437.547 319.302 431.68 316.88V243.48C431.674 239.371 432.48 235.302 434.052 231.506C435.624 227.71 437.931 224.262 440.84 221.36C443.749 224.262 446.056 227.71 447.628 231.506C449.2 235.302 450.006 239.371 450 243.48V316.88Z" fill="#407BFF"/>
<path d="M431.68 243.48V312.66C437.611 314.73 444.069 314.73 450 312.66V243.48C450.006 239.371 449.2 235.302 447.628 231.506C446.056 227.71 443.749 224.262 440.84 221.36C437.931 224.262 435.624 227.71 434.052 231.506C432.48 235.302 431.674 239.371 431.68 243.48Z" fill="#407BFF"/>
<path opacity="0.4" d="M431.68 243.48V312.66C437.611 314.73 444.069 314.73 450 312.66V243.48C450.006 239.371 449.2 235.302 447.628 231.506C446.056 227.71 443.749 224.262 440.84 221.36C437.931 224.262 435.624 227.71 434.052 231.506C432.48 235.302 431.674 239.371 431.68 243.48Z" fill="white"/>
<path d="M431.68 243.48V295.48C437.667 297.191 444.013 297.191 450 295.48V243.48C450.006 239.371 449.2 235.302 447.628 231.506C446.056 227.71 443.749 224.262 440.84 221.36C437.931 224.262 435.624 227.71 434.052 231.506C432.48 235.302 431.674 239.371 431.68 243.48Z" fill="#407BFF"/>
<path opacity="0.6" d="M431.68 243.48V295.48C437.667 297.191 444.013 297.191 450 295.48V243.48C450.006 239.371 449.2 235.302 447.628 231.506C446.056 227.71 443.749 224.262 440.84 221.36C437.931 224.262 435.624 227.71 434.052 231.506C432.48 235.302 431.674 239.371 431.68 243.48Z" fill="white"/>
<path d="M431.68 243.48V270.68C437.666 272.4 444.015 272.4 450 270.68V243.48C450.006 239.371 449.2 235.302 447.628 231.506C446.056 227.71 443.749 224.262 440.84 221.36C437.931 224.262 435.624 227.71 434.052 231.506C432.48 235.302 431.674 239.371 431.68 243.48Z" fill="#407BFF"/>
<path opacity="0.8" d="M431.68 243.48V270.68C437.666 272.4 444.015 272.4 450 270.68V243.48C450.006 239.371 449.2 235.302 447.628 231.506C446.056 227.71 443.749 224.262 440.84 221.36C437.931 224.262 435.624 227.71 434.052 231.506C432.48 235.302 431.674 239.371 431.68 243.48Z" fill="white"/>
<path d="M431.68 243.48V246.66C437.667 248.371 444.013 248.371 450 246.66V243.48C450.006 239.371 449.2 235.302 447.628 231.506C446.056 227.71 443.749 224.262 440.84 221.36C437.931 224.262 435.624 227.71 434.052 231.506C432.48 235.302 431.674 239.371 431.68 243.48Z" fill="#407BFF"/>
<path opacity="0.4" d="M431.68 243.48V246.66C437.667 248.371 444.013 248.371 450 246.66V243.48C450.006 239.371 449.2 235.302 447.628 231.506C446.056 227.71 443.749 224.262 440.84 221.36C437.931 224.262 435.624 227.71 434.052 231.506C432.48 235.302 431.674 239.371 431.68 243.48Z" fill="white"/>
<path d="M506.54 327.46L504.14 317.58H495.46L493.04 327.46C497.362 329.25 502.218 329.25 506.54 327.46Z" fill="#263238"/>
<path opacity="0.2" d="M495.46 317.58L494.9 319.88C498.099 320.82 501.501 320.82 504.7 319.88L504.14 317.58H495.46Z" fill="white"/>
<path opacity="0.4" d="M494.28 322.36C494.14 323 493.98 323.62 493.84 324.22C497.746 325.448 501.934 325.448 505.84 324.22L505.38 322.36C501.717 323.101 497.943 323.101 494.28 322.36Z" fill="white"/>
<path d="M508.96 316.88C503.094 319.302 496.506 319.302 490.64 316.88V243.48C490.634 239.371 491.44 235.302 493.012 231.506C494.584 227.71 496.891 224.262 499.8 221.36C502.709 224.262 505.016 227.71 506.588 231.506C508.16 235.302 508.966 239.371 508.96 243.48V316.88Z" fill="#407BFF"/>
<path d="M490.64 243.48V312.66C496.571 314.73 503.029 314.73 508.96 312.66V243.48C508.966 239.371 508.16 235.302 506.588 231.506C505.016 227.71 502.709 224.262 499.8 221.36C496.891 224.262 494.584 227.71 493.012 231.506C491.44 235.302 490.634 239.371 490.64 243.48Z" fill="#407BFF"/>
<path opacity="0.4" d="M490.64 243.48V312.66C496.571 314.73 503.029 314.73 508.96 312.66V243.48C508.966 239.371 508.16 235.302 506.588 231.506C505.016 227.71 502.709 224.262 499.8 221.36C496.891 224.262 494.584 227.71 493.012 231.506C491.44 235.302 490.634 239.371 490.64 243.48Z" fill="white"/>
<path d="M490.64 243.48V295.48C496.627 297.191 502.973 297.191 508.96 295.48V243.48C508.966 239.371 508.16 235.302 506.588 231.506C505.016 227.71 502.709 224.262 499.8 221.36C496.891 224.262 494.584 227.71 493.012 231.506C491.44 235.302 490.634 239.371 490.64 243.48Z" fill="#407BFF"/>
<path opacity="0.6" d="M490.64 243.48V295.48C496.627 297.191 502.973 297.191 508.96 295.48V243.48C508.966 239.371 508.16 235.302 506.588 231.506C505.016 227.71 502.709 224.262 499.8 221.36C496.891 224.262 494.584 227.71 493.012 231.506C491.44 235.302 490.634 239.371 490.64 243.48Z" fill="white"/>
<path d="M490.64 243.48V270.68C496.626 272.4 502.975 272.4 508.96 270.68V243.48C508.966 239.371 508.16 235.302 506.588 231.506C505.016 227.71 502.709 224.262 499.8 221.36C496.891 224.262 494.584 227.71 493.012 231.506C491.44 235.302 490.634 239.371 490.64 243.48Z" fill="#407BFF"/>
<path opacity="0.8" d="M490.64 243.48V270.68C496.626 272.4 502.975 272.4 508.96 270.68V243.48C508.966 239.371 508.16 235.302 506.588 231.506C505.016 227.71 502.709 224.262 499.8 221.36C496.891 224.262 494.584 227.71 493.012 231.506C491.44 235.302 490.634 239.371 490.64 243.48Z" fill="white"/>
<path d="M490.64 243.48V246.66C496.627 248.371 502.973 248.371 508.96 246.66V243.48C508.966 239.371 508.16 235.302 506.588 231.506C505.016 227.71 502.709 224.262 499.8 221.36C496.891 224.262 494.584 227.71 493.012 231.506C491.44 235.302 490.634 239.371 490.64 243.48Z" fill="#407BFF"/>
<path opacity="0.4" d="M490.64 243.48V246.66C496.627 248.371 502.973 248.371 508.96 246.66V243.48C508.966 239.371 508.16 235.302 506.588 231.506C505.016 227.71 502.709 224.262 499.8 221.36C496.891 224.262 494.584 227.71 493.012 231.506C491.44 235.302 490.634 239.371 490.64 243.48Z" fill="white"/>
<path d="M481.22 333.12L477.22 317.12H463.22L459.32 333.12C462.787 334.575 466.51 335.324 470.27 335.324C474.03 335.324 477.753 334.575 481.22 333.12Z" fill="#263238"/>
<path opacity="0.2" d="M463.32 317.18C463.32 317.18 462.74 319.58 462.4 320.9C467.572 322.41 473.068 322.41 478.24 320.9L477.32 317.16L463.32 317.18Z" fill="white"/>
<path opacity="0.4" d="M461.42 324.92L460.7 327.92C466.967 329.861 473.674 329.861 479.94 327.92L479.22 324.92C473.343 326.079 467.297 326.079 461.42 324.92Z" fill="white"/>
<path d="M485.12 316C480.431 317.956 475.401 318.963 470.32 318.963C465.239 318.963 460.209 317.956 455.52 316V197.56C455.514 190.928 456.818 184.36 459.358 178.233C461.898 172.107 465.623 166.542 470.32 161.86C475.017 166.542 478.743 172.107 481.282 178.233C483.822 184.36 485.126 190.928 485.12 197.56V316Z" fill="#407BFF"/>
<path d="M455.52 197.56V309.26C465.107 312.581 475.533 312.581 485.12 309.26V197.56C485.126 190.928 483.822 184.36 481.282 178.233C478.743 172.107 475.017 166.542 470.32 161.86C465.623 166.542 461.898 172.107 459.358 178.233C456.818 184.36 455.514 190.928 455.52 197.56Z" fill="#407BFF"/>
<path opacity="0.4" d="M455.52 197.56V309.26C465.107 312.581 475.533 312.581 485.12 309.26V197.56C485.126 190.928 483.822 184.36 481.282 178.233C478.743 172.107 475.017 166.542 470.32 161.86C465.623 166.542 461.898 172.107 459.358 178.233C456.818 184.36 455.514 190.928 455.52 197.56Z" fill="white"/>
<path d="M455.52 197.56V281.44C465.194 284.197 475.446 284.197 485.12 281.44V197.56C485.126 190.928 483.822 184.36 481.282 178.233C478.743 172.107 475.017 166.542 470.32 161.86C465.623 166.542 461.898 172.107 459.358 178.233C456.818 184.36 455.514 190.928 455.52 197.56Z" fill="#407BFF"/>
<path opacity="0.6" d="M455.52 197.56V281.44C465.194 284.197 475.446 284.197 485.12 281.44V197.56C485.126 190.928 483.822 184.36 481.282 178.233C478.743 172.107 475.017 166.542 470.32 161.86C465.623 166.542 461.898 172.107 459.358 178.233C456.818 184.36 455.514 190.928 455.52 197.56Z" fill="white"/>
<path d="M455.52 197.56V241.56C465.194 244.317 475.446 244.317 485.12 241.56V197.56C485.126 190.928 483.822 184.36 481.282 178.233C478.743 172.107 475.017 166.542 470.32 161.86C465.623 166.542 461.898 172.107 459.358 178.233C456.818 184.36 455.514 190.928 455.52 197.56Z" fill="#407BFF"/>
<path opacity="0.8" d="M455.52 197.56V241.56C465.194 244.317 475.446 244.317 485.12 241.56V197.56C485.126 190.928 483.822 184.36 481.282 178.233C478.743 172.107 475.017 166.542 470.32 161.86C465.623 166.542 461.898 172.107 459.358 178.233C456.818 184.36 455.514 190.928 455.52 197.56Z" fill="white"/>
<path d="M455.52 197.56V202.7C465.194 205.457 475.446 205.457 485.12 202.7V197.56C485.126 190.928 483.822 184.36 481.282 178.233C478.743 172.107 475.017 166.542 470.32 161.86C465.623 166.542 461.898 172.107 459.358 178.233C456.818 184.36 455.514 190.928 455.52 197.56Z" fill="#407BFF"/>
<path opacity="0.1" d="M455.52 197.56V202.7C465.194 205.457 475.446 205.457 485.12 202.7V197.56C485.126 190.928 483.822 184.36 481.282 178.233C478.743 172.107 475.017 166.542 470.32 161.86C465.623 166.542 461.898 172.107 459.358 178.233C456.818 184.36 455.514 190.928 455.52 197.56Z" fill="white"/>
<path d="M478.94 221.26C478.944 222.966 478.442 224.634 477.497 226.054C476.552 227.475 475.207 228.583 473.633 229.238C472.058 229.894 470.324 230.067 468.651 229.737C466.977 229.406 465.439 228.587 464.232 227.382C463.024 226.178 462.201 224.642 461.867 222.969C461.533 221.296 461.702 219.562 462.354 217.986C463.006 216.41 464.111 215.062 465.529 214.114C466.947 213.166 468.614 212.66 470.32 212.66C472.603 212.66 474.792 213.565 476.408 215.178C478.024 216.79 478.935 218.977 478.94 221.26Z" fill="#407BFF"/>
<path d="M470.32 229.88C468.141 229.885 466.043 229.061 464.449 227.575C462.856 226.09 461.887 224.054 461.74 221.88C461.74 222.1 461.74 222.32 461.74 222.52C461.74 224.806 462.648 226.999 464.265 228.615C465.881 230.232 468.074 231.14 470.36 231.14C472.646 231.14 474.839 230.232 476.455 228.615C478.072 226.999 478.98 224.806 478.98 222.52C478.98 222.32 478.98 222.1 478.98 221.88C478.827 224.066 477.846 226.111 476.237 227.597C474.627 229.084 472.511 229.901 470.32 229.88Z" fill="#407BFF"/>
<path opacity="0.3" d="M470.32 229.88C468.141 229.885 466.043 229.061 464.449 227.575C462.856 226.09 461.887 224.054 461.74 221.88C461.74 222.1 461.74 222.32 461.74 222.52C461.74 224.806 462.648 226.999 464.265 228.615C465.881 230.232 468.074 231.14 470.36 231.14C472.646 231.14 474.839 230.232 476.455 228.615C478.072 226.999 478.98 224.806 478.98 222.52C478.98 222.32 478.98 222.1 478.98 221.88C478.827 224.066 477.846 226.111 476.237 227.597C474.627 229.084 472.511 229.901 470.32 229.88Z" fill="black"/>
<path d="M470.32 227.36C473.689 227.36 476.42 224.629 476.42 221.26C476.42 217.891 473.689 215.16 470.32 215.16C466.951 215.16 464.22 217.891 464.22 221.26C464.22 224.629 466.951 227.36 470.32 227.36Z" fill="white"/>
<path d="M470 227.32L472.5 215.6C471.862 215.349 471.185 215.213 470.5 215.2L468 226.9C468.636 227.159 469.313 227.302 470 227.32Z" fill="#407BFF"/>
<path d="M472.28 227.02L474.44 216.8C474.162 216.546 473.861 216.318 473.54 216.12L471.16 227.28C471.54 227.224 471.914 227.137 472.28 227.02Z" fill="#407BFF"/>
<g opacity="0.7">
<path d="M470 227.32L472.5 215.6C471.862 215.349 471.185 215.213 470.5 215.2L468 226.9C468.636 227.159 469.313 227.302 470 227.32Z" fill="white"/>
<path d="M472.28 227.02L474.44 216.8C474.162 216.546 473.861 216.318 473.54 216.12L471.16 227.28C471.54 227.224 471.914 227.137 472.28 227.02Z" fill="white"/>
</g>
<path d="M691.14 452.52L688.84 453.02C687.81 453.228 686.871 453.752 686.154 454.519C685.437 455.287 684.978 456.259 684.84 457.3L684.64 458.92C684.536 459.728 684.631 460.55 684.916 461.314C685.202 462.077 685.67 462.759 686.28 463.3C690.06 466.6 698.98 472.72 709.78 468.78L718.4 462.28L716.98 450.64L698.98 448.04C697.891 448.08 696.846 448.473 696 449.16L691.14 452.52Z" fill="#FAB27B"/>
<path d="M718.46 462.28L742.4 461.08L738.7 448.06L717.04 450.64L718.46 462.28Z" fill="#FAB27B"/>
<path d="M732.72 448.16C731.739 449.997 731.401 452.109 731.76 454.16C732.195 457.482 733.53 460.622 735.62 463.24C731.586 463.3 727.619 464.278 724.02 466.1L723.82 466.2C711.34 457.68 718.54 447.58 718.54 447.58L719.36 447.7C723.786 448.313 728.263 448.467 732.72 448.16Z" fill="#407BFF"/>
<path d="M781.74 458.9C759.5 464.02 731.84 463.52 731.84 463.52C730.929 461.983 730.516 460.201 730.66 458.42C730.86 454.7 731.36 450.04 732.66 448.16C733.96 446.28 743.58 445.28 743.58 445.28C743.58 445.28 762.16 436.66 765.68 433.84C769.2 431.02 769.06 417.84 768.4 409.18C764.86 362.64 773.04 359.18 780.4 357.04C796 352.7 801.42 454.36 781.74 458.9Z" fill="#407BFF"/>
<path d="M629.36 468.88H691.52C693.52 468.88 694.46 467.24 693.52 465.22L678 430.16C677.516 429.138 676.771 428.262 675.84 427.62C674.91 426.977 673.827 426.591 672.7 426.5H610.52C608.52 426.5 607.58 428.14 608.52 430.16L624.12 465.22C624.598 466.235 625.333 467.106 626.252 467.748C627.172 468.391 628.243 468.781 629.36 468.88Z" fill="#407BFF"/>
<path opacity="0.2" d="M629.36 468.88H691.52C693.52 468.88 694.46 467.24 693.52 465.22L678 430.16C677.516 429.138 676.771 428.262 675.84 427.62C674.91 426.977 673.827 426.591 672.7 426.5H610.52C608.52 426.5 607.58 428.14 608.52 430.16L624.12 465.22C624.598 466.235 625.333 467.106 626.252 467.748C627.172 468.391 628.243 468.781 629.36 468.88Z" fill="black"/>
<path d="M607.82 426.5H610.52C608.52 426.5 607.58 428.14 608.52 430.16L624.12 465.22C624.601 466.24 625.342 467.115 626.269 467.758C627.196 468.4 628.276 468.787 629.4 468.88H626.72C625.593 468.789 624.51 468.403 623.58 467.76C622.649 467.118 621.904 466.242 621.42 465.22L605.84 430.16C604.9 428.14 605.8 426.5 607.82 426.5Z" fill="#407BFF"/>
<path opacity="0.4" d="M607.82 426.5H610.52C608.52 426.5 607.58 428.14 608.52 430.16L624.12 465.22C624.601 466.24 625.342 467.115 626.269 467.758C627.196 468.4 628.276 468.787 629.4 468.88H626.72C625.593 468.789 624.51 468.403 623.58 467.76C622.649 467.118 621.904 466.242 621.42 465.22L605.84 430.16C604.9 428.14 605.8 426.5 607.82 426.5Z" fill="black"/>
<path d="M630.52 464.86H686.78L671.52 430.52H615.26L630.52 464.86Z" fill="#263238"/>
<path opacity="0.8" d="M630.52 464.86H686.78L671.52 430.52H615.26L630.52 464.86Z" fill="white"/>
<path d="M815.64 466.14C815.64 466.14 817.18 486.66 817.4 493.86C818.9 541.96 779.64 545.62 750.76 540.32L646.16 511.08C642.02 524.98 593.66 601.52 593.66 601.52L568.24 586.92C568.24 586.92 594.6 523.74 611.62 479.76C621.32 454.66 700.38 472.02 729.5 477.2C738.34 479.58 736.64 465.76 736.64 465.76L815.64 466.14Z" fill="#263238"/>
<path d="M587.18 600.08L577.46 616.26L559.36 607.26L568.78 588.84L587.18 600.08Z" fill="#FAB27B"/>
<path d="M549.72 604C547.34 602.9 545.06 601.34 544.74 600C544.683 599.611 544.742 599.214 544.909 598.858C545.076 598.503 545.344 598.204 545.68 598C545.97 597.803 546.296 597.666 546.639 597.597C546.983 597.529 547.337 597.53 547.68 597.6C551.3 598.18 556.26 605.08 556.46 605.38C556.523 605.463 556.558 605.565 556.558 605.67C556.558 605.775 556.523 605.877 556.46 605.96C556.397 606.039 556.313 606.099 556.218 606.135C556.123 606.17 556.02 606.179 555.92 606.16C553.794 605.624 551.719 604.901 549.72 604ZM548.38 598.86C548.09 598.719 547.78 598.624 547.46 598.58C547.259 598.525 547.049 598.517 546.845 598.555C546.641 598.593 546.447 598.677 546.28 598.8C545.68 599.22 545.66 599.54 545.72 599.76C546.04 601.42 550.88 603.66 554.66 604.86C552.973 602.458 550.841 600.401 548.38 598.8V598.86Z" fill="#407BFF"/>
<path d="M555.78 606C555.722 606.023 555.658 606.023 555.6 606C553.78 604 551.06 597.66 552.46 595.68C552.74 595.18 553.42 594.72 554.74 595.18C555.22 595.349 555.66 595.613 556.035 595.957C556.41 596.3 556.711 596.717 556.92 597.18C558.44 600.32 556.58 605.74 556.5 605.98C556.47 606.066 556.417 606.141 556.346 606.198C556.275 606.254 556.19 606.29 556.1 606.3C556.027 606.278 555.961 606.239 555.905 606.187C555.85 606.135 555.807 606.071 555.78 606ZM554.64 596L554.4 595.86C553.54 595.54 553.34 595.86 553.26 595.96C552.54 597.2 554.08 601.84 555.82 604.34C556.586 602.056 556.635 599.592 555.96 597.28C555.692 596.706 555.222 596.25 554.64 596Z" fill="#407BFF"/>
<path d="M559.04 604.3L580 613.88C580.372 614.05 580.678 614.339 580.869 614.7C581.061 615.062 581.128 615.476 581.06 615.88L577.06 634.68C576.979 635.079 576.82 635.458 576.592 635.795C576.363 636.132 576.071 636.42 575.73 636.643C575.39 636.866 575.009 637.02 574.609 637.095C574.209 637.17 573.798 637.165 573.4 637.08C573.185 637.041 572.977 636.974 572.78 636.88C565.28 633.3 558.78 629.8 549.32 625.52C538.22 620.44 540.42 623.06 527.32 617.26C519.32 613.76 522.06 604.16 525.58 605.26C541.74 610.34 545.44 606.44 553.84 603.68C555.59 603.229 557.445 603.45 559.04 604.3Z" fill="#263238"/>
<path opacity="0.2" d="M582.24 608.3L587.18 600.08L568.78 588.84L564.22 597.74L582.24 608.3Z" fill="black"/>
<path d="M597.7 600L566.18 580.34C564.746 581.14 563.593 582.362 562.878 583.839C562.162 585.317 561.919 586.979 562.18 588.6L592.5 608C592.5 608 596.56 607.74 597.7 600Z" fill="#407BFF"/>
<path d="M640.82 680.58L637 698.52L617.52 695.96L620.36 676.04L640.82 680.58Z" fill="#FAB27B"/>
<path d="M607.62 696C605.08 695.74 602.5 695.02 601.76 693.84C601.599 693.52 601.535 693.16 601.578 692.804C601.621 692.448 601.768 692.113 602 691.84C602.4 691.314 602.987 690.963 603.64 690.86C607.14 690.26 613.88 695.02 614.18 695.24C614.26 695.298 614.32 695.379 614.352 695.472C614.384 695.565 614.387 695.665 614.36 695.76C614.33 695.856 614.272 695.942 614.194 696.005C614.115 696.069 614.02 696.109 613.92 696.12C611.82 696.26 609.713 696.22 607.62 696ZM604.76 691.7C604.449 691.65 604.131 691.65 603.82 691.7C603.618 691.716 603.422 691.776 603.245 691.876C603.069 691.976 602.917 692.114 602.8 692.28C602.38 692.86 602.48 693.16 602.6 693.34C603.42 694.76 608.6 695.34 612.42 695.2C610.113 693.547 607.514 692.345 604.76 691.66V691.7Z" fill="#407BFF"/>
<path d="M613.86 696C613.795 696.021 613.725 696.021 613.66 696C611.32 694.66 606.84 689.76 607.5 687.5C607.6 686.94 608.08 686.32 609.5 686.32C609.984 686.313 610.465 686.405 610.912 686.59C611.359 686.776 611.763 687.052 612.1 687.4C614.5 689.8 614.5 695.4 614.5 695.62C614.501 695.707 614.477 695.793 614.431 695.868C614.385 695.942 614.319 696.002 614.24 696.04C614.179 696.07 614.111 696.082 614.044 696.075C613.977 696.067 613.913 696.042 613.86 696ZM609.66 687.24H609.4C608.52 687.24 608.42 687.58 608.38 687.7C608.12 689.08 611 692.86 613.38 694.6C613.367 692.262 612.634 689.985 611.28 688.08C610.85 687.636 610.276 687.359 609.66 687.3V687.24Z" fill="#407BFF"/>
<path d="M616.3 693.32L638.6 695.52C639.01 695.558 639.394 695.736 639.689 696.024C639.984 696.311 640.171 696.691 640.22 697.1L642.48 715.64C642.576 716.43 642.358 717.225 641.871 717.855C641.384 718.484 640.669 718.895 639.88 719C639.667 719.02 639.453 719.02 639.24 719C631.24 718.06 624.1 717 614.1 715.96C602.28 714.8 605.14 716.5 591.22 715.34C582.84 714.62 582.24 704.96 585.84 704.84C602.28 704.4 604.46 699.66 611.28 694.46C612.759 693.483 614.544 693.078 616.3 693.32Z" fill="#263238"/>
<path opacity="0.2" d="M618.86 686.52L639.22 688.1L640.82 680.58L620.36 676.04L618.86 686.52Z" fill="black"/>
<path d="M646.6 673.48L646.02 675.74L616.16 673.38L616.48 671.12L646.6 673.48Z" fill="#263238"/>
<path d="M647.82 682.84L640.46 682.18L619.74 680.32L613.06 679.72C612.11 678.443 611.573 676.907 611.519 675.317C611.466 673.727 611.899 672.158 612.76 670.82L616.48 671.12L646.6 673.48L648.76 673.66C651.26 680.84 647.82 682.84 647.82 682.84Z" fill="#407BFF"/>
<path d="M769.06 558.16C742.04 560.54 679.72 561.54 671.28 560.3L646.6 673.48L616.48 671.12C616.48 671.12 619.66 573.26 632.94 532.8C643.62 500.28 814.46 507.02 814.46 507.02L815.06 516.18C816.24 547.74 800 555.42 769.06 558.16Z" fill="#263238"/>
<path opacity="0.1" d="M769.06 558.16C742.04 560.54 679.72 561.54 671.28 560.3L646.6 673.48L616.48 671.12C616.48 671.12 619.66 573.26 632.94 532.8C643.62 500.28 814.46 507.02 814.46 507.02L815.06 516.18C816.24 547.74 800 555.42 769.06 558.16Z" fill="black"/>
<path d="M632.46 544.62C632.45 544.44 632.45 544.26 632.46 544.08V544.62Z" fill="#263238"/>
<path d="M634.48 530L634.18 532.22C634.238 531.475 634.338 530.734 634.48 530Z" fill="#263238"/>
<path d="M730.12 353.18L738.42 365.3L757.08 349.34L745.42 335.02L730.12 353.18Z" fill="#FAB27B"/>
<path opacity="0.2" d="M734.28 358.92C737.88 353.62 736.28 345.4 736.28 345.4L733 349.58L730.16 353.18L734.28 358.92Z" fill="black"/>
<path d="M698.2 326.48C698.6 327.66 699.56 328.48 700.34 328.12C701.12 327.76 701.46 326.58 701.04 325.44C700.62 324.3 699.7 323.44 698.9 323.82C698.1 324.2 697.82 325.3 698.2 326.48Z" fill="#263238"/>
<path d="M702.52 326.84L699.88 338.16C701.215 338.438 702.597 338.403 703.916 338.055C705.234 337.708 706.455 337.059 707.48 336.16L702.52 326.84Z" fill="#ED893E"/>
<path d="M697.02 318.22C697.116 318.171 697.222 318.145 697.33 318.145C697.438 318.145 697.544 318.171 697.64 318.22C698.396 318.538 699.216 318.671 700.034 318.608C700.851 318.545 701.642 318.289 702.34 317.86C702.407 317.807 702.484 317.768 702.567 317.746C702.65 317.724 702.736 317.72 702.821 317.733C702.905 317.746 702.986 317.777 703.058 317.823C703.13 317.869 703.192 317.929 703.24 318C703.336 318.145 703.373 318.321 703.343 318.492C703.313 318.663 703.219 318.816 703.08 318.92C702.205 319.504 701.197 319.859 700.149 319.954C699.101 320.048 698.046 319.878 697.08 319.46C696.998 319.429 696.923 319.382 696.86 319.322C696.796 319.262 696.745 319.19 696.71 319.11C696.675 319.029 696.656 318.943 696.654 318.856C696.652 318.768 696.668 318.681 696.7 318.6C696.768 318.445 696.879 318.313 697.02 318.22Z" fill="#263238"/>
<path d="M742.54 306C748.54 321.46 751.52 327.88 747.4 339.3C739.3 352.8 720.64 361 710 347.76C700.44 335.76 692.14 312.62 704.26 299.36C708.307 294.817 713.986 292.058 720.058 291.683C726.131 291.309 732.105 293.349 736.68 297.36C739.298 299.728 741.308 302.692 742.54 306Z" fill="#FAB27B"/>
<path d="M757.18 310.6C756.336 315.789 755.822 321.026 755.64 326.28C755.497 331.129 753.911 335.825 751.086 339.769C748.261 343.712 744.325 346.724 739.78 348.42C739.78 348.42 717.98 348.16 708.72 320.74C706.158 320.982 703.576 320.59 701.202 319.598C698.828 318.606 696.734 317.046 695.105 315.053C693.477 313.061 692.364 310.699 691.864 308.175C691.364 305.651 691.493 303.042 692.24 300.58C694.02 294.74 701.4 291.1 707.5 290.88C709.499 288.283 712.106 286.217 715.091 284.863C718.077 283.51 721.349 282.912 724.62 283.12C731.217 283.655 737.59 285.767 743.2 289.28C748.264 291.814 752.548 295.67 755.6 300.44C757.23 303.561 757.785 307.132 757.18 310.6Z" fill="#263238"/>
<path d="M713.26 324C712.569 325.546 712.192 327.213 712.151 328.906C712.109 330.599 712.405 332.283 713.02 333.86C714.7 338.04 719.18 337.34 721.76 333.86C724.1 330.68 726 324.72 722.84 321.64C719.68 318.56 715 320.2 713.26 324Z" fill="#FAB27B"/>
<path d="M757.24 340.32C751.24 340.58 742.38 344.64 730.54 352.8C729.921 353.337 729.45 354.023 729.17 354.793C728.89 355.563 728.811 356.391 728.94 357.2C729.08 358.8 730.68 360.3 732.2 359.8C732.98 361.8 733.5 364 734.2 365.92C737.901 364.034 741.738 362.43 745.68 361.12C751.649 358.74 757.761 356.736 763.98 355.12C762.32 352.58 760.1 350.1 759.44 347.12C760.14 346.809 760.71 346.263 761.05 345.576C761.389 344.889 761.478 344.105 761.3 343.36C760.959 342.535 760.403 341.817 759.688 341.282C758.973 340.747 758.128 340.414 757.24 340.32Z" fill="#407BFF"/>
<path d="M757.24 340.32C751.24 340.58 742.38 344.64 730.54 352.8C729.921 353.337 729.45 354.023 729.17 354.793C728.89 355.563 728.811 356.391 728.94 357.2C729.08 358.8 730.68 360.3 732.2 359.8C732.98 361.8 733.5 364 734.2 365.92C737.901 364.034 741.738 362.43 745.68 361.12C751.649 358.74 757.761 356.736 763.98 355.12C762.32 352.58 760.1 350.1 759.44 347.12C760.14 346.809 760.71 346.263 761.05 345.576C761.389 344.889 761.478 344.105 761.3 343.36C760.959 342.535 760.403 341.817 759.688 341.282C758.973 340.747 758.128 340.414 757.24 340.32Z" fill="#407BFF"/>
<path d="M739.68 493.52C726.987 463.144 716.187 432.011 707.34 400.3C698.06 365.66 724.56 365.06 756.54 356.46C781.9 349.64 792.74 355.74 799.98 368.6C807.22 381.46 818.9 490.3 818.9 490.3L739.68 493.52Z" fill="#407BFF"/>
<path d="M739.68 493.52C726.987 463.144 716.187 432.011 707.34 400.3C698.06 365.66 724.56 365.06 756.54 356.46C781.9 349.64 792.74 355.74 799.98 368.6C807.22 381.46 818.9 490.3 818.9 490.3L739.68 493.52Z" fill="#407BFF"/>
<path opacity="0.3" d="M739.68 493.52C726.987 463.144 716.187 432.011 707.34 400.3C698.06 365.66 724.56 365.06 756.54 356.46C781.9 349.64 792.74 355.74 799.98 368.6C807.22 381.46 818.9 490.3 818.9 490.3L739.68 493.52Z" fill="black"/>
<path d="M624 443.6H621.76C620.762 443.639 619.8 443.987 619.008 444.596C618.217 445.205 617.634 446.045 617.34 447L616.88 448.48C616.643 449.223 616.592 450.013 616.731 450.78C616.871 451.547 617.196 452.268 617.68 452.88C620.7 456.62 628.06 463.86 638.88 461.94L648.1 457.26L648.7 446.06L632.26 440.64C631.226 440.5 630.174 440.696 629.26 441.2L624 443.6Z" fill="#FAB27B"/>
<path d="M648.14 457.34L670.86 460.2L669.54 447.32L648.74 446.14L648.14 457.34Z" fill="#FAB27B"/>
<path d="M664 446.42C662.729 447.997 662.025 449.955 662 451.98C661.862 455.182 662.594 458.361 664.12 461.18C660.312 460.561 656.412 460.821 652.72 461.94H652.52C642.2 451.84 650.66 443.54 650.66 443.54L651.42 443.78C655.511 445.094 659.727 445.978 664 446.42Z" fill="#407BFF"/>
<path d="M708.24 464.68C686.46 465.8 660.52 460.68 660.52 460.68C659.914 459.082 659.816 457.336 660.24 455.68C661.06 452.2 662.24 447.9 663.9 446.36C665.56 444.82 674.66 445.48 674.66 445.48C674.66 445.48 693.58 440.44 697.36 438.38C701.14 436.32 703.2 424 704 415.68C708.42 371.28 716.7 369.36 724 368.62C739.3 367.1 727.52 463.7 708.24 464.68Z" fill="#407BFF"/>
<path d="M780 717.6L764.9 591.4C764.161 585.231 761.187 579.546 756.539 575.422C751.892 571.298 745.893 569.02 739.68 569.02H689.86C683.821 568.998 677.973 571.137 673.373 575.051C668.773 578.965 665.725 584.395 664.78 590.36L644.46 716L640.46 715.36L660.8 589.76C661.893 582.857 665.419 576.573 670.742 572.043C676.064 567.513 682.831 565.036 689.82 565.06H739.72C746.91 565.066 753.85 567.704 759.229 572.475C764.608 577.247 768.055 583.822 768.92 590.96L784.02 717.16L780 717.6Z" fill="#263238"/>
<path d="M849.88 717.6L834.78 591.4C834.041 585.231 831.067 579.546 826.419 575.422C821.772 571.298 815.774 569.02 809.56 569.02H759.66C753.619 568.994 747.769 571.132 743.169 575.046C738.568 578.961 735.521 584.393 734.58 590.36L714.24 716L710.24 715.36L730.58 589.76C731.669 582.855 735.195 576.569 740.518 572.038C745.841 567.507 752.61 565.032 759.6 565.06H809.5C816.69 565.066 823.63 567.704 829.009 572.475C834.388 577.247 837.835 583.822 838.7 590.96L853.8 717.16L849.88 717.6Z" fill="#263238"/>
<path d="M716.52 680.84H647.82V684.84H716.52V680.84Z" fill="#263238"/>
<path d="M838 589.16H766.98V593.16H838V589.16Z" fill="#263238"/>
<path d="M780 569.88H832.26C841.976 569.88 851.336 566.217 858.471 559.623C865.607 553.028 869.995 543.986 870.76 534.3L878.2 440.42C878.483 436.828 878.022 433.216 876.846 429.81C875.669 426.404 873.802 423.278 871.361 420.627C868.921 417.977 865.959 415.858 862.662 414.404C859.365 412.951 855.803 412.194 852.2 412.18H823.2C806.792 412.18 790.822 417.477 777.666 427.282C764.51 437.087 754.87 450.876 750.18 466.6L730.18 533.62C728.55 539.095 725.195 543.897 720.614 547.31C716.033 550.723 710.472 552.565 704.76 552.56H668.2C663.61 552.565 659.21 554.392 655.966 557.64C652.722 560.888 650.9 565.29 650.9 569.88H780Z" fill="#407BFF"/>
<path opacity="0.7" d="M780 569.88H832.26C841.976 569.88 851.336 566.217 858.471 559.623C865.607 553.028 869.995 543.986 870.76 534.3L878.2 440.42C878.483 436.828 878.022 433.216 876.846 429.81C875.669 426.404 873.802 423.278 871.361 420.627C868.921 417.977 865.959 415.858 862.662 414.404C859.365 412.951 855.803 412.194 852.2 412.18H823.2C806.792 412.18 790.822 417.477 777.666 427.282C764.51 437.087 754.87 450.876 750.18 466.6L730.18 533.62C728.55 539.095 725.195 543.897 720.614 547.31C716.033 550.723 710.472 552.565 704.76 552.56H668.2C663.61 552.565 659.21 554.392 655.966 557.64C652.722 560.888 650.9 565.29 650.9 569.88H780Z" fill="white"/>
<path d="M728.18 245.88V245.66C728.19 245.733 728.19 245.807 728.18 245.88Z" fill="#407BFF"/>
<path d="M634 220.56C627.153 226.869 622.143 234.913 619.5 243.84H615.84C617.105 233.792 620.866 224.221 626.78 216L634 220.56Z" fill="#407BFF"/>
<path opacity="0.6" d="M634 220.56C627.153 226.869 622.143 234.913 619.5 243.84H615.84C617.105 233.792 620.866 224.221 626.78 216L634 220.56Z" fill="white"/>
<path d="M655.2 208.58C647.278 210.833 640.009 214.948 634 220.58L626.78 216C632.673 207.755 640.43 201.019 649.42 196.34L655.2 208.58Z" fill="#407BFF"/>
<path opacity="0.5" d="M655.2 208.58C647.278 210.833 640.009 214.948 634 220.58L626.78 216C632.673 207.755 640.43 201.019 649.42 196.34L655.2 208.58Z" fill="white"/>
<path d="M677.66 189.6L675.88 207.46C673.324 207.014 670.734 206.794 668.14 206.8C663.766 206.804 659.413 207.402 655.2 208.58L649.42 196.38C657.875 191.95 667.274 189.624 676.82 189.6H677.66Z" fill="#407BFF"/>
<path opacity="0.4" d="M677.66 189.6L675.88 207.46C673.324 207.014 670.734 206.794 668.14 206.8C663.766 206.804 659.413 207.402 655.2 208.58L649.42 196.38C657.875 191.95 667.274 189.624 676.82 189.6H677.66Z" fill="white"/>
<path d="M704.42 197.18L692.76 214.28C687.7 210.8 681.938 208.472 675.88 207.46L677.66 189.6C687.1 189.667 696.347 192.286 704.42 197.18Z" fill="#407BFF"/>
<path opacity="0.3" d="M704.42 197.18L692.76 214.28C687.7 210.8 681.938 208.472 675.88 207.46L677.66 189.6C687.1 189.667 696.347 192.286 704.42 197.18Z" fill="white"/>
<path d="M722.92 217.34L704.72 227.08C701.694 221.995 697.599 217.627 692.72 214.28L704.38 197.18C712.316 202.043 718.737 209.025 722.92 217.34Z" fill="#407BFF"/>
<path opacity="0.2" d="M722.92 217.34L704.72 227.08C701.694 221.995 697.599 217.627 692.72 214.28L704.38 197.18C712.316 202.043 718.737 209.025 722.92 217.34Z" fill="white"/>
<path d="M728.24 245.14L710.44 244.94C709.883 238.636 707.929 232.535 704.72 227.08L722.92 217.34C727.187 225.951 729.026 235.562 728.24 245.14Z" fill="#407BFF"/>
<path opacity="0.1" d="M728.24 245.14L710.44 244.94C709.883 238.636 707.929 232.535 704.72 227.08L722.92 217.34C727.187 225.951 729.026 235.562 728.24 245.14Z" fill="white"/>
<path d="M728.2 245.66C728.21 245.733 728.21 245.807 728.2 245.88C727.481 252.139 725.885 258.265 723.46 264.08L709.04 260.82L710.2 255.32C710.3 254.6 710.4 253.88 710.46 253.16V252.72C710.69 250.132 710.69 247.528 710.46 244.94L728.26 245.14C728.26 245.26 728.26 245.34 728.26 245.44C728.251 245.516 728.231 245.59 728.2 245.66Z" fill="#407BFF"/>
<path d="M618 262.94L616.94 263.18C616.6 261.8 616.32 260.4 616.08 258.98C615.405 254.647 615.244 250.25 615.6 245.88V245.66C615.591 245.587 615.591 245.513 615.6 245.44C615.6 244.9 615.7 244.34 615.78 243.8H619.44C618.591 246.7 618.015 249.673 617.72 252.68C617.72 252.68 617.72 252.82 617.72 252.9C617.72 252.98 617.72 253.04 617.72 253.12C617.587 254.897 617.554 256.679 617.62 258.46C617.7 260 617.82 261.48 618 262.94Z" fill="#407BFF"/>
<path opacity="0.7" d="M618 262.94L616.94 263.18C616.6 261.8 616.32 260.4 616.08 258.98C615.405 254.647 615.244 250.25 615.6 245.88V245.66C615.591 245.587 615.591 245.513 615.6 245.44C615.6 244.9 615.7 244.34 615.78 243.8H619.44C618.591 246.7 618.015 249.673 617.72 252.68C617.72 252.68 617.72 252.82 617.72 252.9C617.72 252.98 617.72 253.04 617.72 253.12C617.587 254.897 617.554 256.679 617.62 258.46C617.7 260 617.82 261.48 618 262.94Z" fill="white"/>
<path d="M727.04 260L725.52 263.76L722.44 263.08L693.74 256.58L681.38 253.78C682.238 252.668 682.95 251.452 683.5 250.16C684.128 248.651 684.507 247.05 684.62 245.42L712.02 254.84L727.04 260Z" fill="#263238"/>
<path d="M684.62 245.46C684.39 248.506 683.263 251.415 681.38 253.82L670.28 251.3L673.78 241.74L684.62 245.46Z" fill="#263238"/>
<path d="M684.62 245.46C684.391 248.506 683.263 251.415 681.38 253.82C680.003 255.579 678.272 257.03 676.3 258.08C669.16 261.9 660.74 259.5 657.52 252.68C656.042 249.17 655.951 245.23 657.265 241.655C658.579 238.08 661.2 235.137 664.6 233.42C671.74 229.6 680.16 232.02 683.4 238.82C684.372 240.891 684.792 243.179 684.62 245.46Z" fill="#407BFF"/>
<path d="M228.96 237H240.42V246.6H227.82L226.06 260.6H216.06L217.82 246.6H204.88L203.12 260.6H193.32L195.08 246.6H183.54V237H196.22L198.06 222.74H186.54V213.14H199.22L200.98 199.14H210.84L209.08 213.14H222L223.76 199.14H233.62L231.86 213.14H243.3V222.74H230.62L228.96 237ZM218.96 237L220.8 222.74H208L206 237H218.96Z" fill="#407BFF"/>
<path d="M272.36 199.04V260.68H258.1V210.5H245.78V199.04H272.36Z" fill="#407BFF"/>
<path d="M218.92 455.38H120.3V523.28H218.92V455.38Z" fill="#263238"/>
<path d="M218.92 455.38H120.3V461.6H218.92V455.38Z" fill="#407BFF"/>
<path d="M138.36 492.94L154.5 501.88C155.104 502.175 155.647 502.582 156.1 503.08C156.383 503.475 156.523 503.955 156.5 504.44C156.505 504.777 156.442 505.112 156.315 505.425C156.188 505.738 155.999 506.022 155.76 506.26C155.535 506.501 155.262 506.693 154.959 506.823C154.656 506.954 154.33 507.021 154 507.02C153.287 506.935 152.603 506.689 152 506.3L131.2 494.72C130.872 494.552 130.597 494.297 130.406 493.983C130.214 493.669 130.112 493.308 130.112 492.94C130.112 492.572 130.214 492.211 130.406 491.897C130.597 491.583 130.872 491.328 131.2 491.16L152 479.58C152.608 479.205 153.291 478.966 154 478.88C154.669 478.89 155.306 479.162 155.777 479.637C156.248 480.111 156.515 480.751 156.52 481.42C156.557 481.907 156.415 482.391 156.12 482.78C155.675 483.291 155.131 483.706 154.52 484L138.36 492.94Z" fill="white"/>
<path d="M179.86 476.28L163.86 510.66C163.619 511.293 163.243 511.866 162.76 512.34C162.331 512.687 161.792 512.871 161.24 512.86C160.912 512.86 160.588 512.795 160.285 512.668C159.983 512.541 159.709 512.354 159.48 512.12C159.249 511.913 159.064 511.661 158.936 511.378C158.809 511.096 158.742 510.79 158.74 510.48C158.799 509.781 158.996 509.102 159.32 508.48L175.32 474.12C175.563 473.493 175.931 472.922 176.4 472.44C176.875 472.073 177.468 471.891 178.068 471.928C178.667 471.964 179.233 472.218 179.66 472.64C179.892 472.846 180.078 473.098 180.205 473.381C180.333 473.664 180.399 473.97 180.4 474.28C180.354 474.976 180.17 475.656 179.86 476.28Z" fill="white"/>
<path d="M200 492.94L183.8 484C183.181 483.711 182.629 483.295 182.18 482.78C181.9 482.383 181.76 481.905 181.78 481.42C181.775 481.087 181.84 480.756 181.971 480.449C182.102 480.143 182.296 479.867 182.54 479.64C182.765 479.399 183.038 479.207 183.341 479.077C183.644 478.946 183.97 478.879 184.3 478.88C185.01 478.963 185.693 479.202 186.3 479.58L207.1 491.16C207.428 491.328 207.703 491.583 207.895 491.897C208.087 492.211 208.188 492.572 208.188 492.94C208.188 493.308 208.087 493.669 207.895 493.983C207.703 494.297 207.428 494.552 207.1 494.72L186.3 506.3C185.698 506.691 185.013 506.937 184.3 507.02C183.967 507.02 183.638 506.953 183.332 506.822C183.026 506.692 182.75 506.5 182.52 506.26C182.045 505.773 181.779 505.12 181.78 504.44C181.765 503.956 181.906 503.479 182.18 503.08C182.637 502.579 183.187 502.171 183.8 501.88L200 492.94Z" fill="white"/>
</svg>
