<svg width="1000" height="746" viewBox="0 0 1000 746" fill="none" xmlns="http://www.w3.org/2000/svg">
<path d="M1000 654.8H0V655.3H1000V654.8Z" fill="#EBEBEB"/>
<path d="M899.8 686.98H833.56V687.48H899.8V686.98Z" fill="#EBEBEB"/>
<path d="M662.44 692.42H645.06V692.92H662.44V692.42Z" fill="#EBEBEB"/>
<path d="M831.56 668.42H793.18V668.92H831.56V668.42Z" fill="#EBEBEB"/>
<path d="M191.3 671.78H104.92V672.28H191.3V671.78Z" fill="#EBEBEB"/>
<path d="M221.78 671.78H209.12V672.28H221.78V671.78Z" fill="#EBEBEB"/>
<path d="M450.3 680.22H262.94V680.72H450.3V680.22Z" fill="#EBEBEB"/>
<path d="M474 565.6H87.8199C84.7946 565.595 81.895 564.389 79.7577 562.248C77.6203 560.107 76.4199 557.205 76.4199 554.18V11.32C76.4463 8.31205 77.6583 5.43596 79.7928 3.31644C81.9273 1.19692 84.8119 0.00515278 87.8199 0H474C477.029 0 479.933 1.20318 482.075 3.34484C484.217 5.48651 485.42 8.39123 485.42 11.42V554.18C485.42 557.209 484.217 560.114 482.075 562.255C479.933 564.397 477.029 565.6 474 565.6ZM87.8199 0.400002C84.9272 0.4053 82.1548 1.55813 80.1112 3.60545C78.0677 5.65278 76.9199 8.4273 76.9199 11.32V554.18C76.9199 557.073 78.0677 559.847 80.1112 561.895C82.1548 563.942 84.9272 565.095 87.8199 565.1H474C476.894 565.095 479.669 563.943 481.716 561.896C483.762 559.849 484.915 557.075 484.92 554.18V11.32C484.915 8.42546 483.762 5.65099 481.716 3.60423C479.669 1.55748 476.894 0.405288 474 0.400002H87.8199Z" fill="#EBEBEB"/>
<path d="M906.62 565.6H520.42C517.393 565.595 514.491 564.39 512.351 562.249C510.21 560.109 509.005 557.207 509 554.18V11.32C509.032 8.31023 510.248 5.43415 512.386 3.31519C514.523 1.19622 517.41 0.00509658 520.42 0H906.62C909.625 0.010409 912.504 1.2045 914.634 3.32346C916.764 5.44241 917.974 8.3155 918 11.32V554.18C918 557.202 916.802 560.101 914.669 562.241C912.536 564.382 909.642 565.589 906.62 565.6ZM520.42 0.400002C517.525 0.405288 514.751 1.55748 512.704 3.60423C510.657 5.65099 509.505 8.42546 509.5 11.32V554.18C509.505 557.075 510.657 559.849 512.704 561.896C514.751 563.943 517.525 565.095 520.42 565.1H906.62C909.515 565.095 912.289 563.943 914.336 561.896C916.383 559.849 917.535 557.075 917.54 554.18V11.32C917.535 8.42546 916.383 5.65099 914.336 3.60423C912.289 1.55748 909.515 0.405288 906.62 0.400002H520.42Z" fill="#EBEBEB"/>
<path d="M707.86 86.28C707.863 84.9882 707.609 83.7086 707.113 82.5156C706.618 81.3226 705.89 80.2398 704.973 79.3301C704.056 78.4204 702.967 77.7017 701.77 77.2159C700.573 76.7301 699.292 76.4868 698 76.5C697.046 76.4997 696.096 76.6344 695.18 76.9C695.324 75.9065 695.398 74.904 695.4 73.9C695.4 68.4239 693.23 63.1708 689.365 59.2911C685.501 55.4114 680.256 53.2212 674.78 53.2C673.499 53.2013 672.221 53.3151 670.96 53.54C668.918 50.1852 665.841 47.5855 662.192 46.1331C658.543 44.6807 654.521 44.4545 650.732 45.4886C646.944 46.5227 643.594 48.761 641.189 51.8657C638.784 54.9704 637.454 58.7731 637.4 62.7H637.1C632.773 62.8498 628.674 64.6738 625.667 67.7874C622.659 70.9011 620.978 75.061 620.978 79.39C620.978 83.7191 622.659 87.879 625.667 90.9926C628.674 94.1062 632.773 95.9302 637.1 96.08H698.34C700.89 96.0071 703.312 94.9425 705.089 93.1125C706.867 91.2825 707.861 88.8313 707.86 86.28Z" fill="#F0F0F0"/>
<path d="M671.9 100.9V81.84H656.36V100.9H643.7L664.14 118.18L684.58 100.9H671.9Z" fill="#E0E0E0"/>
<path d="M401.36 115.12C401.36 109.612 399.173 104.33 395.281 100.433C391.388 96.537 386.108 94.3453 380.6 94.34C378.568 94.3429 376.547 94.6393 374.6 95.22C374.923 93.1087 375.083 90.9758 375.08 88.84C375.08 77.1705 370.444 65.9789 362.193 57.7273C353.941 49.4757 342.749 44.84 331.08 44.84C328.362 44.8394 325.65 45.0939 322.98 45.6C318.646 38.473 312.111 32.9491 304.362 29.8622C296.613 26.7753 288.069 26.2928 280.022 28.4876C271.974 30.6824 264.859 35.4353 259.75 42.029C254.641 48.6227 251.816 56.6994 251.7 65.04H251.06C246.336 64.9278 241.638 65.7612 237.241 67.4913C232.845 69.2214 228.838 71.8132 225.458 75.1143C222.077 78.4153 219.391 82.3591 217.557 86.7135C215.723 91.0679 214.778 95.7451 214.778 100.47C214.778 105.195 215.723 109.872 217.557 114.227C219.391 118.581 222.077 122.525 225.458 125.826C228.838 129.127 232.845 131.719 237.241 133.449C241.638 135.179 246.336 136.012 251.06 135.9H381.16C386.572 135.754 391.712 133.5 395.486 129.618C399.259 125.736 401.367 120.534 401.36 115.12Z" fill="#F0F0F0"/>
<path d="M292 116.72V157.22H325.02V116.72H351.92L308.5 80.04L265.1 116.72H292Z" fill="#E0E0E0"/>
<path d="M417.94 216.26V161.8H584.7V215.72" stroke="#E6E6E6" stroke-miterlimit="10"/>
<path d="M503.78 110.48V216.12" stroke="#E6E6E6" stroke-miterlimit="10"/>
<path d="M532.16 89.74H475.44C474.126 89.74 473.06 90.8055 473.06 92.12V125.86C473.06 127.174 474.126 128.24 475.44 128.24H532.16C533.474 128.24 534.54 127.174 534.54 125.86V92.12C534.54 90.8055 533.474 89.74 532.16 89.74Z" fill="#F0F0F0"/>
<path d="M531.56 94.26H476.02C475.556 94.26 475.18 94.6361 475.18 95.1V125.86C475.18 126.324 475.556 126.7 476.02 126.7H531.56C532.024 126.7 532.4 126.324 532.4 125.86V95.1C532.4 94.6361 532.024 94.26 531.56 94.26Z" fill="#E0E0E0"/>
<path d="M446.3 211.32H389.58C388.265 211.32 387.2 212.386 387.2 213.7V247.44C387.2 248.754 388.265 249.82 389.58 249.82H446.3C447.614 249.82 448.68 248.754 448.68 247.44V213.7C448.68 212.386 447.614 211.32 446.3 211.32Z" fill="#F0F0F0"/>
<path d="M445.7 215.84H390.16C389.696 215.84 389.32 216.216 389.32 216.68V247.44C389.32 247.904 389.696 248.28 390.16 248.28H445.7C446.164 248.28 446.54 247.904 446.54 247.44V216.68C446.54 216.216 446.164 215.84 445.7 215.84Z" fill="#E0E0E0"/>
<path d="M532.16 211.32H475.44C474.126 211.32 473.06 212.386 473.06 213.7V247.44C473.06 248.754 474.126 249.82 475.44 249.82H532.16C533.474 249.82 534.54 248.754 534.54 247.44V213.7C534.54 212.386 533.474 211.32 532.16 211.32Z" fill="#F0F0F0"/>
<path d="M531.56 215.84H476.02C475.556 215.84 475.18 216.216 475.18 216.68V247.44C475.18 247.904 475.556 248.28 476.02 248.28H531.56C532.024 248.28 532.4 247.904 532.4 247.44V216.68C532.4 216.216 532.024 215.84 531.56 215.84Z" fill="#E0E0E0"/>
<path d="M613.2 211.32H556.48C555.166 211.32 554.1 212.386 554.1 213.7V247.44C554.1 248.754 555.166 249.82 556.48 249.82H613.2C614.514 249.82 615.58 248.754 615.58 247.44V213.7C615.58 212.386 614.514 211.32 613.2 211.32Z" fill="#F0F0F0"/>
<path d="M612.6 215.84H557.06C556.596 215.84 556.22 216.216 556.22 216.68V247.44C556.22 247.904 556.596 248.28 557.06 248.28H612.6C613.064 248.28 613.44 247.904 613.44 247.44V216.68C613.44 216.216 613.064 215.84 612.6 215.84Z" fill="#E0E0E0"/>
<path d="M502.632 145.302L487.274 160.66C486.641 161.293 486.641 162.318 487.274 162.951L502.632 178.309C503.265 178.942 504.291 178.942 504.923 178.309L520.282 162.951C520.914 162.318 520.914 161.293 520.282 160.66L504.923 145.302C504.291 144.669 503.265 144.669 502.632 145.302Z" fill="#E0E0E0"/>
<path opacity="0.8" d="M178.18 135.3H138.16C137.199 135.3 136.42 136.079 136.42 137.04V159.62C136.42 160.581 137.199 161.36 138.16 161.36H178.18C179.141 161.36 179.92 160.581 179.92 159.62V137.04C179.92 136.079 179.141 135.3 178.18 135.3Z" fill="#E0E0E0"/>
<path d="M147.64 191.36H115.94C114.979 191.36 114.2 192.139 114.2 193.1V209.52C114.2 210.481 114.979 211.26 115.94 211.26H147.64C148.601 211.26 149.38 210.481 149.38 209.52V193.1C149.38 192.139 148.601 191.36 147.64 191.36Z" fill="#E0E0E0"/>
<path d="M201.02 191.36H169.32C168.359 191.36 167.58 192.139 167.58 193.1V209.52C167.58 210.481 168.359 211.26 169.32 211.26H201.02C201.981 211.26 202.76 210.481 202.76 209.52V193.1C202.76 192.139 201.981 191.36 201.02 191.36Z" fill="#E0E0E0"/>
<path d="M168.2 233.48H153.22C152.259 233.48 151.48 234.259 151.48 235.22V248.74C151.48 249.701 152.259 250.48 153.22 250.48H168.2C169.161 250.48 169.94 249.701 169.94 248.74V235.22C169.94 234.259 169.161 233.48 168.2 233.48Z" fill="#E0E0E0"/>
<path d="M191.64 233.48H176.66C175.699 233.48 174.92 234.259 174.92 235.22V248.74C174.92 249.701 175.699 250.48 176.66 250.48H191.64C192.601 250.48 193.38 249.701 193.38 248.74V235.22C193.38 234.259 192.601 233.48 191.64 233.48Z" fill="#E0E0E0"/>
<path d="M215.1 233.48H200.12C199.159 233.48 198.38 234.259 198.38 235.22V248.74C198.38 249.701 199.159 250.48 200.12 250.48H215.1C216.061 250.48 216.84 249.701 216.84 248.74V235.22C216.84 234.259 216.061 233.48 215.1 233.48Z" fill="#E0E0E0"/>
<path d="M113.94 233.48H98.96C97.999 233.48 97.22 234.259 97.22 235.22V248.74C97.22 249.701 97.999 250.48 98.96 250.48H113.94C114.901 250.48 115.68 249.701 115.68 248.74V235.22C115.68 234.259 114.901 233.48 113.94 233.48Z" fill="#E0E0E0"/>
<path d="M139.38 233.48H124.4C123.439 233.48 122.66 234.259 122.66 235.22V248.74C122.66 249.701 123.439 250.48 124.4 250.48H139.38C140.341 250.48 141.12 249.701 141.12 248.74V235.22C141.12 234.259 140.341 233.48 139.38 233.48Z" fill="#E0E0E0"/>
<path d="M183.16 191.36H185.16V177.36H159.16V161.36H157.16V177.36H131.16V191.36H133.16V179.36H183.16V191.36Z" fill="#E0E0E0"/>
<path d="M131.16 223.36H105.16V233.36H107.16V225.36H131.16V233.36H133.16V211.36H131.16V223.36Z" fill="#E0E0E0"/>
<path d="M185.16 225.36V211.36H183.16V225.36H159.16V233.36H161.16V227.36H183.16V233.36H185.16V227.36H207.16V233.36H209.16V225.36H185.16Z" fill="#E0E0E0"/>
<path d="M762 141.56V156L769.4 156.7C770.393 161.433 772.265 165.938 774.92 169.98L770.16 175.72L780.32 185.88L786.06 181.12C790.098 183.783 794.604 185.656 799.34 186.64L800 194H814.36L815.06 186.6C819.796 185.616 824.302 183.743 828.34 181.08L834.08 185.84L844.24 175.68L839.5 170C842.155 165.958 844.027 161.453 845.02 156.72L852.42 156.02V141.66L845.02 140.96C844.031 136.232 842.158 131.733 839.5 127.7L844.26 121.96L834.1 111.8L828.36 116.54C824.318 113.885 819.813 112.013 815.08 111.02L814.38 103.62H800L799.3 111.02C794.567 112.013 790.062 113.885 786.02 116.54L780.28 111.8L770.12 121.96L774.88 127.7C772.222 131.733 770.349 136.232 769.36 140.96L762 141.56ZM807.22 129.3C811.07 129.3 814.833 130.442 818.033 132.581C821.234 134.72 823.728 137.761 825.201 141.318C826.673 144.875 827.057 148.788 826.305 152.564C825.552 156.339 823.697 159.807 820.973 162.527C818.25 165.248 814.78 167.1 811.004 167.849C807.228 168.597 803.315 168.209 799.759 166.733C796.204 165.257 793.166 162.76 791.03 159.557C788.894 156.354 787.756 152.59 787.76 148.74C787.765 143.586 789.815 138.644 793.46 135C797.104 131.355 802.046 129.305 807.2 129.3H807.22Z" fill="#F5F5F5"/>
<path d="M771.26 246.4C774.969 245.62 778.497 244.148 781.66 242.06L786.16 245.8L794.16 237.8L790.44 233.3C792.518 230.134 793.983 226.606 794.76 222.9L800.56 222.34V211.08L794.76 210.54C793.987 206.832 792.521 203.304 790.44 200.14L794.16 195.64L786.16 187.64L781.66 191.36C778.496 189.279 774.968 187.813 771.26 187.04L770.72 181.24H759.46L758.92 187.04C755.212 187.813 751.684 189.279 748.52 191.36L744 187.72L736 195.72L739.72 200.22C737.639 203.384 736.173 206.912 735.4 210.62L729.6 211.16V222.42L735.4 222.98C736.177 226.686 737.642 230.214 739.72 233.38L736 237.84L744 245.84L748.5 242.1C751.663 244.188 755.191 245.66 758.9 246.44L759.44 252.22H770.7L771.26 246.4ZM749.84 216.76C749.836 213.741 750.728 210.789 752.402 208.277C754.076 205.764 756.458 203.805 759.246 202.647C762.034 201.489 765.103 201.184 768.065 201.771C771.026 202.357 773.747 203.809 775.883 205.942C778.02 208.076 779.475 210.795 780.065 213.756C780.656 216.716 780.355 219.786 779.2 222.575C778.046 225.365 776.09 227.749 773.58 229.427C771.07 231.104 768.119 232 765.1 232C761.056 232 757.178 230.395 754.317 227.538C751.455 224.68 749.845 220.804 749.84 216.76Z" fill="#F5F5F5"/>
<path d="M746.14 185.46L749.92 188.58L756.62 181.9L753.48 178.12C755.234 175.462 756.469 172.497 757.12 169.38L761.98 168.92V159.48L757.12 159.02C756.469 155.903 755.234 152.938 753.48 150.28L756.62 146.5L750 139.82L746.22 142.94C743.568 141.19 740.609 139.955 737.5 139.3L737.04 134.44H727.58L727.12 139.3C724.003 139.951 721.038 141.186 718.38 142.94L714.6 139.82L707.92 146.5L711.04 150.28C709.293 152.939 708.065 155.904 707.42 159.02L702.54 159.48V168.92L707.42 169.38C708.065 172.496 709.293 175.461 711.04 178.12L707.84 182L714.52 188.68L718.3 185.56C720.955 187.315 723.922 188.544 727.04 189.18L727.5 194.06H736.96L737.42 189.18C740.538 188.51 743.498 187.247 746.14 185.46ZM719.42 164.2C719.42 161.668 720.171 159.194 721.577 157.089C722.984 154.984 724.983 153.343 727.322 152.374C729.661 151.406 732.234 151.152 734.717 151.646C737.2 152.14 739.481 153.359 741.271 155.149C743.061 156.939 744.28 159.22 744.774 161.703C745.268 164.186 745.015 166.759 744.046 169.098C743.077 171.437 741.436 173.436 739.331 174.843C737.226 176.249 734.752 177 732.22 177C728.825 177 725.57 175.651 723.169 173.251C720.769 170.851 719.42 167.595 719.42 164.2Z" fill="#F5F5F5"/>
<path d="M878.78 538.06H744.48V625.4H878.78V538.06Z" fill="#F5F5F5"/>
<path d="M873.84 554.44H749.38V621.04H873.84V554.44Z" fill="#E0E0E0"/>
<path d="M851.6 564.4H759.52V567.26H851.6V564.4Z" fill="#F5F5F5"/>
<path d="M803.7 573.16H759.52V576.02H803.7V573.16Z" fill="#F5F5F5"/>
<path d="M815.16 581.94H759.52V584.8H815.16V581.94Z" fill="#F5F5F5"/>
<path d="M779.12 590.72H759.52V593.58H779.12V590.72Z" fill="#F5F5F5"/>
<path d="M772.22 599.5H759.52V602.36H772.22V599.5Z" fill="#F5F5F5"/>
<path d="M191.178 537.565L95.6187 537.999L95.8861 596.938L191.445 596.505L191.178 537.565Z" fill="#EBEBEB"/>
<path d="M132.28 582.12C131.856 582.122 131.443 581.988 131.1 581.74L113.68 569C113.428 568.816 113.222 568.575 113.08 568.297C112.938 568.02 112.862 567.712 112.86 567.4C112.857 567.086 112.928 566.776 113.067 566.495C113.206 566.213 113.409 565.968 113.66 565.78L130.98 552.88C131.407 552.564 131.942 552.431 132.467 552.51C132.992 552.589 133.464 552.873 133.78 553.3C134.096 553.727 134.229 554.262 134.15 554.787C134.071 555.312 133.787 555.784 133.36 556.1L118.22 567.38L133.46 578.5C133.803 578.748 134.058 579.099 134.189 579.501C134.32 579.904 134.32 580.337 134.189 580.74C134.057 581.142 133.802 581.493 133.459 581.741C133.116 581.989 132.703 582.122 132.28 582.12Z" fill="#FAFAFA"/>
<path d="M154.92 582C154.606 582.003 154.296 581.932 154.014 581.793C153.733 581.654 153.488 581.451 153.3 581.2C153.143 580.989 153.03 580.749 152.966 580.493C152.903 580.238 152.89 579.973 152.929 579.713C152.968 579.453 153.058 579.203 153.194 578.978C153.329 578.752 153.508 578.556 153.72 578.4L168.86 567.12L153.62 556C153.193 555.684 152.909 555.212 152.83 554.687C152.751 554.162 152.884 553.627 153.2 553.2C153.516 552.773 153.988 552.489 154.513 552.41C155.038 552.331 155.573 552.464 156 552.78L173.42 565.5C173.675 565.686 173.882 565.93 174.024 566.212C174.167 566.493 174.241 566.804 174.24 567.12C174.24 567.43 174.168 567.737 174.029 568.014C173.89 568.292 173.688 568.534 173.44 568.72L156.12 581.62C155.771 581.873 155.35 582.006 154.92 582Z" fill="#FAFAFA"/>
<path d="M139.04 582.1C138.815 582.097 138.592 582.057 138.38 581.98C137.883 581.803 137.475 581.437 137.247 580.961C137.018 580.485 136.987 579.939 137.16 579.44L146.14 553.76C146.227 553.512 146.361 553.283 146.536 553.087C146.711 552.891 146.923 552.731 147.16 552.617C147.397 552.503 147.654 552.436 147.916 552.421C148.179 552.406 148.442 552.443 148.69 552.53C148.938 552.617 149.167 552.751 149.363 552.926C149.559 553.101 149.719 553.313 149.833 553.55C149.947 553.787 150.014 554.044 150.029 554.307C150.044 554.569 150.007 554.832 149.92 555.08L140.94 580.76C140.802 581.154 140.545 581.494 140.205 581.734C139.864 581.975 139.457 582.102 139.04 582.1Z" fill="#FAFAFA"/>
<path d="M500 745.12C714.165 745.12 887.78 734.984 887.78 722.48C887.78 709.976 714.165 699.84 500 699.84C285.835 699.84 112.22 709.976 112.22 722.48C112.22 734.984 285.835 745.12 500 745.12Z" fill="#F5F5F5"/>
<path d="M668.76 722.48H683.46L703.46 612H688.76L668.76 722.48Z" fill="#263238"/>
<path opacity="0.2" d="M668.76 722.48H683.46L703.46 612H688.76L668.76 722.48Z" fill="white"/>
<path opacity="0.2" d="M668.76 722.48H679.46L699.46 612H688.76L668.76 722.48Z" fill="white"/>
<path d="M627.38 644.86H686.16C686.586 644.863 687.009 644.781 687.403 644.619C687.797 644.457 688.156 644.218 688.457 643.917C688.758 643.616 688.997 643.257 689.159 642.863C689.321 642.469 689.403 642.046 689.4 641.62C689.403 641.194 689.321 640.771 689.159 640.377C688.997 639.983 688.758 639.624 688.457 639.323C688.156 639.022 687.797 638.783 687.403 638.621C687.009 638.459 686.586 638.377 686.16 638.38H627.38C626.954 638.377 626.531 638.459 626.137 638.621C625.743 638.783 625.384 639.022 625.083 639.323C624.782 639.624 624.543 639.983 624.381 640.377C624.219 640.771 624.137 641.194 624.14 641.62C624.137 642.046 624.219 642.469 624.381 642.863C624.543 643.257 624.782 643.616 625.083 643.917C625.384 644.218 625.743 644.457 626.137 644.619C626.531 644.781 626.954 644.863 627.38 644.86Z" fill="#263238"/>
<path d="M620.84 681.86H679.64C680.501 681.855 681.325 681.509 681.932 680.898C682.539 680.287 682.88 679.461 682.88 678.6C682.875 677.742 682.532 676.921 681.925 676.315C681.319 675.708 680.498 675.365 679.64 675.36H620.84C619.982 675.365 619.161 675.708 618.555 676.315C617.948 676.921 617.605 677.742 617.6 678.6C617.6 679.461 617.941 680.287 618.548 680.898C619.155 681.509 619.979 681.855 620.84 681.86Z" fill="#263238"/>
<path d="M608.76 722.48H623.46L643.46 612H628.76L608.76 722.48Z" fill="#263238"/>
<path opacity="0.2" d="M608.76 722.48H623.46L643.46 612H628.76L608.76 722.48Z" fill="white"/>
<path opacity="0.2" d="M608.76 722.48H619.46L639.46 612H628.76L608.76 722.48Z" fill="white"/>
<path d="M745.46 722.48H730.76L710.76 612H725.46L745.46 722.48Z" fill="#263238"/>
<path opacity="0.4" d="M745.46 722.48H730.76L710.76 612H725.46L745.46 722.48Z" fill="white"/>
<path opacity="0.2" d="M741.46 722.48H730.76L710.76 612H721.46L741.46 722.48Z" fill="white"/>
<path d="M719.64 644.86H660.84C659.981 644.86 659.157 644.519 658.549 643.911C657.941 643.303 657.6 642.479 657.6 641.62C657.6 640.761 657.941 639.937 658.549 639.329C659.157 638.721 659.981 638.38 660.84 638.38H719.64C720.499 638.38 721.323 638.721 721.931 639.329C722.539 639.937 722.88 640.761 722.88 641.62C722.88 642.479 722.539 643.303 721.931 643.911C721.323 644.519 720.499 644.86 719.64 644.86Z" fill="#263238"/>
<path d="M726.16 681.86H667.38C666.953 681.86 666.53 681.776 666.135 681.611C665.741 681.447 665.383 681.207 665.082 680.904C664.781 680.601 664.542 680.241 664.381 679.846C664.219 679.451 664.137 679.027 664.14 678.6C664.14 677.741 664.481 676.917 665.089 676.309C665.697 675.701 666.521 675.36 667.38 675.36H726.16C727.019 675.36 727.843 675.701 728.451 676.309C729.059 676.917 729.4 677.741 729.4 678.6C729.403 679.027 729.321 679.451 729.159 679.846C728.997 680.241 728.759 680.601 728.458 680.904C728.157 681.207 727.799 681.447 727.404 681.611C727.01 681.776 726.587 681.86 726.16 681.86Z" fill="#263238"/>
<path opacity="0.2" d="M719.64 644.86H660.84C659.981 644.86 659.157 644.519 658.549 643.911C657.941 643.303 657.6 642.479 657.6 641.62C657.6 640.761 657.941 639.937 658.549 639.329C659.157 638.721 659.981 638.38 660.84 638.38H719.64C720.499 638.38 721.323 638.721 721.931 639.329C722.539 639.937 722.88 640.761 722.88 641.62C722.88 642.479 722.539 643.303 721.931 643.911C721.323 644.519 720.499 644.86 719.64 644.86Z" fill="white"/>
<path opacity="0.2" d="M726.16 681.86H667.38C666.953 681.86 666.53 681.776 666.135 681.611C665.741 681.447 665.383 681.207 665.082 680.904C664.781 680.601 664.542 680.241 664.381 679.846C664.219 679.451 664.137 679.027 664.14 678.6C664.14 677.741 664.481 676.917 665.089 676.309C665.697 675.701 666.521 675.36 667.38 675.36H726.16C727.019 675.36 727.843 675.701 728.451 676.309C729.059 676.917 729.4 677.741 729.4 678.6C729.403 679.027 729.321 679.451 729.159 679.846C728.997 680.241 728.759 680.601 728.458 680.904C728.157 681.207 727.799 681.447 727.404 681.611C727.01 681.776 726.587 681.86 726.16 681.86Z" fill="white"/>
<path d="M685.46 722.48H670.76L650.76 612H665.46L685.46 722.48Z" fill="#263238"/>
<path opacity="0.4" d="M685.46 722.48H670.76L650.76 612H665.46L685.46 722.48Z" fill="white"/>
<path opacity="0.2" d="M681.46 722.48H670.76L650.76 612H661.46L681.46 722.48Z" fill="white"/>
<path d="M731.18 606.72H625C623.686 606.72 622.62 607.786 622.62 609.1V614.88C622.62 616.194 623.686 617.26 625 617.26H731.18C732.494 617.26 733.56 616.194 733.56 614.88V609.1C733.56 607.786 732.494 606.72 731.18 606.72Z" fill="#263238"/>
<path opacity="0.2" d="M665.36 606.72H625C623.686 606.72 622.62 607.786 622.62 609.1V614.88C622.62 616.194 623.686 617.26 625 617.26H665.36C666.674 617.26 667.74 616.194 667.74 614.88V609.1C667.74 607.786 666.674 606.72 665.36 606.72Z" fill="white"/>
<path d="M388.7 633.7H254.4V721.04H388.7V633.7Z" fill="#407BFF"/>
<path opacity="0.6" d="M388.7 633.7H254.4V721.04H388.7V633.7Z" fill="white"/>
<path d="M383.8 650.08H259.32V716.68H383.8V650.08Z" fill="#407BFF"/>
<path d="M361.54 660.02H269.46V662.88H361.54V660.02Z" fill="white"/>
<path d="M313.64 668.8H269.46V671.66H313.64V668.8Z" fill="white"/>
<path d="M325.1 677.58H269.46V680.44H325.1V677.58Z" fill="white"/>
<path d="M289.06 686.34H269.46V689.2H289.06V686.34Z" fill="white"/>
<path d="M282.16 695.12H269.46V697.98H282.16V695.12Z" fill="white"/>
<path d="M554.66 722.48H445.34L463.84 577.14H536.16L554.66 722.48Z" fill="#407BFF"/>
<path opacity="0.6" d="M554.66 722.48H445.34L458 623.04L463.86 577.14H536.14L544.78 644.86L554.66 722.48Z" fill="white"/>
<path opacity="0.1" d="M544.78 644.86L458 623.04L463.86 577.14H536.14L544.78 644.86Z" fill="black"/>
<path d="M757.74 218.76H242.26C240.527 218.76 238.812 219.102 237.212 219.765C235.611 220.429 234.157 221.401 232.933 222.627C231.709 223.853 230.739 225.309 230.077 226.91C229.416 228.511 229.077 230.227 229.08 231.96V580.92C229.08 584.416 230.469 587.768 232.94 590.24C235.412 592.711 238.764 594.1 242.26 594.1H757.74C761.235 594.1 764.588 592.711 767.06 590.24C769.531 587.768 770.92 584.416 770.92 580.92V232C770.928 230.264 770.593 228.544 769.934 226.938C769.275 225.332 768.306 223.872 767.081 222.642C765.856 221.411 764.401 220.435 762.798 219.769C761.195 219.103 759.476 218.76 757.74 218.76Z" fill="#407BFF"/>
<path opacity="0.7" d="M757.74 218.76H242.26C240.527 218.76 238.812 219.102 237.212 219.765C235.611 220.429 234.157 221.401 232.933 222.627C231.709 223.853 230.739 225.309 230.077 226.91C229.416 228.511 229.077 230.227 229.08 231.96V580.92C229.08 584.416 230.469 587.768 232.94 590.24C235.412 592.711 238.764 594.1 242.26 594.1H757.74C761.235 594.1 764.588 592.711 767.06 590.24C769.531 587.768 770.92 584.416 770.92 580.92V232C770.928 230.264 770.593 228.544 769.934 226.938C769.275 225.332 768.306 223.872 767.081 222.642C765.856 221.411 764.401 220.435 762.798 219.769C761.195 219.103 759.476 218.76 757.74 218.76Z" fill="white"/>
<path d="M753.58 231.68H246.44V568.18H753.58V231.68Z" fill="#407BFF"/>
<path d="M591.8 711.56H408.18C407.031 711.56 406.1 712.491 406.1 713.64V720.22C406.1 721.369 407.031 722.3 408.18 722.3H591.8C592.949 722.3 593.88 721.369 593.88 720.22V713.64C593.88 712.491 592.949 711.56 591.8 711.56Z" fill="#407BFF"/>
<path opacity="0.7" d="M591.8 711.56H408.18C407.031 711.56 406.1 712.491 406.1 713.64V720.22C406.1 721.369 407.031 722.3 408.18 722.3H591.8C592.949 722.3 593.88 721.369 593.88 720.22V713.64C593.88 712.491 592.949 711.56 591.8 711.56Z" fill="white"/>
<path opacity="0.2" d="M753.58 232H246.44V282.16H753.58V232Z" fill="black"/>
<path opacity="0.4" d="M463.76 282.76H246.44V568.18H463.76V282.76Z" fill="white"/>
<path d="M675.52 355.56V360.56H670.52" stroke="white" stroke-miterlimit="10"/>
<path d="M659.96 360.56H496.16" stroke="white" stroke-miterlimit="10" stroke-dasharray="5.28 5.28"/>
<path d="M490.88 360.56H485.88V355.56" stroke="white" stroke-miterlimit="10"/>
<path d="M485.88 346.5V260.44" stroke="white" stroke-miterlimit="10" stroke-dasharray="4.53 4.53"/>
<path d="M485.88 255.92V250.92H490.88" stroke="white" stroke-miterlimit="10"/>
<path d="M501.44 250.92H665.24" stroke="white" stroke-miterlimit="10" stroke-dasharray="5.28 5.28"/>
<path d="M670.52 250.92H675.52V255.92" stroke="white" stroke-miterlimit="10"/>
<path d="M675.52 264.98V351.04" stroke="white" stroke-miterlimit="10" stroke-dasharray="4.53 4.53"/>
<path d="M678.7 247.74H672.36V254.08H678.7V247.74Z" fill="#407BFF" stroke="white" stroke-miterlimit="10"/>
<path d="M678.7 357.4H672.36V363.74H678.7V357.4Z" fill="#407BFF" stroke="white" stroke-miterlimit="10"/>
<path d="M489.04 247.74H482.7V254.08H489.04V247.74Z" fill="#407BFF" stroke="white" stroke-miterlimit="10"/>
<path d="M489.04 357.4H482.7V363.74H489.04V357.4Z" fill="#407BFF" stroke="white" stroke-miterlimit="10"/>
<path d="M583.88 247.74H577.54V254.08H583.88V247.74Z" fill="#407BFF" stroke="white" stroke-miterlimit="10"/>
<path d="M583.88 357.4H577.54V363.74H583.88V357.4Z" fill="#407BFF" stroke="white" stroke-miterlimit="10"/>
<path d="M678.7 302.56H672.36V308.9H678.7V302.56Z" fill="#407BFF" stroke="white" stroke-miterlimit="10"/>
<path d="M489.04 302.56H482.7V308.9H489.04V302.56Z" fill="#407BFF" stroke="white" stroke-miterlimit="10"/>
<path opacity="0.7" d="M658.3 287.74H611.88C609.792 287.74 608.1 289.432 608.1 291.52V303.94C608.1 306.028 609.792 307.72 611.88 307.72H658.3C660.388 307.72 662.08 306.028 662.08 303.94V291.52C662.08 289.432 660.388 287.74 658.3 287.74Z" fill="white"/>
<path opacity="0.7" d="M578.3 287.74H531.88C529.792 287.74 528.1 289.432 528.1 291.52V303.94C528.1 306.028 529.792 307.72 531.88 307.72H578.3C580.388 307.72 582.08 306.028 582.08 303.94V291.52C582.08 289.432 580.388 287.74 578.3 287.74Z" fill="white"/>
<path opacity="0.7" d="M475.32 530.92H428.9C426.812 530.92 425.12 532.612 425.12 534.7V547.12C425.12 549.208 426.812 550.9 428.9 550.9H475.32C477.408 550.9 479.1 549.208 479.1 547.12V534.7C479.1 532.612 477.408 530.92 475.32 530.92Z" fill="white"/>
<path d="M720.1 249.84H736.98" stroke="white" stroke-width="1.5" stroke-linecap="round" stroke-linejoin="round"/>
<path d="M720.1 257.84H736.98" stroke="white" stroke-width="1.5" stroke-linecap="round" stroke-linejoin="round"/>
<path d="M720.1 265.84H736.98" stroke="white" stroke-width="1.5" stroke-linecap="round" stroke-linejoin="round"/>
<path opacity="0.5" d="M450.92 327H280.82V497.1H450.92V327Z" fill="white"/>
<path d="M352.02 340.9V487.64" stroke="#407BFF" stroke-miterlimit="10"/>
<path d="M425.38 487.64C405.918 487.64 387.254 479.909 373.492 466.148C359.731 452.386 352 433.722 352 414.26C352 394.804 359.729 376.144 373.487 362.387C387.244 348.629 405.904 340.9 425.36 340.9" stroke="#407BFF" stroke-miterlimit="10"/>
<path d="M428.56 337.74H422.22V344.08H428.56V337.74Z" fill="white" stroke="#407BFF" stroke-miterlimit="10"/>
<path d="M428.56 484.46H422.22V490.8H428.56V484.46Z" fill="white" stroke="#407BFF" stroke-miterlimit="10"/>
<path d="M355.2 411.1H348.86V417.44H355.2V411.1Z" fill="white" stroke="#407BFF" stroke-miterlimit="10"/>
<path d="M353.66 340.9C353.66 341.224 353.564 341.541 353.384 341.811C353.203 342.081 352.947 342.291 352.648 342.415C352.348 342.539 352.018 342.572 351.7 342.508C351.382 342.445 351.09 342.289 350.86 342.06C350.631 341.83 350.475 341.538 350.412 341.22C350.348 340.902 350.381 340.572 350.505 340.272C350.629 339.973 350.839 339.717 351.109 339.536C351.379 339.356 351.696 339.26 352.02 339.26C352.453 339.265 352.867 339.44 353.174 339.746C353.48 340.053 353.655 340.467 353.66 340.9Z" fill="white" stroke="#407BFF" stroke-miterlimit="10"/>
<path d="M353.66 487.64C353.66 487.964 353.564 488.28 353.385 488.549C353.206 488.818 352.951 489.028 352.652 489.153C352.354 489.278 352.025 489.311 351.707 489.25C351.39 489.188 351.098 489.034 350.867 488.807C350.637 488.579 350.48 488.289 350.414 487.972C350.348 487.655 350.378 487.326 350.499 487.026C350.62 486.726 350.827 486.469 351.094 486.286C351.361 486.103 351.677 486.004 352 486C352.217 485.997 352.432 486.038 352.634 486.119C352.835 486.2 353.018 486.321 353.173 486.473C353.327 486.626 353.45 486.807 353.533 487.008C353.617 487.208 353.66 487.423 353.66 487.64Z" fill="white" stroke="#407BFF" stroke-miterlimit="10"/>
<path opacity="0.7" d="M633.86 533.34H582.36C578.414 533.34 574.629 531.772 571.838 528.982C569.048 526.191 567.48 522.406 567.48 518.46C567.48 514.514 569.048 510.729 571.838 507.938C574.629 505.148 578.414 503.58 582.36 503.58H633.86C637.806 503.58 641.591 505.148 644.382 507.938C647.172 510.729 648.74 514.514 648.74 518.46C648.74 522.406 647.172 526.191 644.382 528.982C641.591 531.772 637.806 533.34 633.86 533.34Z" fill="white"/>
<path opacity="0.7" d="M679.1 406.44H520C519.135 406.44 518.306 406.097 517.695 405.485C517.083 404.874 516.74 404.045 516.74 403.18C516.756 402.328 517.107 401.516 517.717 400.921C518.327 400.325 519.148 399.995 520 400H679.08C679.507 399.997 679.931 400.079 680.326 400.241C680.721 400.403 681.081 400.641 681.384 400.942C681.687 401.243 681.927 401.601 682.091 401.995C682.256 402.39 682.34 402.813 682.34 403.24C682.324 404.091 681.977 404.902 681.371 405.5C680.766 406.097 679.951 406.435 679.1 406.44Z" fill="white"/>
<path opacity="0.7" d="M679.1 430.18H520C519.573 430.183 519.149 430.101 518.754 429.939C518.359 429.778 517.999 429.539 517.696 429.238C517.393 428.937 517.153 428.579 516.989 428.185C516.824 427.79 516.74 427.367 516.74 426.94C516.74 426.075 517.083 425.246 517.695 424.635C518.306 424.023 519.135 423.68 520 423.68H679.08C679.945 423.68 680.774 424.023 681.385 424.635C681.997 425.246 682.34 426.075 682.34 426.94C682.34 427.799 681.999 428.623 681.391 429.231C680.783 429.839 679.959 430.18 679.1 430.18Z" fill="white"/>
<path opacity="0.7" d="M679.1 454H580C579.139 454 578.313 453.659 577.702 453.052C577.091 452.445 576.745 451.621 576.74 450.76C576.74 449.895 577.083 449.066 577.695 448.455C578.306 447.843 579.135 447.5 580 447.5H679.08C679.945 447.5 680.774 447.843 681.385 448.455C681.997 449.066 682.34 449.895 682.34 450.76C682.335 451.618 681.992 452.439 681.385 453.045C680.779 453.652 679.958 453.995 679.1 454Z" fill="white"/>
<path opacity="0.4" d="M273.7 245.9H262.46V257.14H273.7V245.9Z" fill="black"/>
<path opacity="0.4" d="M292.66 245.9H287.18C285.589 245.9 284.3 247.189 284.3 248.78V254.26C284.3 255.851 285.589 257.14 287.18 257.14H292.66C294.251 257.14 295.54 255.851 295.54 254.26V248.78C295.54 247.189 294.251 245.9 292.66 245.9Z" fill="black"/>
<path opacity="0.4" d="M312.26 245.9H311.3C308.461 245.9 306.16 248.201 306.16 251.04V252C306.16 254.839 308.461 257.14 311.3 257.14H312.26C315.099 257.14 317.4 254.839 317.4 252V251.04C317.4 248.201 315.099 245.9 312.26 245.9Z" fill="black"/>
<path opacity="0.9" d="M296.9 523V518.62L294.66 518.42C294.34 516.998 293.771 515.644 292.98 514.42L294.42 512.68L291.32 509.58L289.58 511.02C288.356 510.229 287.002 509.66 285.58 509.34L285.38 507.1H281L280.78 509.34C279.358 509.661 278.005 510.23 276.78 511.02L275.04 509.58L271.94 512.68L273.38 514.42C272.573 515.635 272.002 516.993 271.7 518.42L269.44 518.62V523L271.7 523.22C272.004 524.647 272.574 526.004 273.38 527.22L271.94 528.98L275.04 532.06L276.78 530.62C277.996 531.426 279.353 531.996 280.78 532.3L281 534.56H285.38L285.58 532.3C287.007 531.997 288.365 531.427 289.58 530.62L291.32 532.06L294.42 528.98L292.98 527.22C293.778 526 294.348 524.644 294.66 523.22L296.9 523ZM283.12 526.74C281.933 526.74 280.773 526.388 279.787 525.729C278.8 525.07 278.031 524.132 277.577 523.036C277.123 521.94 277.004 520.733 277.235 519.569C277.467 518.406 278.038 517.336 278.877 516.497C279.716 515.658 280.786 515.087 281.949 514.855C283.113 514.624 284.32 514.743 285.416 515.197C286.512 515.651 287.449 516.42 288.109 517.407C288.768 518.393 289.12 519.553 289.12 520.74C289.12 522.331 288.488 523.857 287.363 524.983C286.237 526.108 284.711 526.74 283.12 526.74Z" fill="white"/>
<path opacity="0.6" d="M314.66 535.36V532L312.9 531.82C312.661 530.693 312.213 529.622 311.58 528.66L312.7 527.28L310.28 524.86L308.92 526C307.951 525.366 306.873 524.919 305.74 524.68L305.58 522.9H302.14L301.98 524.68C300.847 524.919 299.769 525.366 298.8 526L297.44 524.86L295 527.28L296.14 528.66C295.506 529.622 295.059 530.693 294.82 531.82L293.06 532V535.42L294.82 535.6C295.059 536.726 295.506 537.798 296.14 538.76L295 540.14L297.44 542.56L298.8 541.42C299.769 542.054 300.847 542.501 301.98 542.74L302.14 544.5H305.58L305.74 542.74C306.873 542.501 307.951 542.054 308.92 541.42L310.28 542.56L312.7 540.14L311.58 538.76C312.213 537.798 312.661 536.726 312.9 535.6L314.66 535.36ZM303.86 538.3C302.937 538.304 302.035 538.034 301.266 537.524C300.497 537.015 299.896 536.288 299.54 535.437C299.185 534.586 299.09 533.648 299.267 532.743C299.445 531.838 299.887 531.006 300.538 530.352C301.189 529.698 302.019 529.252 302.923 529.071C303.828 528.89 304.766 528.981 305.619 529.333C306.471 529.685 307.2 530.282 307.713 531.049C308.226 531.816 308.5 532.718 308.5 533.64C308.503 534.251 308.384 534.857 308.152 535.422C307.92 535.987 307.579 536.501 307.148 536.934C306.717 537.367 306.204 537.71 305.64 537.945C305.076 538.179 304.471 538.3 303.86 538.3Z" fill="white"/>
<path opacity="0.4" d="M296.9 545.1V542.22L295.42 542.08C295.221 541.133 294.848 540.231 294.32 539.42L295.28 538.28L293.28 536.28L292.12 537.22C291.309 536.691 290.407 536.318 289.46 536.12L289.32 534.64H286.4L286.26 536.12C285.313 536.318 284.411 536.691 283.6 537.22L282.44 536.28L280.44 538.28L281.4 539.42C280.871 540.231 280.498 541.133 280.3 542.08L278.8 542.22V545.1L280.3 545.24C280.495 546.195 280.868 547.104 281.4 547.92L280.44 549.06L282.44 551.06L283.6 550.1C284.405 550.643 285.309 551.023 286.26 551.22L286.4 552.7H289.28L289.42 551.22C290.371 551.023 291.275 550.643 292.08 550.1L293.24 551.06L295.24 549.06L294.28 547.92C294.812 547.104 295.185 546.195 295.38 545.24L296.9 545.1ZM287.84 547.56C287.073 547.54 286.329 547.295 285.701 546.855C285.073 546.414 284.589 545.799 284.309 545.084C284.029 544.37 283.966 543.59 284.127 542.84C284.289 542.09 284.668 541.404 285.217 540.869C285.767 540.333 286.461 539.972 287.215 539.829C287.969 539.687 288.748 539.77 289.455 540.067C290.161 540.365 290.765 540.865 291.189 541.504C291.613 542.143 291.84 542.893 291.84 543.66C291.84 544.181 291.736 544.696 291.534 545.176C291.332 545.656 291.035 546.09 290.663 546.454C290.29 546.817 289.848 547.102 289.363 547.292C288.878 547.482 288.36 547.573 287.84 547.56Z" fill="white"/>
<path d="M674.36 249.78L682.84 272.46L697.02 258.26L674.36 249.78Z" fill="#407BFF"/>
<path d="M688.017 260.267L684.85 263.435L691.878 270.464L695.046 267.296L688.017 260.267Z" fill="#407BFF"/>
<path opacity="0.4" d="M697.02 258.26L674.36 249.78L682.84 272.46L688.36 266.94L691.86 270.46L695.02 267.3L691.52 263.78L697.02 258.26Z" fill="white"/>
<path d="M326.92 330.84L348.26 338.84L337.08 327.66C336.666 327.898 336.186 327.993 335.713 327.932C335.239 327.871 334.799 327.656 334.46 327.32C334.046 326.906 333.814 326.345 333.814 325.76C333.814 325.175 334.046 324.614 334.46 324.2C334.874 323.786 335.435 323.554 336.02 323.554C336.605 323.554 337.166 323.786 337.58 324.2C337.916 324.539 338.131 324.979 338.192 325.453C338.253 325.926 338.158 326.406 337.92 326.82L349.1 338L341.1 316.66L334.02 318.22L333.76 315.68L332.42 314.34L324.58 322.18L325.92 323.52L328.48 323.78L326.92 330.84Z" fill="#263238"/>
<path opacity="0.2" d="M326.92 330.84L348.26 338.84L337.08 327.66C336.666 327.898 336.186 327.993 335.713 327.932C335.239 327.871 334.799 327.656 334.46 327.32C334.046 326.906 333.814 326.345 333.814 325.76C333.814 325.175 334.046 324.614 334.46 324.2C334.874 323.786 335.435 323.554 336.02 323.554C336.605 323.554 337.166 323.786 337.58 324.2C337.916 324.539 338.131 324.979 338.192 325.453C338.253 325.926 338.158 326.406 337.92 326.82L349.1 338L341.1 316.66L334.02 318.22L333.76 315.68L332.42 314.34L324.58 322.18L325.92 323.52L328.48 323.78L326.92 330.84Z" fill="white"/>
<g opacity="0.1">
<path d="M320.6 231.68L245.44 512.52V231.68H320.6Z" fill="white"/>
<path d="M405.42 231.68L315.36 568.18H253.32L343.36 231.68H405.42Z" fill="white"/>
<path d="M495.62 231.68L405.56 568.18H377.5L467.56 231.68H495.62Z" fill="white"/>
<path d="M578.68 231.68L488.62 568.18H478.58L568.64 231.68H578.68Z" fill="white"/>
</g>
<path d="M883.8 306C890.9 314.18 927.02 383.76 920.04 400C913.06 416.24 855.18 397.52 855.18 397.52L858.64 374.58C858.64 374.58 881.12 375.38 883.28 373.24C885.44 371.1 852.86 338.58 852.86 338.58L883.8 306Z" fill="#263238"/>
<g opacity="0.2">
<path d="M920 400C919.142 401.88 917.647 403.396 915.78 404.28L914.62 404.8H914.46C914.102 404.951 913.735 405.078 913.36 405.18C911.735 405.702 910.059 406.05 908.36 406.22L906.9 406.36C906.18 406.36 905.46 406.46 904.72 406.48H902.72C883.32 406.48 855.1 397.38 855.1 397.38L858.56 374.44C858.56 374.44 881.04 375.24 883.2 373.1C883.72 372.58 882.18 370.26 879.56 367.1C873.2 359.28 860.46 346.26 855.2 340.94L852.82 338.54L883.8 306C890.9 314.1 927.02 383.68 920 400Z" fill="white"/>
</g>
<path opacity="0.2" d="M915.82 404.22L914.66 404.74H914.5C914.142 404.891 913.775 405.017 913.4 405.12C911.775 405.642 910.099 405.99 908.4 406.16L906.94 406.3C906.22 406.3 905.5 406.4 904.76 406.42H902.76C883.36 406.42 855.14 397.32 855.14 397.32L858.6 374.38C858.6 374.38 883.92 376.52 886.08 374.38C886.48 373.54 883.68 370.7 879.54 367.08C873.18 359.26 860.44 346.24 855.18 340.92L869.82 325.28L880.96 324.08C880.96 324.08 905.62 364 915.82 404.22Z" fill="black"/>
<path d="M810.82 303.64C806.82 306.54 804.82 310.66 806.42 312.84L912.1 458.54C913.68 460.72 918.22 460.12 922.22 457.22C926.22 454.32 928.22 450.18 926.62 448.02L820.94 302.3C819.36 300.14 814.84 300.72 810.82 303.64Z" fill="#263238"/>
<path opacity="0.7" d="M820.94 302.3L926.62 448C928.2 450.16 926.22 454.28 922.22 457.2C918.22 460.12 913.68 460.68 912.12 458.52L806.44 312.8C806.036 312.041 805.858 311.182 805.925 310.325C805.992 309.467 806.303 308.647 806.82 307.96C807.36 306.997 808.033 306.115 808.82 305.34C809.433 304.707 810.102 304.131 810.82 303.62C814.84 300.74 819.36 300.14 820.94 302.3Z" fill="white"/>
<path opacity="0.3" d="M926.62 448C928.2 450.16 926.22 454.28 922.22 457.2C918.22 460.12 913.68 460.68 912.12 458.52C911.24 457.32 913.42 455.5 914.7 452.88L806.82 308C807.36 307.037 808.033 306.155 808.82 305.38L914.52 451.1C915.141 450.469 915.809 449.887 916.52 449.36C920.52 446.44 925.04 445.84 926.62 448Z" fill="black"/>
<path d="M797.74 299.6C794.36 303.2 793.2 307.6 795.16 309.46L926.56 432.48C928.56 434.32 932.86 432.88 936.24 429.26C939.62 425.64 940.78 421.26 938.82 419.38L807.42 296.36C805.46 294.54 801.12 296 797.74 299.6Z" fill="#407BFF"/>
<path opacity="0.7" d="M807.42 296.38L938.82 419.4C940.82 421.22 939.62 425.64 936.24 429.26C932.86 432.88 928.52 434.3 926.56 432.48L795.16 309.46C794.624 308.786 794.289 307.974 794.193 307.118C794.098 306.262 794.246 305.396 794.62 304.62C794.979 303.572 795.477 302.576 796.1 301.66C796.594 300.952 797.143 300.283 797.74 299.66C801.12 296 805.46 294.54 807.42 296.38Z" fill="white"/>
<path opacity="0.3" d="M938.82 419.4C940.82 421.22 939.62 425.64 936.24 429.26C932.86 432.88 928.52 434.3 926.56 432.48C925.48 431.46 927.28 429.28 928.04 426.48L794.62 304.66C794.979 303.612 795.477 302.616 796.1 301.7L927.52 424.74C928.003 424.029 928.545 423.36 929.14 422.74C932.52 419 936.86 417.56 938.82 419.4Z" fill="black"/>
<path d="M829.32 692.2L819.32 692.36C809.14 644.54 801.94 585.36 797.46 540.72C796.76 533.72 796.12 527.1 795.46 520.92C795.2 517.98 794.94 515.16 794.7 512.44C793.5 499.02 792.7 488.44 792.18 481.8C791.82 477 791.64 474.36 791.64 474.36H828L827.66 483.58L826.46 514L826.34 517.48L825.58 537.58L824.32 571.8C836.74 620 829.32 692.2 829.32 692.2Z" fill="#EBB376"/>
<path d="M910.52 689.64L900.66 691.5C880.92 642.16 862.38 578.98 850.32 534.84C848.46 528 846.74 521.6 845.2 515.8C845.2 515.5 845.06 515.22 844.98 514.94C841.94 503.42 839.6 494.24 838.14 488.42L836.4 481.36L872 475.2L874 490.2L876.98 512.2L877.56 516.52L879.56 531.54L884.98 571.82C905.54 617.22 910.52 689.64 910.52 689.64Z" fill="#EBB376"/>
<path opacity="0.2" d="M877.08 512.24L845.2 515.8C845.2 515.5 845.06 515.22 844.98 514.94C841.94 503.42 839.6 494.24 838.14 488.42L874.14 490.2L877.08 512.24Z" fill="black"/>
<path opacity="0.2" d="M827.58 483.58L826.46 514L826.34 517.48L795.54 520.9C795.28 517.96 795.02 515.14 794.78 512.42C793.58 499 792.78 488.42 792.26 481.78L827.58 483.58Z" fill="black"/>
<path d="M799.74 725.44C801.603 723.927 803.724 722.762 806 722C806 722 812.82 715.24 816.12 694.88L825.04 692.54C826.556 692.178 828.147 692.289 829.598 692.858C831.05 693.426 832.293 694.425 833.16 695.72C833.406 696.082 833.595 696.48 833.72 696.9C834.181 699.084 834.502 701.295 834.68 703.52C835.179 710.964 835.226 718.431 834.82 725.88H833.2L832.56 711.88C832.32 707.1 828.66 712.7 827.62 717.88C826.58 723.06 824.36 728.46 813.92 728.72C801.72 728.9 796.66 728.42 799.74 725.44Z" fill="#263238"/>
<path d="M833.48 696C834.06 691.24 834.24 682.96 834.24 682.96L814.4 685.16C814.4 685.16 816.8 694.58 814.82 701.66C824.82 698.92 833.48 696 833.48 696Z" fill="#263238"/>
<path d="M880.46 725.44C882.325 723.934 884.445 722.776 886.72 722.02C886.72 722.02 893.54 715.26 896.82 694.9L905.76 692.56C907.276 692.198 908.867 692.309 910.318 692.878C911.77 693.446 913.013 694.445 913.88 695.74C914.126 696.102 914.315 696.5 914.44 696.92C914.901 699.104 915.222 701.315 915.4 703.54C915.896 710.984 915.936 718.451 915.52 725.9H914L913.36 711.9C913.12 707.12 909.46 712.72 908.42 717.9C907.38 723.08 905.16 728.48 894.7 728.74C882.44 728.9 877.38 728.42 880.46 725.44Z" fill="#263238"/>
<path d="M914.18 696C914.78 691.24 914.96 682.96 914.96 682.96L895.12 685.16C895.12 685.16 897.52 694.58 895.54 701.66C905.54 698.92 914.18 696 914.18 696Z" fill="#263238"/>
<path d="M880.52 502.42L842.78 507.24L841.32 507.42L833.56 478.98L831.56 509.46L791.12 507.34C773.12 401.6 803.9 376.62 803.9 376.62L858.76 387.66C883.6 429.9 877.7 478.98 877.7 478.98L880.52 502.42Z" fill="#407BFF"/>
<path d="M828.56 244.88C828.56 249.04 826.72 252.4 824.56 252.4C822.4 252.4 820.44 249.04 820.44 244.88C820.44 240.72 822.28 237.36 824.56 237.36C826.84 237.36 828.56 240.72 828.56 244.88Z" stroke="#263238" stroke-width="0.5" stroke-linecap="round" stroke-linejoin="round"/>
<path d="M855.66 270C855.514 270.137 855.353 270.258 855.18 270.36C852.898 272.1 850.295 273.371 847.52 274.1C839.42 275.98 833.88 274.86 830.26 271.2C825.2 265.7 823.94 255.96 824.66 244.2C824.786 239.52 825.65 234.89 827.22 230.48C827.22 230.48 827.22 230.3 827.22 230.26C827.22 230.22 827.34 229.92 827.42 229.76C828.411 227.273 830.011 225.074 832.073 223.365C834.134 221.657 836.592 220.493 839.22 219.98C841.498 219.471 843.825 219.209 846.16 219.2C869.1 219.02 873.22 256.98 855.66 270Z" fill="#EBB376"/>
<path opacity="0.2" d="M855.18 270.42C852.88 272.059 850.276 273.222 847.52 273.84C839.42 275.72 833.88 274.34 830.26 270.62C835.108 271.819 840.214 271.397 844.8 269.42C846.494 268.795 848.307 268.56 850.104 268.734C851.902 268.907 853.637 269.483 855.18 270.42Z" fill="black"/>
<path d="M857.5 291.12C858.92 297.64 850.46 300.3 850.46 300.3C836.64 294.3 834.08 287.04 834.08 287.04C845.62 281.04 842.28 264.02 842.28 264.02L844.62 265.18L861.08 268.4C861.08 268.4 856.52 277.16 855.92 279.16C852.8 289.66 857.5 291.12 857.5 291.12Z" fill="#EBB376"/>
<path d="M827.2 230.38C827.2 230.38 825.94 246.38 841.2 253.36C841.2 253.36 847.74 270.06 857.36 270.28C870.5 270.6 882.06 251.94 877.52 232.92C871.58 208.24 834.2 206.24 827.2 230.38Z" fill="#263238"/>
<path d="M833.44 248.74C833.44 246.24 835.44 242.02 839.44 242.6C843.44 243.18 845.72 253.14 835.8 255.36C834.3 255.68 833.44 254 833.44 248.74Z" fill="#EBB376"/>
<path d="M855.18 213.3C855.18 213.3 839.86 209.42 831.38 215.6C821.48 222.8 817.72 230.24 829.38 241.8C829.38 241.8 855.12 233.46 863.68 235.22C868.683 236.229 873.594 237.654 878.36 239.48C880.22 222.48 863.74 209.82 855.18 213.3Z" fill="#263238"/>
<path d="M833.44 244.88C833.44 244.88 837.44 263.4 831.16 279.2C831.16 279.2 867.56 291.82 880.22 284.96C892.88 278.1 881.28 255.08 880.74 241.8C880.2 228.52 874.44 208.9 855.18 213.3C835.92 217.7 833.44 244.88 833.44 244.88Z" fill="#263238"/>
<path d="M820.34 243.7H835.72" stroke="#263238" stroke-width="0.5" stroke-linecap="round" stroke-linejoin="round"/>
<path opacity="0.2" d="M842.78 507.24L841.32 507.42L833.56 478.98C833.56 478.98 850.2 450.56 845 435.76C845.74 436.8 863.66 463.38 842.78 507.24Z" fill="black"/>
<path d="M811.62 289.68C811.62 289.68 829.92 283.16 857.5 291.12C885.08 299.08 886.12 310.82 886.12 310.82C886.12 310.82 868.64 350.44 865.88 395.3L794 392.62C794 392.62 785.42 329.3 811.62 289.68Z" fill="#263238"/>
<path opacity="0.2" d="M886.12 310.82C886.12 310.82 868.64 350.44 865.88 395.3L794 392.62C793.141 385.318 792.7 377.973 792.68 370.62C792.538 359.858 793.207 349.101 794.68 338.44C797.08 321.84 802.02 304.12 811.62 289.6C811.62 289.6 829.92 283.08 857.5 291.04C885.08 299 886.12 310.82 886.12 310.82Z" fill="white"/>
<path opacity="0.2" d="M810.62 341.22C810.62 341.22 807.64 359.46 792.62 370.7C792.478 359.938 793.147 349.181 794.62 338.52L810.62 341.22Z" fill="black"/>
<path d="M731.2 288.42L722.14 274.98C722.14 274.98 720.76 269.14 719 267.82C717.24 266.5 699.84 259.08 697.74 259.12C695.64 259.16 695.74 272.68 697.74 274.98C699.74 277.28 710.82 282.2 713.74 282.7C716.66 283.2 715.22 282.7 715.22 282.7L723.22 298.7L731.2 288.42Z" fill="#EBB376"/>
<path d="M811.62 289.68C792.211 297.809 773.484 307.48 755.62 318.6L726.36 278.6C726.36 278.6 718.48 281.04 715.56 294.76C715.56 294.76 730.58 351.98 750.1 357.66C769.62 363.34 810.66 341.12 810.66 341.12C810.66 341.12 822.54 311.4 811.62 289.68Z" fill="#263238"/>
<path opacity="0.2" d="M811.62 289.68C792.211 297.809 773.484 307.48 755.62 318.6L726.36 278.6C726.36 278.6 718.48 281.04 715.56 294.76C715.56 294.76 730.58 351.98 750.1 357.66C769.62 363.34 810.66 341.12 810.66 341.12C810.66 341.12 822.54 311.4 811.62 289.68Z" fill="white"/>
<path d="M830.12 287.16C830.12 287.16 836.5 332.84 856.72 334.68C876.94 336.52 886 302.68 882.58 298.68C879.16 294.68 853.1 286.86 830.12 287.16Z" fill="#263238"/>
<path opacity="0.3" d="M830.12 287.16C830.12 287.16 836.5 332.84 856.72 334.68C876.94 336.52 886 302.68 882.58 298.68C879.16 294.68 853.1 286.86 830.12 287.16Z" fill="white"/>
<path d="M110.72 707.34H125.54L126.76 673.02H111.94L110.72 707.34Z" fill="#B97964"/>
<path d="M127.58 705.62H109.58C109.283 705.615 108.995 705.714 108.764 705.9C108.534 706.087 108.376 706.349 108.32 706.64L105.4 719.82C105.338 720.101 105.333 720.392 105.384 720.675C105.435 720.958 105.542 721.228 105.698 721.47C105.855 721.712 106.057 721.92 106.294 722.083C106.531 722.246 106.798 722.361 107.08 722.42H107.56C113.38 722.32 117.56 721.96 124.92 721.96C129.44 721.96 142.92 722.44 149.24 722.44C155.56 722.44 156.26 716.3 153.72 715.74C142.3 713.24 133.72 709.74 130.06 706.52C129.377 705.917 128.491 705.595 127.58 705.62Z" fill="#263238"/>
<path d="M128.6 707.68C128.532 707.661 128.471 707.622 128.425 707.569C128.379 707.516 128.349 707.45 128.34 707.38C128.327 707.314 128.336 707.245 128.365 707.184C128.393 707.123 128.441 707.073 128.5 707.04C129.04 706.7 133.82 703.76 135.46 704.6C135.645 704.686 135.801 704.825 135.907 705C136.014 705.174 136.067 705.376 136.06 705.58C136.114 705.931 136.075 706.29 135.945 706.62C135.815 706.951 135.599 707.241 135.32 707.46C134.492 708.039 133.486 708.308 132.48 708.22C131.171 708.179 129.87 707.998 128.6 707.68ZM129.62 707.18C131.349 707.766 133.236 707.673 134.9 706.92C135.073 706.763 135.205 706.566 135.286 706.347C135.366 706.127 135.391 705.892 135.36 705.66C135.36 705.38 135.24 705.24 135.14 705.24C134.998 705.167 134.839 705.133 134.68 705.14C132.879 705.494 131.162 706.186 129.62 707.18Z" fill="#407BFF"/>
<path d="M128.5 707.74C128.448 707.705 128.405 707.657 128.377 707.601C128.349 707.545 128.336 707.483 128.34 707.42C128.34 707.22 128.72 702.96 130.34 701.56C130.539 701.381 130.774 701.249 131.03 701.173C131.286 701.097 131.556 701.079 131.82 701.12C132.086 701.122 132.343 701.215 132.55 701.382C132.757 701.549 132.901 701.781 132.96 702.04C133.26 703.6 130.3 706.86 128.76 707.7H128.6L128.5 707.74ZM130.88 702C129.842 703.334 129.235 704.953 129.14 706.64C130.66 705.48 132.54 703.02 132.36 702.06C132.36 702.06 132.36 701.7 131.84 701.7H131.68C131.385 701.697 131.1 701.804 130.88 702Z" fill="#407BFF"/>
<path opacity="0.2" d="M111.94 673.04H126.76L126.12 690.74H111.3L111.94 673.04Z" fill="black"/>
<path d="M186.98 708.44L202.28 710.06L205.14 677.1L189.86 675.48L186.98 708.44Z" fill="#B97964"/>
<path d="M203.88 705.14H186C185.705 705.142 185.42 705.244 185.191 705.43C184.963 705.615 184.803 705.872 184.74 706.16L181.82 719.36C181.748 719.637 181.732 719.926 181.773 720.209C181.814 720.493 181.911 720.765 182.058 721.011C182.205 721.256 182.399 721.47 182.629 721.64C182.86 721.81 183.122 721.932 183.4 722H183.88C189.7 721.9 193.88 721.54 201.26 721.54C205.76 721.54 219.26 722 225.56 722C231.86 722 232.58 715.86 230.04 715.3C218.62 712.82 210.04 709.3 206.38 706.08C205.693 705.466 204.801 705.131 203.88 705.14Z" fill="#263238"/>
<path d="M204.9 707.2C204.832 707.181 204.771 707.142 204.725 707.089C204.679 707.036 204.649 706.97 204.64 706.9C204.625 706.831 204.635 706.76 204.668 706.697C204.701 706.635 204.755 706.587 204.82 706.56C205.34 706.22 210.12 703.28 211.76 704.14C211.945 704.221 212.102 704.356 212.209 704.527C212.316 704.698 212.369 704.898 212.36 705.1C212.409 705.452 212.368 705.81 212.242 706.142C212.116 706.474 211.909 706.769 211.64 707C210.797 707.562 209.789 707.822 208.78 707.74C207.471 707.699 206.17 707.518 204.9 707.2ZM205.92 706.72C207.652 707.3 209.539 707.2 211.2 706.44C211.374 706.284 211.508 706.088 211.588 705.868C211.668 705.648 211.693 705.412 211.66 705.18C211.66 704.9 211.54 704.78 211.44 704.78C211.308 704.7 211.153 704.665 211 704.68C209.217 705.029 207.518 705.722 206 706.72H205.92Z" fill="#407BFF"/>
<path d="M204.82 707.28C204.765 707.246 204.72 707.199 204.689 707.143C204.657 707.087 204.64 707.024 204.64 706.96C204.64 706.74 205.02 702.5 206.74 701.1C206.944 700.929 207.179 700.8 207.434 700.721C207.688 700.642 207.955 700.614 208.22 700.64C208.487 700.639 208.746 700.73 208.953 700.897C209.161 701.065 209.305 701.299 209.36 701.56C209.66 703.14 206.7 706.4 205.16 707.22H205L204.82 707.28ZM207.18 701.52C206.142 702.847 205.535 704.459 205.44 706.14C206.96 705 208.84 702.52 208.66 701.56C208.66 701.56 208.66 701.2 208.14 701.2H208C207.698 701.208 207.408 701.321 207.18 701.52Z" fill="#407BFF"/>
<path opacity="0.2" d="M189.86 675.48L205.14 677.1L203.64 694.1L188.36 692.48L189.86 675.48Z" fill="black"/>
<path d="M118 372.1H196.66C204.12 412.92 227.52 557.34 210.66 686.1L184.04 682.8C184.04 682.8 186.5 511.98 163.02 448.8C160.32 482.6 157.02 518.56 154.32 537.7C147.48 584.8 132.84 687.7 132.84 687.7H105.82C105.82 687.7 111.36 589.18 113.92 542.9C116.72 492.6 118 382.42 118 372.1Z" fill="#263238"/>
<path d="M213.78 692.22L180.84 687.32L181.86 678.2L216.12 682.7L213.78 692.22Z" fill="#407BFF"/>
<path d="M136.18 687.88H104.22V678.34L137.38 677.72L136.18 687.88Z" fill="#407BFF"/>
<path opacity="0.2" d="M163.1 448.74C166.96 459.812 169.896 471.184 171.88 482.74C174.08 452.74 165.28 420.74 165.28 420.74L163.1 448.74Z" fill="black"/>
<path d="M115.82 385.78L114.02 395.28C114.02 395.28 169.04 402.4 203.26 402.2L202.06 395.68L115.82 385.78Z" fill="#407BFF"/>
<path d="M227.48 303.52C227.48 303.52 246.5 363.52 259.48 367.52C272.46 371.52 305.48 321.94 305.48 321.94C305.48 321.94 335.14 321.66 336.46 319.64C337.78 317.62 328.76 296.72 326.6 296.7C324.44 296.68 298.6 306.4 297.62 308.04C296.64 309.68 266.98 338.04 265.62 337.2C264.26 336.36 252.98 300.7 252.98 300.7L227.48 303.52Z" fill="#B97964"/>
<path d="M309.4 318.7C309.636 318.652 309.87 318.592 310.1 318.52L309.76 318.3C309.651 318.443 309.53 318.576 309.4 318.7Z" fill="#B97964"/>
<path d="M216.68 296.6L219 300.86L229.82 320.86L232.08 325L262.46 314.44C262.46 314.44 249.82 267.28 245.44 262.44L216.68 296.6Z" fill="#407BFF"/>
<path opacity="0.4" d="M216.68 296.6L219 300.86L229.82 320.86L232.08 325L262.46 314.44C262.46 314.44 249.82 267.28 245.44 262.44L216.68 296.6Z" fill="white"/>
<path opacity="0.2" d="M219 300.86L229.82 320.86C236.52 307.72 234.58 289.72 234.58 289.72L219 300.86Z" fill="black"/>
<path d="M245.44 262.46C239.716 255.85 232.708 250.474 224.841 246.658C216.975 242.841 208.414 240.665 199.68 240.26C169.92 238.86 160.56 241.82 149.68 251.54C133.78 265.74 114 388 114 388C143.019 396.079 173.163 399.356 203.24 397.7C203.24 397.7 203.6 363.7 214.34 340.88C226.436 315.459 236.825 289.261 245.44 262.46Z" fill="#407BFF"/>
<path opacity="0.4" d="M114 388C143.018 396.08 173.162 399.363 203.24 397.72C203.24 397.72 203.24 393.52 203.82 387.1C204.06 384.06 204.42 380.5 204.92 376.66C205.42 372.82 206.14 368.44 206.92 364.08C207.4 361.74 207.96 359.38 208.56 357.04C209.955 351.484 211.856 346.068 214.24 340.86C215.56 338.06 216.84 335.28 218.08 332.56C220.22 327.8 222.26 323.18 224.08 318.76C228.08 309.46 231.48 300.96 234.32 293.52C236.32 288.18 238.12 283.4 239.58 279.3C241.2 274.72 242.48 270.96 243.42 268.16C244.64 264.46 245.24 262.44 245.24 262.44C244.246 261.196 243.178 260.014 242.04 258.9C230.878 247.898 216.121 241.294 200.48 240.3H199.48C176.8 239.24 165.98 240.7 157.3 245.76C154.501 247.435 151.881 249.392 149.48 251.6C147.222 254.047 145.445 256.896 144.24 260C140.543 268.596 137.508 277.462 135.16 286.52L133.84 291.38C131.84 298.8 129.96 306.7 128.16 314.7C127.64 316.98 127.14 319.26 126.64 321.52C125.9 325 125.16 328.46 124.46 331.88C122.66 340.5 121.04 348.86 119.62 356.38C117.62 367.18 116 376.22 115.04 381.84C114.38 385.8 114 388 114 388ZM201.4 241.4C203.407 241.451 205.409 241.604 207.4 241.86C215.4 242.94 227.7 249.36 227.4 252.4C227.1 255.44 222.42 263.2 210.46 261.32C206.293 260.551 202.338 258.901 198.86 256.48C192.26 252.12 187.46 246.22 186.98 244.3C186.38 242 194.14 241.22 201.42 241.44L201.4 241.4Z" fill="white"/>
<path d="M175.76 282.16C175.76 282.16 160 320.3 156.76 352L199.38 357.44C199.38 357.44 218.5 305.9 222.46 289.78C222.46 289.74 188.42 286.34 175.76 282.16Z" fill="#407BFF"/>
<path opacity="0.4" d="M214.14 291.24L220.06 291.82L215.72 295.18L214.14 291.24Z" fill="white"/>
<path d="M190.94 244.4C194.16 253.6 206.14 257.8 212.42 258.4C214.733 258.765 217.101 258.359 219.161 257.246C221.221 256.133 222.858 254.374 223.82 252.24C223.82 252.24 216.64 248.66 217.36 244.64C217.869 242.182 218.876 239.854 220.32 237.8C221.068 236.627 221.882 235.499 222.76 234.42L211.26 209.76C208.7 220.44 200.84 240.96 190.94 244.4Z" fill="#B97964"/>
<path opacity="0.2" d="M210.8 221.14C205.32 233.14 213.06 241.4 217.36 244.56C217.869 242.102 218.876 239.774 220.32 237.72L210.8 221.14Z" fill="black"/>
<path d="M249.36 189.12C249.36 189.12 253.04 209.44 242.44 217.58C231.84 225.72 230.76 187.76 230.76 187.76L249.36 189.12Z" fill="#B97964"/>
<path opacity="0.4" d="M249.36 189.12C249.36 189.12 253.04 209.44 242.44 217.58C231.84 225.72 230.76 187.76 230.76 187.76L249.36 189.12Z" fill="black"/>
<path d="M211.46 234.68C213.823 237.975 217.203 240.403 221.08 241.592C224.956 242.78 229.116 242.664 232.92 241.26C237.889 239.516 242.003 235.938 244.42 231.26C244.76 230.64 245.06 229.96 245.36 229.26C250.32 216.64 251.36 185.84 238 186.98C226.96 187.92 216.16 184.52 210.52 194.06C208.909 196.774 207.963 199.831 207.76 202.98C206.56 217.7 205.16 226.24 211.46 234.68Z" fill="#B97964"/>
<path d="M229.22 210.26C228.98 211.42 229.54 212.48 230.32 212.6C231.1 212.72 231.86 211.82 232.04 210.6C232.22 209.38 231.7 208.38 230.94 208.28C230.18 208.18 229.4 209.06 229.22 210.26Z" fill="#263238"/>
<path d="M242.6 212.16C242.36 213.32 242.94 214.38 243.7 214.5C244.46 214.62 245.24 213.72 245.4 212.5C245.56 211.28 245.08 210.28 244.3 210.16C243.52 210.04 242.76 211.04 242.6 212.16Z" fill="#263238"/>
<path d="M238.26 212.14C239.161 215.956 240.581 219.63 242.48 223.06C241.584 223.526 240.597 223.79 239.589 223.835C238.58 223.88 237.574 223.704 236.64 223.32L238.26 212.14Z" fill="#A24E3F"/>
<path d="M225.7 205.34C225.822 205.377 225.952 205.379 226.075 205.347C226.198 205.316 226.311 205.251 226.4 205.16C227.012 204.529 227.763 204.049 228.592 203.758C229.422 203.466 230.308 203.371 231.18 203.48C231.363 203.516 231.552 203.48 231.709 203.379C231.865 203.279 231.977 203.121 232.02 202.94C232.04 202.851 232.042 202.758 232.026 202.668C232.01 202.577 231.975 202.491 231.925 202.415C231.874 202.338 231.809 202.273 231.733 202.222C231.656 202.171 231.57 202.137 231.48 202.12C230.393 201.961 229.284 202.059 228.242 202.406C227.2 202.753 226.254 203.34 225.48 204.12C225.35 204.254 225.278 204.433 225.278 204.62C225.278 204.807 225.35 204.986 225.48 205.12C225.543 205.203 225.617 205.277 225.7 205.34Z" fill="#263238"/>
<path d="M249 208.36C249.129 208.409 249.271 208.409 249.4 208.36C249.489 208.337 249.572 208.297 249.645 208.24C249.717 208.183 249.777 208.112 249.82 208.032C249.863 207.951 249.889 207.862 249.896 207.77C249.903 207.678 249.891 207.587 249.86 207.5C249.543 206.434 248.974 205.459 248.201 204.658C247.429 203.858 246.475 203.255 245.42 202.9C245.332 202.873 245.239 202.864 245.148 202.873C245.056 202.883 244.968 202.911 244.887 202.956C244.807 203.001 244.736 203.061 244.68 203.134C244.624 203.207 244.583 203.291 244.56 203.38C244.511 203.558 244.533 203.748 244.623 203.909C244.713 204.07 244.863 204.189 245.04 204.24C245.867 204.544 246.613 205.037 247.217 205.679C247.821 206.322 248.267 207.096 248.52 207.94C248.56 208.044 248.624 208.137 248.708 208.21C248.791 208.283 248.892 208.335 249 208.36Z" fill="#263238"/>
<path d="M227.36 223.84C227.36 223.84 229.82 229.12 234.84 228.92" stroke="#263238" stroke-width="0.5" stroke-linecap="round" stroke-linejoin="round"/>
<path d="M220.98 186.46L221.18 192.98C220.04 193.394 219.098 194.224 218.546 195.304C217.993 196.384 217.869 197.633 218.2 198.8C219.76 204.4 215.9 212.52 211.44 215.48C211.44 215.48 211.44 213.12 209.44 213.48C207.44 213.84 206.82 226.12 210.12 232.3C210.12 232.3 203.06 225.8 200.96 212.66C198.96 200.52 199.34 192.82 200.96 187L220.98 186.46Z" fill="#B97964"/>
<path opacity="0.4" d="M220.98 186.46L221.18 192.98C220.04 193.394 219.098 194.224 218.546 195.304C217.993 196.384 217.869 197.633 218.2 198.8C219.76 204.4 215.9 212.52 211.44 215.48C211.44 215.48 211.44 213.12 209.44 213.48C207.44 213.84 206.82 226.12 210.12 232.3C210.12 232.3 203.06 225.8 200.96 212.66C198.96 200.52 199.34 192.82 200.96 187L220.98 186.46Z" fill="black"/>
<path d="M199.84 194.28C206.977 194.979 214.18 194.54 221.18 192.98C241.32 188.98 249.9 196.38 249.9 196.38C251.293 195.127 252.391 193.579 253.114 191.85C253.837 190.121 254.167 188.252 254.08 186.38C253.5 180.58 245.44 179.6 245.44 179.6C245.44 179.6 243.02 173.06 237.68 171.08C232.34 169.1 226.98 174.06 226.98 174.06C226.98 174.06 220.32 167.62 212.56 169.46C209.948 169.996 207.599 171.413 205.906 173.473C204.213 175.534 203.279 178.113 203.26 180.78C203.26 180.78 194.16 181.7 194.36 186.38C194.56 191.06 199.84 194.28 199.84 194.28Z" fill="#263238"/>
<path d="M230.78 218.78C234.392 218.78 237.32 215.404 237.32 211.24C237.32 207.076 234.392 203.7 230.78 203.7C227.168 203.7 224.24 207.076 224.24 211.24C224.24 215.404 227.168 218.78 230.78 218.78Z" stroke="#263238" stroke-width="0.5" stroke-linecap="round" stroke-linejoin="round"/>
<path d="M253.76 212.36C253.58 213.612 253.044 214.786 252.215 215.742C251.387 216.698 250.301 217.396 249.088 217.752C247.874 218.109 246.584 218.109 245.37 217.753C244.156 217.397 243.07 216.7 242.241 215.745C241.413 214.789 240.876 213.615 240.695 212.364C240.514 211.112 240.697 209.834 241.221 208.683C241.746 207.532 242.59 206.556 243.654 205.871C244.717 205.186 245.955 204.821 247.22 204.82C249.083 204.963 250.814 205.835 252.038 207.247C253.263 208.658 253.881 210.496 253.76 212.36Z" stroke="#263238" stroke-width="0.5" stroke-linecap="round" stroke-linejoin="round"/>
<path d="M237.3 212.14C237.3 212.14 239.42 210.82 240.68 212.36" stroke="#263238" stroke-width="0.5" stroke-linecap="round" stroke-linejoin="round"/>
<path d="M224.24 211.24L212.78 209.7C211.278 209.506 209.76 209.916 208.56 210.84L208.06 211.24" stroke="#263238" stroke-width="0.5" stroke-linecap="round" stroke-linejoin="round"/>
<path d="M199.72 214C200.869 217.518 203.364 220.437 206.66 222.12C211.04 224.3 214.16 220.62 213.72 216C213.32 211.88 210.58 205.68 205.72 205.44C204.683 205.405 203.653 205.63 202.724 206.093C201.796 206.557 200.997 207.245 200.401 208.095C199.806 208.945 199.431 209.93 199.312 210.961C199.193 211.992 199.333 213.037 199.72 214Z" fill="#B97964"/>
<path opacity="0.2" d="M126.64 321.58C145.52 313.74 160.44 281.36 160.44 281.36L149.72 274.88L135.16 286.58L133.84 291.44C131.84 298.86 129.96 306.76 128.16 314.76C127.64 317.04 127.14 319.32 126.64 321.58Z" fill="black"/>
<path d="M230.62 325.02L263.18 313.06L264.12 315.82L231.54 327.42L230.62 325.02Z" fill="#407BFF"/>
<path d="M146.257 407.323L51.8765 392.358L42.6461 450.57L137.027 465.536L146.257 407.323Z" fill="#407BFF"/>
<path d="M85.2598 414.52L66.0798 424.46L81.2398 439.84" stroke="white" stroke-width="2" stroke-linecap="round" stroke-linejoin="round"/>
<path d="M103.58 443.38L122.74 433.44L107.6 418.06" stroke="white" stroke-width="2" stroke-linecap="round" stroke-linejoin="round"/>
<path d="M87.9199 440.9L100.92 417" stroke="white" stroke-width="2" stroke-linecap="round" stroke-linejoin="round"/>
<path d="M138.42 256.76C138.42 256.76 102.84 292.46 98 299.4C93.16 306.34 83.88 383.28 83.88 383.28C83.88 383.28 81.88 383.96 81.76 385.62C81.64 387.28 81.44 408.88 81.76 409.88C82.08 410.88 98.44 420.98 100.86 418.58C103.28 416.18 106.64 391.72 106.64 391.72L98 383.28C98 383.28 108 326.62 114.34 317.44C120.68 308.26 146.52 288.62 146.52 288.62L138.42 256.76Z" fill="#B97964"/>
<path d="M165.76 242.38C170.94 253.36 167 276.48 157.44 284.64C147.325 293.028 136.632 300.694 125.44 307.58L108 284.72C108 284.72 126.56 266.6 137.8 256.16C145.445 248.749 155.226 243.928 165.76 242.38Z" fill="#407BFF"/>
<path opacity="0.4" d="M165.76 242.38C170.94 253.36 167 276.48 157.44 284.64C147.325 293.028 136.632 300.694 125.44 307.58L108 284.72C108 284.72 126.56 266.6 137.8 256.16C145.445 248.749 155.226 243.928 165.76 242.38Z" fill="white"/>
<path d="M108 283.26L105.84 286.2L124.06 310.02L126.64 308.18L108 283.26Z" fill="#407BFF"/>
</svg>
